G04 #@! TF.GenerationSoftware,KiCad,Pcbnew,(5.1.5)-3*
G04 #@! TF.CreationDate,2019-12-31T15:28:13-03:00*
G04 #@! TF.ProjectId,BoardNetMF1,426f6172-644e-4657-944d-46312e6b6963,rev?*
G04 #@! TF.SameCoordinates,Original*
G04 #@! TF.FileFunction,Legend,Top*
G04 #@! TF.FilePolarity,Positive*
%FSLAX46Y46*%
G04 Gerber Fmt 4.6, Leading zero omitted, Abs format (unit mm)*
G04 Created by KiCad (PCBNEW (5.1.5)-3) date 2019-12-31 15:28:13*
%MOMM*%
%LPD*%
G04 APERTURE LIST*
%ADD10C,0.150000*%
%ADD11C,0.203200*%
%ADD12C,0.120000*%
%ADD13C,0.304800*%
%ADD14C,0.175400*%
%ADD15C,0.101600*%
%ADD16C,0.010000*%
G04 APERTURE END LIST*
D10*
X130159333Y-133802380D02*
X129826000Y-133326190D01*
X129587904Y-133802380D02*
X129587904Y-132802380D01*
X129968857Y-132802380D01*
X130064095Y-132850000D01*
X130111714Y-132897619D01*
X130159333Y-132992857D01*
X130159333Y-133135714D01*
X130111714Y-133230952D01*
X130064095Y-133278571D01*
X129968857Y-133326190D01*
X129587904Y-133326190D01*
X130587904Y-133278571D02*
X130921238Y-133278571D01*
X131064095Y-133802380D02*
X130587904Y-133802380D01*
X130587904Y-132802380D01*
X131064095Y-132802380D01*
X131349809Y-132802380D02*
X131683142Y-133802380D01*
X132016476Y-132802380D01*
X132349809Y-133707142D02*
X132397428Y-133754761D01*
X132349809Y-133802380D01*
X132302190Y-133754761D01*
X132349809Y-133707142D01*
X132349809Y-133802380D01*
X133778380Y-132802380D02*
X133873619Y-132802380D01*
X133968857Y-132850000D01*
X134016476Y-132897619D01*
X134064095Y-132992857D01*
X134111714Y-133183333D01*
X134111714Y-133421428D01*
X134064095Y-133611904D01*
X134016476Y-133707142D01*
X133968857Y-133754761D01*
X133873619Y-133802380D01*
X133778380Y-133802380D01*
X133683142Y-133754761D01*
X133635523Y-133707142D01*
X133587904Y-133611904D01*
X133540285Y-133421428D01*
X133540285Y-133183333D01*
X133587904Y-132992857D01*
X133635523Y-132897619D01*
X133683142Y-132850000D01*
X133778380Y-132802380D01*
X143280190Y-83253942D02*
X143551123Y-83253942D01*
X143667238Y-83679695D02*
X143280190Y-83679695D01*
X143280190Y-82866895D01*
X143667238Y-82866895D01*
X143976876Y-83640990D02*
X144092990Y-83679695D01*
X144286514Y-83679695D01*
X144363923Y-83640990D01*
X144402628Y-83602285D01*
X144441333Y-83524876D01*
X144441333Y-83447466D01*
X144402628Y-83370057D01*
X144363923Y-83331352D01*
X144286514Y-83292647D01*
X144131695Y-83253942D01*
X144054285Y-83215238D01*
X144015580Y-83176533D01*
X143976876Y-83099123D01*
X143976876Y-83021714D01*
X144015580Y-82944304D01*
X144054285Y-82905600D01*
X144131695Y-82866895D01*
X144325219Y-82866895D01*
X144441333Y-82905600D01*
X144789676Y-83679695D02*
X144789676Y-82866895D01*
X145099314Y-82866895D01*
X145176723Y-82905600D01*
X145215428Y-82944304D01*
X145254133Y-83021714D01*
X145254133Y-83137828D01*
X145215428Y-83215238D01*
X145176723Y-83253942D01*
X145099314Y-83292647D01*
X144789676Y-83292647D01*
X145718590Y-83215238D02*
X145641180Y-83176533D01*
X145602476Y-83137828D01*
X145563771Y-83060419D01*
X145563771Y-83021714D01*
X145602476Y-82944304D01*
X145641180Y-82905600D01*
X145718590Y-82866895D01*
X145873409Y-82866895D01*
X145950819Y-82905600D01*
X145989523Y-82944304D01*
X146028228Y-83021714D01*
X146028228Y-83060419D01*
X145989523Y-83137828D01*
X145950819Y-83176533D01*
X145873409Y-83215238D01*
X145718590Y-83215238D01*
X145641180Y-83253942D01*
X145602476Y-83292647D01*
X145563771Y-83370057D01*
X145563771Y-83524876D01*
X145602476Y-83602285D01*
X145641180Y-83640990D01*
X145718590Y-83679695D01*
X145873409Y-83679695D01*
X145950819Y-83640990D01*
X145989523Y-83602285D01*
X146028228Y-83524876D01*
X146028228Y-83370057D01*
X145989523Y-83292647D01*
X145950819Y-83253942D01*
X145873409Y-83215238D01*
X146337866Y-82944304D02*
X146376571Y-82905600D01*
X146453980Y-82866895D01*
X146647504Y-82866895D01*
X146724914Y-82905600D01*
X146763619Y-82944304D01*
X146802323Y-83021714D01*
X146802323Y-83099123D01*
X146763619Y-83215238D01*
X146299161Y-83679695D01*
X146802323Y-83679695D01*
X147499009Y-82866895D02*
X147344190Y-82866895D01*
X147266780Y-82905600D01*
X147228076Y-82944304D01*
X147150666Y-83060419D01*
X147111961Y-83215238D01*
X147111961Y-83524876D01*
X147150666Y-83602285D01*
X147189371Y-83640990D01*
X147266780Y-83679695D01*
X147421600Y-83679695D01*
X147499009Y-83640990D01*
X147537714Y-83602285D01*
X147576419Y-83524876D01*
X147576419Y-83331352D01*
X147537714Y-83253942D01*
X147499009Y-83215238D01*
X147421600Y-83176533D01*
X147266780Y-83176533D01*
X147189371Y-83215238D01*
X147150666Y-83253942D01*
X147111961Y-83331352D01*
X148273104Y-82866895D02*
X148118285Y-82866895D01*
X148040876Y-82905600D01*
X148002171Y-82944304D01*
X147924761Y-83060419D01*
X147886057Y-83215238D01*
X147886057Y-83524876D01*
X147924761Y-83602285D01*
X147963466Y-83640990D01*
X148040876Y-83679695D01*
X148195695Y-83679695D01*
X148273104Y-83640990D01*
X148311809Y-83602285D01*
X148350514Y-83524876D01*
X148350514Y-83331352D01*
X148311809Y-83253942D01*
X148273104Y-83215238D01*
X148195695Y-83176533D01*
X148040876Y-83176533D01*
X147963466Y-83215238D01*
X147924761Y-83253942D01*
X147886057Y-83331352D01*
X143268095Y-82116990D02*
X143384209Y-82155695D01*
X143577733Y-82155695D01*
X143655142Y-82116990D01*
X143693847Y-82078285D01*
X143732552Y-82000876D01*
X143732552Y-81923466D01*
X143693847Y-81846057D01*
X143655142Y-81807352D01*
X143577733Y-81768647D01*
X143422914Y-81729942D01*
X143345504Y-81691238D01*
X143306800Y-81652533D01*
X143268095Y-81575123D01*
X143268095Y-81497714D01*
X143306800Y-81420304D01*
X143345504Y-81381600D01*
X143422914Y-81342895D01*
X143616438Y-81342895D01*
X143732552Y-81381600D01*
X143964780Y-81342895D02*
X144429238Y-81342895D01*
X144197009Y-82155695D02*
X144197009Y-81342895D01*
X144700171Y-82155695D02*
X144700171Y-81342895D01*
X144971104Y-81923466D01*
X145242038Y-81342895D01*
X145242038Y-82155695D01*
X145551676Y-81342895D02*
X146054838Y-81342895D01*
X145783904Y-81652533D01*
X145900019Y-81652533D01*
X145977428Y-81691238D01*
X146016133Y-81729942D01*
X146054838Y-81807352D01*
X146054838Y-82000876D01*
X146016133Y-82078285D01*
X145977428Y-82116990D01*
X145900019Y-82155695D01*
X145667790Y-82155695D01*
X145590380Y-82116990D01*
X145551676Y-82078285D01*
X146364476Y-81420304D02*
X146403180Y-81381600D01*
X146480590Y-81342895D01*
X146674114Y-81342895D01*
X146751523Y-81381600D01*
X146790228Y-81420304D01*
X146828933Y-81497714D01*
X146828933Y-81575123D01*
X146790228Y-81691238D01*
X146325771Y-82155695D01*
X146828933Y-82155695D01*
X147448209Y-81729942D02*
X147177276Y-81729942D01*
X147177276Y-82155695D02*
X147177276Y-81342895D01*
X147564323Y-81342895D01*
X148222304Y-81613828D02*
X148222304Y-82155695D01*
X148028780Y-81304190D02*
X147835257Y-81884761D01*
X148338419Y-81884761D01*
X148802876Y-81342895D02*
X148880285Y-81342895D01*
X148957695Y-81381600D01*
X148996400Y-81420304D01*
X149035104Y-81497714D01*
X149073809Y-81652533D01*
X149073809Y-81846057D01*
X149035104Y-82000876D01*
X148996400Y-82078285D01*
X148957695Y-82116990D01*
X148880285Y-82155695D01*
X148802876Y-82155695D01*
X148725466Y-82116990D01*
X148686761Y-82078285D01*
X148648057Y-82000876D01*
X148609352Y-81846057D01*
X148609352Y-81652533D01*
X148648057Y-81497714D01*
X148686761Y-81420304D01*
X148725466Y-81381600D01*
X148802876Y-81342895D01*
X149847904Y-82155695D02*
X149383447Y-82155695D01*
X149615676Y-82155695D02*
X149615676Y-81342895D01*
X149538266Y-81459009D01*
X149460857Y-81536419D01*
X149383447Y-81575123D01*
X129556952Y-130341714D02*
X129747428Y-131008380D01*
X129937904Y-130532190D01*
X130128380Y-131008380D01*
X130318857Y-130341714D01*
X130604571Y-130341714D02*
X130795047Y-131008380D01*
X130985523Y-130532190D01*
X131176000Y-131008380D01*
X131366476Y-130341714D01*
X131652190Y-130341714D02*
X131842666Y-131008380D01*
X132033142Y-130532190D01*
X132223619Y-131008380D01*
X132414095Y-130341714D01*
X132795047Y-130913142D02*
X132842666Y-130960761D01*
X132795047Y-131008380D01*
X132747428Y-130960761D01*
X132795047Y-130913142D01*
X132795047Y-131008380D01*
X133271238Y-131008380D02*
X133271238Y-130341714D01*
X133271238Y-130436952D02*
X133318857Y-130389333D01*
X133414095Y-130341714D01*
X133556952Y-130341714D01*
X133652190Y-130389333D01*
X133699809Y-130484571D01*
X133699809Y-131008380D01*
X133699809Y-130484571D02*
X133747428Y-130389333D01*
X133842666Y-130341714D01*
X133985523Y-130341714D01*
X134080761Y-130389333D01*
X134128380Y-130484571D01*
X134128380Y-131008380D01*
X135033142Y-131008380D02*
X135033142Y-130484571D01*
X134985523Y-130389333D01*
X134890285Y-130341714D01*
X134699809Y-130341714D01*
X134604571Y-130389333D01*
X135033142Y-130960761D02*
X134937904Y-131008380D01*
X134699809Y-131008380D01*
X134604571Y-130960761D01*
X134556952Y-130865523D01*
X134556952Y-130770285D01*
X134604571Y-130675047D01*
X134699809Y-130627428D01*
X134937904Y-130627428D01*
X135033142Y-130579809D01*
X135509333Y-131008380D02*
X135509333Y-130341714D01*
X135509333Y-130532190D02*
X135556952Y-130436952D01*
X135604571Y-130389333D01*
X135699809Y-130341714D01*
X135795047Y-130341714D01*
X136556952Y-130960761D02*
X136461714Y-131008380D01*
X136271238Y-131008380D01*
X136176000Y-130960761D01*
X136128380Y-130913142D01*
X136080761Y-130817904D01*
X136080761Y-130532190D01*
X136128380Y-130436952D01*
X136176000Y-130389333D01*
X136271238Y-130341714D01*
X136461714Y-130341714D01*
X136556952Y-130389333D01*
X137366476Y-130960761D02*
X137271238Y-131008380D01*
X137080761Y-131008380D01*
X136985523Y-130960761D01*
X136937904Y-130865523D01*
X136937904Y-130484571D01*
X136985523Y-130389333D01*
X137080761Y-130341714D01*
X137271238Y-130341714D01*
X137366476Y-130389333D01*
X137414095Y-130484571D01*
X137414095Y-130579809D01*
X136937904Y-130675047D01*
X137985523Y-131008380D02*
X137890285Y-130960761D01*
X137842666Y-130865523D01*
X137842666Y-130008380D01*
X138509333Y-131008380D02*
X138414095Y-130960761D01*
X138366476Y-130913142D01*
X138318857Y-130817904D01*
X138318857Y-130532190D01*
X138366476Y-130436952D01*
X138414095Y-130389333D01*
X138509333Y-130341714D01*
X138652190Y-130341714D01*
X138747428Y-130389333D01*
X138795047Y-130436952D01*
X138842666Y-130532190D01*
X138842666Y-130817904D01*
X138795047Y-130913142D01*
X138747428Y-130960761D01*
X138652190Y-131008380D01*
X138509333Y-131008380D01*
X139699809Y-130960761D02*
X139604571Y-131008380D01*
X139414095Y-131008380D01*
X139318857Y-130960761D01*
X139271238Y-130913142D01*
X139223619Y-130817904D01*
X139223619Y-130532190D01*
X139271238Y-130436952D01*
X139318857Y-130389333D01*
X139414095Y-130341714D01*
X139604571Y-130341714D01*
X139699809Y-130389333D01*
X140556952Y-131008380D02*
X140556952Y-130484571D01*
X140509333Y-130389333D01*
X140414095Y-130341714D01*
X140223619Y-130341714D01*
X140128380Y-130389333D01*
X140556952Y-130960761D02*
X140461714Y-131008380D01*
X140223619Y-131008380D01*
X140128380Y-130960761D01*
X140080761Y-130865523D01*
X140080761Y-130770285D01*
X140128380Y-130675047D01*
X140223619Y-130627428D01*
X140461714Y-130627428D01*
X140556952Y-130579809D01*
X141033142Y-131008380D02*
X141033142Y-130341714D01*
X141033142Y-130436952D02*
X141080761Y-130389333D01*
X141176000Y-130341714D01*
X141318857Y-130341714D01*
X141414095Y-130389333D01*
X141461714Y-130484571D01*
X141461714Y-131008380D01*
X141461714Y-130484571D02*
X141509333Y-130389333D01*
X141604571Y-130341714D01*
X141747428Y-130341714D01*
X141842666Y-130389333D01*
X141890285Y-130484571D01*
X141890285Y-131008380D01*
X142366476Y-130341714D02*
X142366476Y-131341714D01*
X142366476Y-130389333D02*
X142461714Y-130341714D01*
X142652190Y-130341714D01*
X142747428Y-130389333D01*
X142795047Y-130436952D01*
X142842666Y-130532190D01*
X142842666Y-130817904D01*
X142795047Y-130913142D01*
X142747428Y-130960761D01*
X142652190Y-131008380D01*
X142461714Y-131008380D01*
X142366476Y-130960761D01*
X143414095Y-131008380D02*
X143318857Y-130960761D01*
X143271238Y-130913142D01*
X143223619Y-130817904D01*
X143223619Y-130532190D01*
X143271238Y-130436952D01*
X143318857Y-130389333D01*
X143414095Y-130341714D01*
X143556952Y-130341714D01*
X143652190Y-130389333D01*
X143699809Y-130436952D01*
X143747428Y-130532190D01*
X143747428Y-130817904D01*
X143699809Y-130913142D01*
X143652190Y-130960761D01*
X143556952Y-131008380D01*
X143414095Y-131008380D01*
X144128380Y-130960761D02*
X144223619Y-131008380D01*
X144414095Y-131008380D01*
X144509333Y-130960761D01*
X144556952Y-130865523D01*
X144556952Y-130817904D01*
X144509333Y-130722666D01*
X144414095Y-130675047D01*
X144271238Y-130675047D01*
X144176000Y-130627428D01*
X144128380Y-130532190D01*
X144128380Y-130484571D01*
X144176000Y-130389333D01*
X144271238Y-130341714D01*
X144414095Y-130341714D01*
X144509333Y-130389333D01*
X144985523Y-130913142D02*
X145033142Y-130960761D01*
X144985523Y-131008380D01*
X144937904Y-130960761D01*
X144985523Y-130913142D01*
X144985523Y-131008380D01*
X145890285Y-130960761D02*
X145795047Y-131008380D01*
X145604571Y-131008380D01*
X145509333Y-130960761D01*
X145461714Y-130913142D01*
X145414095Y-130817904D01*
X145414095Y-130532190D01*
X145461714Y-130436952D01*
X145509333Y-130389333D01*
X145604571Y-130341714D01*
X145795047Y-130341714D01*
X145890285Y-130389333D01*
X146747428Y-130960761D02*
X146652190Y-131008380D01*
X146461714Y-131008380D01*
X146366476Y-130960761D01*
X146318857Y-130913142D01*
X146271238Y-130817904D01*
X146271238Y-130532190D01*
X146318857Y-130436952D01*
X146366476Y-130389333D01*
X146461714Y-130341714D01*
X146652190Y-130341714D01*
X146747428Y-130389333D01*
D11*
X135599714Y-78086857D02*
X135648095Y-78135238D01*
X135599714Y-78183619D01*
X135551333Y-78135238D01*
X135599714Y-78086857D01*
X135599714Y-78183619D01*
X136083523Y-78183619D02*
X136083523Y-77167619D01*
X136664095Y-78183619D01*
X136664095Y-77167619D01*
X137147904Y-77651428D02*
X137486571Y-77651428D01*
X137631714Y-78183619D02*
X137147904Y-78183619D01*
X137147904Y-77167619D01*
X137631714Y-77167619D01*
X137922000Y-77167619D02*
X138502571Y-77167619D01*
X138212285Y-78183619D02*
X138212285Y-77167619D01*
X139615333Y-78183619D02*
X139615333Y-77167619D01*
X139954000Y-77893333D01*
X140292666Y-77167619D01*
X140292666Y-78183619D01*
X141115142Y-77651428D02*
X140776476Y-77651428D01*
X140776476Y-78183619D02*
X140776476Y-77167619D01*
X141260285Y-77167619D01*
X142760095Y-77651428D02*
X142905238Y-77699809D01*
X142953619Y-77748190D01*
X143002000Y-77844952D01*
X143002000Y-77990095D01*
X142953619Y-78086857D01*
X142905238Y-78135238D01*
X142808476Y-78183619D01*
X142421428Y-78183619D01*
X142421428Y-77167619D01*
X142760095Y-77167619D01*
X142856857Y-77216000D01*
X142905238Y-77264380D01*
X142953619Y-77361142D01*
X142953619Y-77457904D01*
X142905238Y-77554666D01*
X142856857Y-77603047D01*
X142760095Y-77651428D01*
X142421428Y-77651428D01*
X143582571Y-78183619D02*
X143485809Y-78135238D01*
X143437428Y-78086857D01*
X143389047Y-77990095D01*
X143389047Y-77699809D01*
X143437428Y-77603047D01*
X143485809Y-77554666D01*
X143582571Y-77506285D01*
X143727714Y-77506285D01*
X143824476Y-77554666D01*
X143872857Y-77603047D01*
X143921238Y-77699809D01*
X143921238Y-77990095D01*
X143872857Y-78086857D01*
X143824476Y-78135238D01*
X143727714Y-78183619D01*
X143582571Y-78183619D01*
X144792095Y-78183619D02*
X144792095Y-77651428D01*
X144743714Y-77554666D01*
X144646952Y-77506285D01*
X144453428Y-77506285D01*
X144356666Y-77554666D01*
X144792095Y-78135238D02*
X144695333Y-78183619D01*
X144453428Y-78183619D01*
X144356666Y-78135238D01*
X144308285Y-78038476D01*
X144308285Y-77941714D01*
X144356666Y-77844952D01*
X144453428Y-77796571D01*
X144695333Y-77796571D01*
X144792095Y-77748190D01*
X145275904Y-78183619D02*
X145275904Y-77506285D01*
X145275904Y-77699809D02*
X145324285Y-77603047D01*
X145372666Y-77554666D01*
X145469428Y-77506285D01*
X145566190Y-77506285D01*
X146340285Y-78183619D02*
X146340285Y-77167619D01*
X146340285Y-78135238D02*
X146243523Y-78183619D01*
X146050000Y-78183619D01*
X145953238Y-78135238D01*
X145904857Y-78086857D01*
X145856476Y-77990095D01*
X145856476Y-77699809D01*
X145904857Y-77603047D01*
X145953238Y-77554666D01*
X146050000Y-77506285D01*
X146243523Y-77506285D01*
X146340285Y-77554666D01*
D10*
X130923695Y-147062371D02*
X130110895Y-147062371D01*
X130110895Y-146752733D01*
X130149600Y-146675323D01*
X130188304Y-146636619D01*
X130265714Y-146597914D01*
X130381828Y-146597914D01*
X130459238Y-146636619D01*
X130497942Y-146675323D01*
X130536647Y-146752733D01*
X130536647Y-147062371D01*
X130497942Y-145978638D02*
X130536647Y-145862523D01*
X130575352Y-145823819D01*
X130652761Y-145785114D01*
X130768876Y-145785114D01*
X130846285Y-145823819D01*
X130884990Y-145862523D01*
X130923695Y-145939933D01*
X130923695Y-146249571D01*
X130110895Y-146249571D01*
X130110895Y-145978638D01*
X130149600Y-145901228D01*
X130188304Y-145862523D01*
X130265714Y-145823819D01*
X130343123Y-145823819D01*
X130420533Y-145862523D01*
X130459238Y-145901228D01*
X130497942Y-145978638D01*
X130497942Y-146249571D01*
X130923695Y-145011019D02*
X130923695Y-145475476D01*
X130923695Y-145243247D02*
X130110895Y-145243247D01*
X130227009Y-145320657D01*
X130304419Y-145398066D01*
X130343123Y-145475476D01*
X130110895Y-144275628D02*
X130110895Y-144662676D01*
X130497942Y-144701380D01*
X130459238Y-144662676D01*
X130420533Y-144585266D01*
X130420533Y-144391742D01*
X130459238Y-144314333D01*
X130497942Y-144275628D01*
X130575352Y-144236923D01*
X130768876Y-144236923D01*
X130846285Y-144275628D01*
X130884990Y-144314333D01*
X130923695Y-144391742D01*
X130923695Y-144585266D01*
X130884990Y-144662676D01*
X130846285Y-144701380D01*
X133209695Y-147062371D02*
X132396895Y-147062371D01*
X132396895Y-146752733D01*
X132435600Y-146675323D01*
X132474304Y-146636619D01*
X132551714Y-146597914D01*
X132667828Y-146597914D01*
X132745238Y-146636619D01*
X132783942Y-146675323D01*
X132822647Y-146752733D01*
X132822647Y-147062371D01*
X132783942Y-145978638D02*
X132822647Y-145862523D01*
X132861352Y-145823819D01*
X132938761Y-145785114D01*
X133054876Y-145785114D01*
X133132285Y-145823819D01*
X133170990Y-145862523D01*
X133209695Y-145939933D01*
X133209695Y-146249571D01*
X132396895Y-146249571D01*
X132396895Y-145978638D01*
X132435600Y-145901228D01*
X132474304Y-145862523D01*
X132551714Y-145823819D01*
X132629123Y-145823819D01*
X132706533Y-145862523D01*
X132745238Y-145901228D01*
X132783942Y-145978638D01*
X132783942Y-146249571D01*
X133209695Y-145011019D02*
X133209695Y-145475476D01*
X133209695Y-145243247D02*
X132396895Y-145243247D01*
X132513009Y-145320657D01*
X132590419Y-145398066D01*
X132629123Y-145475476D01*
X132667828Y-144314333D02*
X133209695Y-144314333D01*
X132358190Y-144507857D02*
X132938761Y-144701380D01*
X132938761Y-144198219D01*
X133861628Y-147052695D02*
X133861628Y-146239895D01*
X134171266Y-146239895D01*
X134248676Y-146278600D01*
X134287380Y-146317304D01*
X134326085Y-146394714D01*
X134326085Y-146510828D01*
X134287380Y-146588238D01*
X134248676Y-146626942D01*
X134171266Y-146665647D01*
X133861628Y-146665647D01*
X134945361Y-146626942D02*
X135061476Y-146665647D01*
X135100180Y-146704352D01*
X135138885Y-146781761D01*
X135138885Y-146897876D01*
X135100180Y-146975285D01*
X135061476Y-147013990D01*
X134984066Y-147052695D01*
X134674428Y-147052695D01*
X134674428Y-146239895D01*
X134945361Y-146239895D01*
X135022771Y-146278600D01*
X135061476Y-146317304D01*
X135100180Y-146394714D01*
X135100180Y-146472123D01*
X135061476Y-146549533D01*
X135022771Y-146588238D01*
X134945361Y-146626942D01*
X134674428Y-146626942D01*
X135912980Y-147052695D02*
X135448523Y-147052695D01*
X135680752Y-147052695D02*
X135680752Y-146239895D01*
X135603342Y-146356009D01*
X135525933Y-146433419D01*
X135448523Y-146472123D01*
X136183914Y-146239895D02*
X136687076Y-146239895D01*
X136416142Y-146549533D01*
X136532257Y-146549533D01*
X136609666Y-146588238D01*
X136648371Y-146626942D01*
X136687076Y-146704352D01*
X136687076Y-146897876D01*
X136648371Y-146975285D01*
X136609666Y-147013990D01*
X136532257Y-147052695D01*
X136300028Y-147052695D01*
X136222619Y-147013990D01*
X136183914Y-146975285D01*
X138162695Y-147062371D02*
X137349895Y-147062371D01*
X137349895Y-146752733D01*
X137388600Y-146675323D01*
X137427304Y-146636619D01*
X137504714Y-146597914D01*
X137620828Y-146597914D01*
X137698238Y-146636619D01*
X137736942Y-146675323D01*
X137775647Y-146752733D01*
X137775647Y-147062371D01*
X137736942Y-145978638D02*
X137775647Y-145862523D01*
X137814352Y-145823819D01*
X137891761Y-145785114D01*
X138007876Y-145785114D01*
X138085285Y-145823819D01*
X138123990Y-145862523D01*
X138162695Y-145939933D01*
X138162695Y-146249571D01*
X137349895Y-146249571D01*
X137349895Y-145978638D01*
X137388600Y-145901228D01*
X137427304Y-145862523D01*
X137504714Y-145823819D01*
X137582123Y-145823819D01*
X137659533Y-145862523D01*
X137698238Y-145901228D01*
X137736942Y-145978638D01*
X137736942Y-146249571D01*
X138162695Y-145011019D02*
X138162695Y-145475476D01*
X138162695Y-145243247D02*
X137349895Y-145243247D01*
X137466009Y-145320657D01*
X137543419Y-145398066D01*
X137582123Y-145475476D01*
X137427304Y-144701380D02*
X137388600Y-144662676D01*
X137349895Y-144585266D01*
X137349895Y-144391742D01*
X137388600Y-144314333D01*
X137427304Y-144275628D01*
X137504714Y-144236923D01*
X137582123Y-144236923D01*
X137698238Y-144275628D01*
X138162695Y-144740085D01*
X138162695Y-144236923D01*
X140575695Y-147062371D02*
X139762895Y-147062371D01*
X139762895Y-146752733D01*
X139801600Y-146675323D01*
X139840304Y-146636619D01*
X139917714Y-146597914D01*
X140033828Y-146597914D01*
X140111238Y-146636619D01*
X140149942Y-146675323D01*
X140188647Y-146752733D01*
X140188647Y-147062371D01*
X140149942Y-145978638D02*
X140188647Y-145862523D01*
X140227352Y-145823819D01*
X140304761Y-145785114D01*
X140420876Y-145785114D01*
X140498285Y-145823819D01*
X140536990Y-145862523D01*
X140575695Y-145939933D01*
X140575695Y-146249571D01*
X139762895Y-146249571D01*
X139762895Y-145978638D01*
X139801600Y-145901228D01*
X139840304Y-145862523D01*
X139917714Y-145823819D01*
X139995123Y-145823819D01*
X140072533Y-145862523D01*
X140111238Y-145901228D01*
X140149942Y-145978638D01*
X140149942Y-146249571D01*
X140575695Y-145011019D02*
X140575695Y-145475476D01*
X140575695Y-145243247D02*
X139762895Y-145243247D01*
X139879009Y-145320657D01*
X139956419Y-145398066D01*
X139995123Y-145475476D01*
X139762895Y-144507857D02*
X139762895Y-144430447D01*
X139801600Y-144353038D01*
X139840304Y-144314333D01*
X139917714Y-144275628D01*
X140072533Y-144236923D01*
X140266057Y-144236923D01*
X140420876Y-144275628D01*
X140498285Y-144314333D01*
X140536990Y-144353038D01*
X140575695Y-144430447D01*
X140575695Y-144507857D01*
X140536990Y-144585266D01*
X140498285Y-144623971D01*
X140420876Y-144662676D01*
X140266057Y-144701380D01*
X140072533Y-144701380D01*
X139917714Y-144662676D01*
X139840304Y-144623971D01*
X139801600Y-144585266D01*
X139762895Y-144507857D01*
X141741676Y-147052695D02*
X141741676Y-146239895D01*
X142051314Y-146239895D01*
X142128723Y-146278600D01*
X142167428Y-146317304D01*
X142206133Y-146394714D01*
X142206133Y-146510828D01*
X142167428Y-146588238D01*
X142128723Y-146626942D01*
X142051314Y-146665647D01*
X141741676Y-146665647D01*
X142825409Y-146626942D02*
X142941523Y-146665647D01*
X142980228Y-146704352D01*
X143018933Y-146781761D01*
X143018933Y-146897876D01*
X142980228Y-146975285D01*
X142941523Y-147013990D01*
X142864114Y-147052695D01*
X142554476Y-147052695D01*
X142554476Y-146239895D01*
X142825409Y-146239895D01*
X142902819Y-146278600D01*
X142941523Y-146317304D01*
X142980228Y-146394714D01*
X142980228Y-146472123D01*
X142941523Y-146549533D01*
X142902819Y-146588238D01*
X142825409Y-146626942D01*
X142554476Y-146626942D01*
X143405980Y-147052695D02*
X143560800Y-147052695D01*
X143638209Y-147013990D01*
X143676914Y-146975285D01*
X143754323Y-146859171D01*
X143793028Y-146704352D01*
X143793028Y-146394714D01*
X143754323Y-146317304D01*
X143715619Y-146278600D01*
X143638209Y-146239895D01*
X143483390Y-146239895D01*
X143405980Y-146278600D01*
X143367276Y-146317304D01*
X143328571Y-146394714D01*
X143328571Y-146588238D01*
X143367276Y-146665647D01*
X143405980Y-146704352D01*
X143483390Y-146743057D01*
X143638209Y-146743057D01*
X143715619Y-146704352D01*
X143754323Y-146665647D01*
X143793028Y-146588238D01*
X145782695Y-146929323D02*
X144969895Y-146929323D01*
X144969895Y-146619685D01*
X145008600Y-146542276D01*
X145047304Y-146503571D01*
X145124714Y-146464866D01*
X145240828Y-146464866D01*
X145318238Y-146503571D01*
X145356942Y-146542276D01*
X145395647Y-146619685D01*
X145395647Y-146929323D01*
X145356942Y-145845590D02*
X145395647Y-145729476D01*
X145434352Y-145690771D01*
X145511761Y-145652066D01*
X145627876Y-145652066D01*
X145705285Y-145690771D01*
X145743990Y-145729476D01*
X145782695Y-145806885D01*
X145782695Y-146116523D01*
X144969895Y-146116523D01*
X144969895Y-145845590D01*
X145008600Y-145768180D01*
X145047304Y-145729476D01*
X145124714Y-145690771D01*
X145202123Y-145690771D01*
X145279533Y-145729476D01*
X145318238Y-145768180D01*
X145356942Y-145845590D01*
X145356942Y-146116523D01*
X145782695Y-144877971D02*
X145782695Y-145342428D01*
X145782695Y-145110200D02*
X144969895Y-145110200D01*
X145086009Y-145187609D01*
X145163419Y-145265019D01*
X145202123Y-145342428D01*
X148703695Y-146929323D02*
X147890895Y-146929323D01*
X147890895Y-146619685D01*
X147929600Y-146542276D01*
X147968304Y-146503571D01*
X148045714Y-146464866D01*
X148161828Y-146464866D01*
X148239238Y-146503571D01*
X148277942Y-146542276D01*
X148316647Y-146619685D01*
X148316647Y-146929323D01*
X148277942Y-145845590D02*
X148316647Y-145729476D01*
X148355352Y-145690771D01*
X148432761Y-145652066D01*
X148548876Y-145652066D01*
X148626285Y-145690771D01*
X148664990Y-145729476D01*
X148703695Y-145806885D01*
X148703695Y-146116523D01*
X147890895Y-146116523D01*
X147890895Y-145845590D01*
X147929600Y-145768180D01*
X147968304Y-145729476D01*
X148045714Y-145690771D01*
X148123123Y-145690771D01*
X148200533Y-145729476D01*
X148239238Y-145768180D01*
X148277942Y-145845590D01*
X148277942Y-146116523D01*
X147890895Y-145148904D02*
X147890895Y-145071495D01*
X147929600Y-144994085D01*
X147968304Y-144955380D01*
X148045714Y-144916676D01*
X148200533Y-144877971D01*
X148394057Y-144877971D01*
X148548876Y-144916676D01*
X148626285Y-144955380D01*
X148664990Y-144994085D01*
X148703695Y-145071495D01*
X148703695Y-145148904D01*
X148664990Y-145226314D01*
X148626285Y-145265019D01*
X148548876Y-145303723D01*
X148394057Y-145342428D01*
X148200533Y-145342428D01*
X148045714Y-145303723D01*
X147968304Y-145265019D01*
X147929600Y-145226314D01*
X147890895Y-145148904D01*
X128643142Y-139454000D02*
X128547904Y-139406380D01*
X128405047Y-139406380D01*
X128262190Y-139454000D01*
X128166952Y-139549238D01*
X128119333Y-139644476D01*
X128071714Y-139834952D01*
X128071714Y-139977809D01*
X128119333Y-140168285D01*
X128166952Y-140263523D01*
X128262190Y-140358761D01*
X128405047Y-140406380D01*
X128500285Y-140406380D01*
X128643142Y-140358761D01*
X128690761Y-140311142D01*
X128690761Y-139977809D01*
X128500285Y-139977809D01*
X129119333Y-139739714D02*
X129119333Y-140406380D01*
X129119333Y-139834952D02*
X129166952Y-139787333D01*
X129262190Y-139739714D01*
X129405047Y-139739714D01*
X129500285Y-139787333D01*
X129547904Y-139882571D01*
X129547904Y-140406380D01*
X130452666Y-140406380D02*
X130452666Y-139406380D01*
X130452666Y-140358761D02*
X130357428Y-140406380D01*
X130166952Y-140406380D01*
X130071714Y-140358761D01*
X130024095Y-140311142D01*
X129976476Y-140215904D01*
X129976476Y-139930190D01*
X130024095Y-139834952D01*
X130071714Y-139787333D01*
X130166952Y-139739714D01*
X130357428Y-139739714D01*
X130452666Y-139787333D01*
X131310190Y-140406380D02*
X131310190Y-139406380D01*
X131548285Y-139406380D01*
X131691142Y-139454000D01*
X131786380Y-139549238D01*
X131834000Y-139644476D01*
X131881619Y-139834952D01*
X131881619Y-139977809D01*
X131834000Y-140168285D01*
X131786380Y-140263523D01*
X131691142Y-140358761D01*
X131548285Y-140406380D01*
X131310190Y-140406380D01*
X132310190Y-140406380D02*
X132310190Y-139406380D01*
X132976857Y-139406380D02*
X133167333Y-139406380D01*
X133262571Y-139454000D01*
X133357809Y-139549238D01*
X133405428Y-139739714D01*
X133405428Y-140073047D01*
X133357809Y-140263523D01*
X133262571Y-140358761D01*
X133167333Y-140406380D01*
X132976857Y-140406380D01*
X132881619Y-140358761D01*
X132786380Y-140263523D01*
X132738761Y-140073047D01*
X132738761Y-139739714D01*
X132786380Y-139549238D01*
X132881619Y-139454000D01*
X132976857Y-139406380D01*
X134659761Y-140311142D02*
X134612142Y-140358761D01*
X134469285Y-140406380D01*
X134374047Y-140406380D01*
X134231190Y-140358761D01*
X134135952Y-140263523D01*
X134088333Y-140168285D01*
X134040714Y-139977809D01*
X134040714Y-139834952D01*
X134088333Y-139644476D01*
X134135952Y-139549238D01*
X134231190Y-139454000D01*
X134374047Y-139406380D01*
X134469285Y-139406380D01*
X134612142Y-139454000D01*
X134659761Y-139501619D01*
X135564523Y-140406380D02*
X135088333Y-140406380D01*
X135088333Y-139406380D01*
X135897857Y-140406380D02*
X135897857Y-139406380D01*
X136469285Y-140406380D02*
X136040714Y-139834952D01*
X136469285Y-139406380D02*
X135897857Y-139977809D01*
X137318904Y-139406380D02*
X137937952Y-139406380D01*
X137604619Y-139787333D01*
X137747476Y-139787333D01*
X137842714Y-139834952D01*
X137890333Y-139882571D01*
X137937952Y-139977809D01*
X137937952Y-140215904D01*
X137890333Y-140311142D01*
X137842714Y-140358761D01*
X137747476Y-140406380D01*
X137461761Y-140406380D01*
X137366523Y-140358761D01*
X137318904Y-140311142D01*
X138223666Y-139406380D02*
X138557000Y-140406380D01*
X138890333Y-139406380D01*
X139128428Y-139406380D02*
X139747476Y-139406380D01*
X139414142Y-139787333D01*
X139557000Y-139787333D01*
X139652238Y-139834952D01*
X139699857Y-139882571D01*
X139747476Y-139977809D01*
X139747476Y-140215904D01*
X139699857Y-140311142D01*
X139652238Y-140358761D01*
X139557000Y-140406380D01*
X139271285Y-140406380D01*
X139176047Y-140358761D01*
X139128428Y-140311142D01*
X131000714Y-135961380D02*
X131000714Y-134961380D01*
X131381666Y-134961380D01*
X131476904Y-135009000D01*
X131524523Y-135056619D01*
X131572142Y-135151857D01*
X131572142Y-135294714D01*
X131524523Y-135389952D01*
X131476904Y-135437571D01*
X131381666Y-135485190D01*
X131000714Y-135485190D01*
X132000714Y-135961380D02*
X132000714Y-135294714D01*
X132000714Y-135485190D02*
X132048333Y-135389952D01*
X132095952Y-135342333D01*
X132191190Y-135294714D01*
X132286428Y-135294714D01*
X132762619Y-135961380D02*
X132667380Y-135913761D01*
X132619761Y-135866142D01*
X132572142Y-135770904D01*
X132572142Y-135485190D01*
X132619761Y-135389952D01*
X132667380Y-135342333D01*
X132762619Y-135294714D01*
X132905476Y-135294714D01*
X133000714Y-135342333D01*
X133048333Y-135389952D01*
X133095952Y-135485190D01*
X133095952Y-135770904D01*
X133048333Y-135866142D01*
X133000714Y-135913761D01*
X132905476Y-135961380D01*
X132762619Y-135961380D01*
X133953095Y-135294714D02*
X133953095Y-136104238D01*
X133905476Y-136199476D01*
X133857857Y-136247095D01*
X133762619Y-136294714D01*
X133619761Y-136294714D01*
X133524523Y-136247095D01*
X133953095Y-135913761D02*
X133857857Y-135961380D01*
X133667380Y-135961380D01*
X133572142Y-135913761D01*
X133524523Y-135866142D01*
X133476904Y-135770904D01*
X133476904Y-135485190D01*
X133524523Y-135389952D01*
X133572142Y-135342333D01*
X133667380Y-135294714D01*
X133857857Y-135294714D01*
X133953095Y-135342333D01*
X134429285Y-135866142D02*
X134476904Y-135913761D01*
X134429285Y-135961380D01*
X134381666Y-135913761D01*
X134429285Y-135866142D01*
X134429285Y-135961380D01*
X132334047Y-109672428D02*
X133095952Y-109672428D01*
X129294047Y-110053380D02*
X129294047Y-109053380D01*
X129532142Y-109053380D01*
X129675000Y-109101000D01*
X129770238Y-109196238D01*
X129817857Y-109291476D01*
X129865476Y-109481952D01*
X129865476Y-109624809D01*
X129817857Y-109815285D01*
X129770238Y-109910523D01*
X129675000Y-110005761D01*
X129532142Y-110053380D01*
X129294047Y-110053380D01*
X130294047Y-109672428D02*
X131055952Y-109672428D01*
X130675000Y-110053380D02*
X130675000Y-109291476D01*
X126754047Y-110053380D02*
X126754047Y-109053380D01*
X126992142Y-109053380D01*
X127135000Y-109101000D01*
X127230238Y-109196238D01*
X127277857Y-109291476D01*
X127325476Y-109481952D01*
X127325476Y-109624809D01*
X127277857Y-109815285D01*
X127230238Y-109910523D01*
X127135000Y-110005761D01*
X126992142Y-110053380D01*
X126754047Y-110053380D01*
X127754047Y-109672428D02*
X128515952Y-109672428D01*
X124587047Y-109545428D02*
X125348952Y-109545428D01*
X124968000Y-109926380D02*
X124968000Y-109164476D01*
X128659095Y-113625380D02*
X128659095Y-114434904D01*
X128706714Y-114530142D01*
X128754333Y-114577761D01*
X128849571Y-114625380D01*
X129040047Y-114625380D01*
X129135285Y-114577761D01*
X129182904Y-114530142D01*
X129230523Y-114434904D01*
X129230523Y-113625380D01*
X129659095Y-114577761D02*
X129801952Y-114625380D01*
X130040047Y-114625380D01*
X130135285Y-114577761D01*
X130182904Y-114530142D01*
X130230523Y-114434904D01*
X130230523Y-114339666D01*
X130182904Y-114244428D01*
X130135285Y-114196809D01*
X130040047Y-114149190D01*
X129849571Y-114101571D01*
X129754333Y-114053952D01*
X129706714Y-114006333D01*
X129659095Y-113911095D01*
X129659095Y-113815857D01*
X129706714Y-113720619D01*
X129754333Y-113673000D01*
X129849571Y-113625380D01*
X130087666Y-113625380D01*
X130230523Y-113673000D01*
X130992428Y-114101571D02*
X131135285Y-114149190D01*
X131182904Y-114196809D01*
X131230523Y-114292047D01*
X131230523Y-114434904D01*
X131182904Y-114530142D01*
X131135285Y-114577761D01*
X131040047Y-114625380D01*
X130659095Y-114625380D01*
X130659095Y-113625380D01*
X130992428Y-113625380D01*
X131087666Y-113673000D01*
X131135285Y-113720619D01*
X131182904Y-113815857D01*
X131182904Y-113911095D01*
X131135285Y-114006333D01*
X131087666Y-114053952D01*
X130992428Y-114101571D01*
X130659095Y-114101571D01*
D12*
X143652634Y-126111000D02*
G75*
G03X143652634Y-126111000I-523634J0D01*
G01*
D10*
X146126200Y-126686733D02*
X145719800Y-126686733D01*
X145923000Y-126686733D02*
X145923000Y-125975533D01*
X145855266Y-126077133D01*
X145787533Y-126144866D01*
X145719800Y-126178733D01*
D13*
X131088190Y-76484238D02*
X131088190Y-74452238D01*
X131862285Y-74452238D01*
X132055809Y-74549000D01*
X132152571Y-74645761D01*
X132249333Y-74839285D01*
X132249333Y-75129571D01*
X132152571Y-75323095D01*
X132055809Y-75419857D01*
X131862285Y-75516619D01*
X131088190Y-75516619D01*
X134281333Y-76484238D02*
X133604000Y-75516619D01*
X133120190Y-76484238D02*
X133120190Y-74452238D01*
X133894285Y-74452238D01*
X134087809Y-74549000D01*
X134184571Y-74645761D01*
X134281333Y-74839285D01*
X134281333Y-75129571D01*
X134184571Y-75323095D01*
X134087809Y-75419857D01*
X133894285Y-75516619D01*
X133120190Y-75516619D01*
X135539238Y-74452238D02*
X135926285Y-74452238D01*
X136119809Y-74549000D01*
X136313333Y-74742523D01*
X136410095Y-75129571D01*
X136410095Y-75806904D01*
X136313333Y-76193952D01*
X136119809Y-76387476D01*
X135926285Y-76484238D01*
X135539238Y-76484238D01*
X135345714Y-76387476D01*
X135152190Y-76193952D01*
X135055428Y-75806904D01*
X135055428Y-75129571D01*
X135152190Y-74742523D01*
X135345714Y-74549000D01*
X135539238Y-74452238D01*
X136990666Y-74452238D02*
X138151809Y-74452238D01*
X137571238Y-76484238D02*
X137571238Y-74452238D01*
X139216190Y-74452238D02*
X139603238Y-74452238D01*
X139796761Y-74549000D01*
X139990285Y-74742523D01*
X140087047Y-75129571D01*
X140087047Y-75806904D01*
X139990285Y-76193952D01*
X139796761Y-76387476D01*
X139603238Y-76484238D01*
X139216190Y-76484238D01*
X139022666Y-76387476D01*
X138829142Y-76193952D01*
X138732380Y-75806904D01*
X138732380Y-75129571D01*
X138829142Y-74742523D01*
X139022666Y-74549000D01*
X139216190Y-74452238D01*
X141054666Y-74452238D02*
X140861142Y-74839285D01*
X141925523Y-75129571D02*
X141925523Y-76484238D01*
X141925523Y-75323095D02*
X142022285Y-75226333D01*
X142215809Y-75129571D01*
X142506095Y-75129571D01*
X142699619Y-75226333D01*
X142796380Y-75419857D01*
X142796380Y-76484238D01*
X145312190Y-76484238D02*
X145312190Y-74452238D01*
X146279809Y-76484238D02*
X146279809Y-74452238D01*
D14*
X128016047Y-76271428D02*
X128777952Y-76271428D01*
X121285047Y-76271428D02*
X122046952Y-76271428D01*
X121666000Y-76652380D02*
X121666000Y-75890476D01*
D12*
X145669000Y-89281000D02*
X145288000Y-89662000D01*
D15*
X144454361Y-90006042D02*
X144626828Y-90006042D01*
X144700742Y-90277061D02*
X144454361Y-90277061D01*
X144454361Y-89759661D01*
X144700742Y-89759661D01*
X144897847Y-90252423D02*
X144971761Y-90277061D01*
X145094952Y-90277061D01*
X145144228Y-90252423D01*
X145168866Y-90227785D01*
X145193504Y-90178509D01*
X145193504Y-90129233D01*
X145168866Y-90079957D01*
X145144228Y-90055319D01*
X145094952Y-90030680D01*
X144996400Y-90006042D01*
X144947123Y-89981404D01*
X144922485Y-89956766D01*
X144897847Y-89907490D01*
X144897847Y-89858214D01*
X144922485Y-89808938D01*
X144947123Y-89784300D01*
X144996400Y-89759661D01*
X145119590Y-89759661D01*
X145193504Y-89784300D01*
X145415247Y-90277061D02*
X145415247Y-89759661D01*
X145612352Y-89759661D01*
X145661628Y-89784300D01*
X145686266Y-89808938D01*
X145710904Y-89858214D01*
X145710904Y-89932128D01*
X145686266Y-89981404D01*
X145661628Y-90006042D01*
X145612352Y-90030680D01*
X145415247Y-90030680D01*
X146006561Y-89981404D02*
X145957285Y-89956766D01*
X145932647Y-89932128D01*
X145908009Y-89882852D01*
X145908009Y-89858214D01*
X145932647Y-89808938D01*
X145957285Y-89784300D01*
X146006561Y-89759661D01*
X146105114Y-89759661D01*
X146154390Y-89784300D01*
X146179028Y-89808938D01*
X146203666Y-89858214D01*
X146203666Y-89882852D01*
X146179028Y-89932128D01*
X146154390Y-89956766D01*
X146105114Y-89981404D01*
X146006561Y-89981404D01*
X145957285Y-90006042D01*
X145932647Y-90030680D01*
X145908009Y-90079957D01*
X145908009Y-90178509D01*
X145932647Y-90227785D01*
X145957285Y-90252423D01*
X146006561Y-90277061D01*
X146105114Y-90277061D01*
X146154390Y-90252423D01*
X146179028Y-90227785D01*
X146203666Y-90178509D01*
X146203666Y-90079957D01*
X146179028Y-90030680D01*
X146154390Y-90006042D01*
X146105114Y-89981404D01*
X146400771Y-89808938D02*
X146425409Y-89784300D01*
X146474685Y-89759661D01*
X146597876Y-89759661D01*
X146647152Y-89784300D01*
X146671790Y-89808938D01*
X146696428Y-89858214D01*
X146696428Y-89907490D01*
X146671790Y-89981404D01*
X146376133Y-90277061D01*
X146696428Y-90277061D01*
X147139914Y-89759661D02*
X147041361Y-89759661D01*
X146992085Y-89784300D01*
X146967447Y-89808938D01*
X146918171Y-89882852D01*
X146893533Y-89981404D01*
X146893533Y-90178509D01*
X146918171Y-90227785D01*
X146942809Y-90252423D01*
X146992085Y-90277061D01*
X147090638Y-90277061D01*
X147139914Y-90252423D01*
X147164552Y-90227785D01*
X147189190Y-90178509D01*
X147189190Y-90055319D01*
X147164552Y-90006042D01*
X147139914Y-89981404D01*
X147090638Y-89956766D01*
X146992085Y-89956766D01*
X146942809Y-89981404D01*
X146918171Y-90006042D01*
X146893533Y-90055319D01*
X147632676Y-89759661D02*
X147534123Y-89759661D01*
X147484847Y-89784300D01*
X147460209Y-89808938D01*
X147410933Y-89882852D01*
X147386295Y-89981404D01*
X147386295Y-90178509D01*
X147410933Y-90227785D01*
X147435571Y-90252423D01*
X147484847Y-90277061D01*
X147583400Y-90277061D01*
X147632676Y-90252423D01*
X147657314Y-90227785D01*
X147681952Y-90178509D01*
X147681952Y-90055319D01*
X147657314Y-90006042D01*
X147632676Y-89981404D01*
X147583400Y-89956766D01*
X147484847Y-89956766D01*
X147435571Y-89981404D01*
X147410933Y-90006042D01*
X147386295Y-90055319D01*
X148297904Y-90277061D02*
X148297904Y-89759661D01*
X148495009Y-89759661D01*
X148544285Y-89784300D01*
X148568923Y-89808938D01*
X148593561Y-89858214D01*
X148593561Y-89932128D01*
X148568923Y-89981404D01*
X148544285Y-90006042D01*
X148495009Y-90030680D01*
X148297904Y-90030680D01*
X148766028Y-89759661D02*
X148889219Y-90277061D01*
X148987771Y-89907490D01*
X149086323Y-90277061D01*
X149209514Y-89759661D01*
X149702276Y-90277061D02*
X149529809Y-90030680D01*
X149406619Y-90277061D02*
X149406619Y-89759661D01*
X149603723Y-89759661D01*
X149653000Y-89784300D01*
X149677638Y-89808938D01*
X149702276Y-89858214D01*
X149702276Y-89932128D01*
X149677638Y-89981404D01*
X149653000Y-90006042D01*
X149603723Y-90030680D01*
X149406619Y-90030680D01*
D10*
X151868333Y-89987380D02*
X151868333Y-88987380D01*
X152249285Y-88987380D01*
X152344523Y-89035000D01*
X152392142Y-89082619D01*
X152439761Y-89177857D01*
X152439761Y-89320714D01*
X152392142Y-89415952D01*
X152344523Y-89463571D01*
X152249285Y-89511190D01*
X151868333Y-89511190D01*
X152820714Y-89701666D02*
X153296904Y-89701666D01*
X152725476Y-89987380D02*
X153058809Y-88987380D01*
X153392142Y-89987380D01*
X153915952Y-88987380D02*
X154011190Y-88987380D01*
X154106428Y-89035000D01*
X154154047Y-89082619D01*
X154201666Y-89177857D01*
X154249285Y-89368333D01*
X154249285Y-89606428D01*
X154201666Y-89796904D01*
X154154047Y-89892142D01*
X154106428Y-89939761D01*
X154011190Y-89987380D01*
X153915952Y-89987380D01*
X153820714Y-89939761D01*
X153773095Y-89892142D01*
X153725476Y-89796904D01*
X153677857Y-89606428D01*
X153677857Y-89368333D01*
X153725476Y-89177857D01*
X153773095Y-89082619D01*
X153820714Y-89035000D01*
X153915952Y-88987380D01*
X151868333Y-96972380D02*
X151868333Y-95972380D01*
X152249285Y-95972380D01*
X152344523Y-96020000D01*
X152392142Y-96067619D01*
X152439761Y-96162857D01*
X152439761Y-96305714D01*
X152392142Y-96400952D01*
X152344523Y-96448571D01*
X152249285Y-96496190D01*
X151868333Y-96496190D01*
X152820714Y-96686666D02*
X153296904Y-96686666D01*
X152725476Y-96972380D02*
X153058809Y-95972380D01*
X153392142Y-96972380D01*
X153630238Y-95972380D02*
X154249285Y-95972380D01*
X153915952Y-96353333D01*
X154058809Y-96353333D01*
X154154047Y-96400952D01*
X154201666Y-96448571D01*
X154249285Y-96543809D01*
X154249285Y-96781904D01*
X154201666Y-96877142D01*
X154154047Y-96924761D01*
X154058809Y-96972380D01*
X153773095Y-96972380D01*
X153677857Y-96924761D01*
X153630238Y-96877142D01*
X151868333Y-91892380D02*
X151868333Y-90892380D01*
X152249285Y-90892380D01*
X152344523Y-90940000D01*
X152392142Y-90987619D01*
X152439761Y-91082857D01*
X152439761Y-91225714D01*
X152392142Y-91320952D01*
X152344523Y-91368571D01*
X152249285Y-91416190D01*
X151868333Y-91416190D01*
X152820714Y-91606666D02*
X153296904Y-91606666D01*
X152725476Y-91892380D02*
X153058809Y-90892380D01*
X153392142Y-91892380D01*
X154249285Y-91892380D02*
X153677857Y-91892380D01*
X153963571Y-91892380D02*
X153963571Y-90892380D01*
X153868333Y-91035238D01*
X153773095Y-91130476D01*
X153677857Y-91178095D01*
X151868333Y-94432380D02*
X151868333Y-93432380D01*
X152249285Y-93432380D01*
X152344523Y-93480000D01*
X152392142Y-93527619D01*
X152439761Y-93622857D01*
X152439761Y-93765714D01*
X152392142Y-93860952D01*
X152344523Y-93908571D01*
X152249285Y-93956190D01*
X151868333Y-93956190D01*
X152820714Y-94146666D02*
X153296904Y-94146666D01*
X152725476Y-94432380D02*
X153058809Y-93432380D01*
X153392142Y-94432380D01*
X153677857Y-93527619D02*
X153725476Y-93480000D01*
X153820714Y-93432380D01*
X154058809Y-93432380D01*
X154154047Y-93480000D01*
X154201666Y-93527619D01*
X154249285Y-93622857D01*
X154249285Y-93718095D01*
X154201666Y-93860952D01*
X153630238Y-94432380D01*
X154249285Y-94432380D01*
X151868333Y-99512380D02*
X151868333Y-98512380D01*
X152249285Y-98512380D01*
X152344523Y-98560000D01*
X152392142Y-98607619D01*
X152439761Y-98702857D01*
X152439761Y-98845714D01*
X152392142Y-98940952D01*
X152344523Y-98988571D01*
X152249285Y-99036190D01*
X151868333Y-99036190D01*
X152820714Y-99226666D02*
X153296904Y-99226666D01*
X152725476Y-99512380D02*
X153058809Y-98512380D01*
X153392142Y-99512380D01*
X154154047Y-98845714D02*
X154154047Y-99512380D01*
X153915952Y-98464761D02*
X153677857Y-99179047D01*
X154296904Y-99179047D01*
X151868333Y-102052380D02*
X151868333Y-101052380D01*
X152249285Y-101052380D01*
X152344523Y-101100000D01*
X152392142Y-101147619D01*
X152439761Y-101242857D01*
X152439761Y-101385714D01*
X152392142Y-101480952D01*
X152344523Y-101528571D01*
X152249285Y-101576190D01*
X151868333Y-101576190D01*
X152820714Y-101766666D02*
X153296904Y-101766666D01*
X152725476Y-102052380D02*
X153058809Y-101052380D01*
X153392142Y-102052380D01*
X154201666Y-101052380D02*
X153725476Y-101052380D01*
X153677857Y-101528571D01*
X153725476Y-101480952D01*
X153820714Y-101433333D01*
X154058809Y-101433333D01*
X154154047Y-101480952D01*
X154201666Y-101528571D01*
X154249285Y-101623809D01*
X154249285Y-101861904D01*
X154201666Y-101957142D01*
X154154047Y-102004761D01*
X154058809Y-102052380D01*
X153820714Y-102052380D01*
X153725476Y-102004761D01*
X153677857Y-101957142D01*
X151868333Y-104592380D02*
X151868333Y-103592380D01*
X152249285Y-103592380D01*
X152344523Y-103640000D01*
X152392142Y-103687619D01*
X152439761Y-103782857D01*
X152439761Y-103925714D01*
X152392142Y-104020952D01*
X152344523Y-104068571D01*
X152249285Y-104116190D01*
X151868333Y-104116190D01*
X152820714Y-104306666D02*
X153296904Y-104306666D01*
X152725476Y-104592380D02*
X153058809Y-103592380D01*
X153392142Y-104592380D01*
X154154047Y-103592380D02*
X153963571Y-103592380D01*
X153868333Y-103640000D01*
X153820714Y-103687619D01*
X153725476Y-103830476D01*
X153677857Y-104020952D01*
X153677857Y-104401904D01*
X153725476Y-104497142D01*
X153773095Y-104544761D01*
X153868333Y-104592380D01*
X154058809Y-104592380D01*
X154154047Y-104544761D01*
X154201666Y-104497142D01*
X154249285Y-104401904D01*
X154249285Y-104163809D01*
X154201666Y-104068571D01*
X154154047Y-104020952D01*
X154058809Y-103973333D01*
X153868333Y-103973333D01*
X153773095Y-104020952D01*
X153725476Y-104068571D01*
X153677857Y-104163809D01*
X151868333Y-107132380D02*
X151868333Y-106132380D01*
X152249285Y-106132380D01*
X152344523Y-106180000D01*
X152392142Y-106227619D01*
X152439761Y-106322857D01*
X152439761Y-106465714D01*
X152392142Y-106560952D01*
X152344523Y-106608571D01*
X152249285Y-106656190D01*
X151868333Y-106656190D01*
X152820714Y-106846666D02*
X153296904Y-106846666D01*
X152725476Y-107132380D02*
X153058809Y-106132380D01*
X153392142Y-107132380D01*
X153630238Y-106132380D02*
X154296904Y-106132380D01*
X153868333Y-107132380D01*
X151011142Y-109672380D02*
X151011142Y-108672380D01*
X151392095Y-108672380D01*
X151487333Y-108720000D01*
X151534952Y-108767619D01*
X151582571Y-108862857D01*
X151582571Y-109005714D01*
X151534952Y-109100952D01*
X151487333Y-109148571D01*
X151392095Y-109196190D01*
X151011142Y-109196190D01*
X151963523Y-109386666D02*
X152439714Y-109386666D01*
X151868285Y-109672380D02*
X152201619Y-108672380D01*
X152534952Y-109672380D01*
X153392095Y-109672380D02*
X152820666Y-109672380D01*
X153106380Y-109672380D02*
X153106380Y-108672380D01*
X153011142Y-108815238D01*
X152915904Y-108910476D01*
X152820666Y-108958095D01*
X153725428Y-108672380D02*
X154344476Y-108672380D01*
X154011142Y-109053333D01*
X154154000Y-109053333D01*
X154249238Y-109100952D01*
X154296857Y-109148571D01*
X154344476Y-109243809D01*
X154344476Y-109481904D01*
X154296857Y-109577142D01*
X154249238Y-109624761D01*
X154154000Y-109672380D01*
X153868285Y-109672380D01*
X153773047Y-109624761D01*
X153725428Y-109577142D01*
X151011142Y-112212380D02*
X151011142Y-111212380D01*
X151392095Y-111212380D01*
X151487333Y-111260000D01*
X151534952Y-111307619D01*
X151582571Y-111402857D01*
X151582571Y-111545714D01*
X151534952Y-111640952D01*
X151487333Y-111688571D01*
X151392095Y-111736190D01*
X151011142Y-111736190D01*
X151963523Y-111926666D02*
X152439714Y-111926666D01*
X151868285Y-112212380D02*
X152201619Y-111212380D01*
X152534952Y-112212380D01*
X153392095Y-112212380D02*
X152820666Y-112212380D01*
X153106380Y-112212380D02*
X153106380Y-111212380D01*
X153011142Y-111355238D01*
X152915904Y-111450476D01*
X152820666Y-111498095D01*
X154249238Y-111545714D02*
X154249238Y-112212380D01*
X154011142Y-111164761D02*
X153773047Y-111879047D01*
X154392095Y-111879047D01*
X151064690Y-114752380D02*
X151064690Y-113752380D01*
X151445642Y-113752380D01*
X151540880Y-113800000D01*
X151588500Y-113847619D01*
X151636119Y-113942857D01*
X151636119Y-114085714D01*
X151588500Y-114180952D01*
X151540880Y-114228571D01*
X151445642Y-114276190D01*
X151064690Y-114276190D01*
X152017071Y-114466666D02*
X152493261Y-114466666D01*
X151921833Y-114752380D02*
X152255166Y-113752380D01*
X152588500Y-114752380D01*
X153445642Y-114752380D02*
X152874214Y-114752380D01*
X153159928Y-114752380D02*
X153159928Y-113752380D01*
X153064690Y-113895238D01*
X152969452Y-113990476D01*
X152874214Y-114038095D01*
X154350404Y-113752380D02*
X153874214Y-113752380D01*
X153826595Y-114228571D01*
X153874214Y-114180952D01*
X153969452Y-114133333D01*
X154207547Y-114133333D01*
X154302785Y-114180952D01*
X154350404Y-114228571D01*
X154398023Y-114323809D01*
X154398023Y-114561904D01*
X154350404Y-114657142D01*
X154302785Y-114704761D01*
X154207547Y-114752380D01*
X153969452Y-114752380D01*
X153874214Y-114704761D01*
X153826595Y-114657142D01*
X151796904Y-117292380D02*
X151796904Y-116292380D01*
X152177857Y-116292380D01*
X152273095Y-116340000D01*
X152320714Y-116387619D01*
X152368333Y-116482857D01*
X152368333Y-116625714D01*
X152320714Y-116720952D01*
X152273095Y-116768571D01*
X152177857Y-116816190D01*
X151796904Y-116816190D01*
X153368333Y-117197142D02*
X153320714Y-117244761D01*
X153177857Y-117292380D01*
X153082619Y-117292380D01*
X152939761Y-117244761D01*
X152844523Y-117149523D01*
X152796904Y-117054285D01*
X152749285Y-116863809D01*
X152749285Y-116720952D01*
X152796904Y-116530476D01*
X152844523Y-116435238D01*
X152939761Y-116340000D01*
X153082619Y-116292380D01*
X153177857Y-116292380D01*
X153320714Y-116340000D01*
X153368333Y-116387619D01*
X153749285Y-116387619D02*
X153796904Y-116340000D01*
X153892142Y-116292380D01*
X154130238Y-116292380D01*
X154225476Y-116340000D01*
X154273095Y-116387619D01*
X154320714Y-116482857D01*
X154320714Y-116578095D01*
X154273095Y-116720952D01*
X153701666Y-117292380D01*
X154320714Y-117292380D01*
X151796904Y-119832380D02*
X151796904Y-118832380D01*
X152177857Y-118832380D01*
X152273095Y-118880000D01*
X152320714Y-118927619D01*
X152368333Y-119022857D01*
X152368333Y-119165714D01*
X152320714Y-119260952D01*
X152273095Y-119308571D01*
X152177857Y-119356190D01*
X151796904Y-119356190D01*
X153368333Y-119737142D02*
X153320714Y-119784761D01*
X153177857Y-119832380D01*
X153082619Y-119832380D01*
X152939761Y-119784761D01*
X152844523Y-119689523D01*
X152796904Y-119594285D01*
X152749285Y-119403809D01*
X152749285Y-119260952D01*
X152796904Y-119070476D01*
X152844523Y-118975238D01*
X152939761Y-118880000D01*
X153082619Y-118832380D01*
X153177857Y-118832380D01*
X153320714Y-118880000D01*
X153368333Y-118927619D01*
X153701666Y-118832380D02*
X154320714Y-118832380D01*
X153987380Y-119213333D01*
X154130238Y-119213333D01*
X154225476Y-119260952D01*
X154273095Y-119308571D01*
X154320714Y-119403809D01*
X154320714Y-119641904D01*
X154273095Y-119737142D01*
X154225476Y-119784761D01*
X154130238Y-119832380D01*
X153844523Y-119832380D01*
X153749285Y-119784761D01*
X153701666Y-119737142D01*
X154261476Y-122843619D02*
X153515476Y-122843619D01*
X153515476Y-122559428D01*
X153551000Y-122488380D01*
X153586523Y-122452857D01*
X153657571Y-122417333D01*
X153764142Y-122417333D01*
X153835190Y-122452857D01*
X153870714Y-122488380D01*
X153906238Y-122559428D01*
X153906238Y-122843619D01*
X154190428Y-121671333D02*
X154225952Y-121706857D01*
X154261476Y-121813428D01*
X154261476Y-121884476D01*
X154225952Y-121991047D01*
X154154904Y-122062095D01*
X154083857Y-122097619D01*
X153941761Y-122133142D01*
X153835190Y-122133142D01*
X153693095Y-122097619D01*
X153622047Y-122062095D01*
X153551000Y-121991047D01*
X153515476Y-121884476D01*
X153515476Y-121813428D01*
X153551000Y-121706857D01*
X153586523Y-121671333D01*
X153764142Y-121031904D02*
X154261476Y-121031904D01*
X153479952Y-121209523D02*
X154012809Y-121387142D01*
X154012809Y-120925333D01*
X154261476Y-125383619D02*
X153515476Y-125383619D01*
X153515476Y-125099428D01*
X153551000Y-125028380D01*
X153586523Y-124992857D01*
X153657571Y-124957333D01*
X153764142Y-124957333D01*
X153835190Y-124992857D01*
X153870714Y-125028380D01*
X153906238Y-125099428D01*
X153906238Y-125383619D01*
X154190428Y-124211333D02*
X154225952Y-124246857D01*
X154261476Y-124353428D01*
X154261476Y-124424476D01*
X154225952Y-124531047D01*
X154154904Y-124602095D01*
X154083857Y-124637619D01*
X153941761Y-124673142D01*
X153835190Y-124673142D01*
X153693095Y-124637619D01*
X153622047Y-124602095D01*
X153551000Y-124531047D01*
X153515476Y-124424476D01*
X153515476Y-124353428D01*
X153551000Y-124246857D01*
X153586523Y-124211333D01*
X153515476Y-123536380D02*
X153515476Y-123891619D01*
X153870714Y-123927142D01*
X153835190Y-123891619D01*
X153799666Y-123820571D01*
X153799666Y-123642952D01*
X153835190Y-123571904D01*
X153870714Y-123536380D01*
X153941761Y-123500857D01*
X154119380Y-123500857D01*
X154190428Y-123536380D01*
X154225952Y-123571904D01*
X154261476Y-123642952D01*
X154261476Y-123820571D01*
X154225952Y-123891619D01*
X154190428Y-123927142D01*
X154261476Y-127923619D02*
X153515476Y-127923619D01*
X153515476Y-127639428D01*
X153551000Y-127568380D01*
X153586523Y-127532857D01*
X153657571Y-127497333D01*
X153764142Y-127497333D01*
X153835190Y-127532857D01*
X153870714Y-127568380D01*
X153906238Y-127639428D01*
X153906238Y-127923619D01*
X154190428Y-126751333D02*
X154225952Y-126786857D01*
X154261476Y-126893428D01*
X154261476Y-126964476D01*
X154225952Y-127071047D01*
X154154904Y-127142095D01*
X154083857Y-127177619D01*
X153941761Y-127213142D01*
X153835190Y-127213142D01*
X153693095Y-127177619D01*
X153622047Y-127142095D01*
X153551000Y-127071047D01*
X153515476Y-126964476D01*
X153515476Y-126893428D01*
X153551000Y-126786857D01*
X153586523Y-126751333D01*
X153515476Y-126502666D02*
X153515476Y-126005333D01*
X154261476Y-126325047D01*
X154261476Y-131072857D02*
X153515476Y-131072857D01*
X153515476Y-130788666D01*
X153551000Y-130717619D01*
X153586523Y-130682095D01*
X153657571Y-130646571D01*
X153764142Y-130646571D01*
X153835190Y-130682095D01*
X153870714Y-130717619D01*
X153906238Y-130788666D01*
X153906238Y-131072857D01*
X154190428Y-129900571D02*
X154225952Y-129936095D01*
X154261476Y-130042666D01*
X154261476Y-130113714D01*
X154225952Y-130220285D01*
X154154904Y-130291333D01*
X154083857Y-130326857D01*
X153941761Y-130362380D01*
X153835190Y-130362380D01*
X153693095Y-130326857D01*
X153622047Y-130291333D01*
X153551000Y-130220285D01*
X153515476Y-130113714D01*
X153515476Y-130042666D01*
X153551000Y-129936095D01*
X153586523Y-129900571D01*
X154261476Y-129190095D02*
X154261476Y-129616380D01*
X154261476Y-129403238D02*
X153515476Y-129403238D01*
X153622047Y-129474285D01*
X153693095Y-129545333D01*
X153728619Y-129616380D01*
X153515476Y-128728285D02*
X153515476Y-128657238D01*
X153551000Y-128586190D01*
X153586523Y-128550666D01*
X153657571Y-128515142D01*
X153799666Y-128479619D01*
X153977285Y-128479619D01*
X154119380Y-128515142D01*
X154190428Y-128550666D01*
X154225952Y-128586190D01*
X154261476Y-128657238D01*
X154261476Y-128728285D01*
X154225952Y-128799333D01*
X154190428Y-128834857D01*
X154119380Y-128870380D01*
X153977285Y-128905904D01*
X153799666Y-128905904D01*
X153657571Y-128870380D01*
X153586523Y-128834857D01*
X153551000Y-128799333D01*
X153515476Y-128728285D01*
X151193714Y-133040380D02*
X151193714Y-132040380D01*
X151574666Y-132040380D01*
X151669904Y-132088000D01*
X151717523Y-132135619D01*
X151765142Y-132230857D01*
X151765142Y-132373714D01*
X151717523Y-132468952D01*
X151669904Y-132516571D01*
X151574666Y-132564190D01*
X151193714Y-132564190D01*
X152765142Y-132945142D02*
X152717523Y-132992761D01*
X152574666Y-133040380D01*
X152479428Y-133040380D01*
X152336571Y-132992761D01*
X152241333Y-132897523D01*
X152193714Y-132802285D01*
X152146095Y-132611809D01*
X152146095Y-132468952D01*
X152193714Y-132278476D01*
X152241333Y-132183238D01*
X152336571Y-132088000D01*
X152479428Y-132040380D01*
X152574666Y-132040380D01*
X152717523Y-132088000D01*
X152765142Y-132135619D01*
X153717523Y-133040380D02*
X153146095Y-133040380D01*
X153431809Y-133040380D02*
X153431809Y-132040380D01*
X153336571Y-132183238D01*
X153241333Y-132278476D01*
X153146095Y-132326095D01*
X154669904Y-133040380D02*
X154098476Y-133040380D01*
X154384190Y-133040380D02*
X154384190Y-132040380D01*
X154288952Y-132183238D01*
X154193714Y-132278476D01*
X154098476Y-132326095D01*
X151193714Y-135326380D02*
X151193714Y-134326380D01*
X151574666Y-134326380D01*
X151669904Y-134374000D01*
X151717523Y-134421619D01*
X151765142Y-134516857D01*
X151765142Y-134659714D01*
X151717523Y-134754952D01*
X151669904Y-134802571D01*
X151574666Y-134850190D01*
X151193714Y-134850190D01*
X152765142Y-135231142D02*
X152717523Y-135278761D01*
X152574666Y-135326380D01*
X152479428Y-135326380D01*
X152336571Y-135278761D01*
X152241333Y-135183523D01*
X152193714Y-135088285D01*
X152146095Y-134897809D01*
X152146095Y-134754952D01*
X152193714Y-134564476D01*
X152241333Y-134469238D01*
X152336571Y-134374000D01*
X152479428Y-134326380D01*
X152574666Y-134326380D01*
X152717523Y-134374000D01*
X152765142Y-134421619D01*
X153717523Y-135326380D02*
X153146095Y-135326380D01*
X153431809Y-135326380D02*
X153431809Y-134326380D01*
X153336571Y-134469238D01*
X153241333Y-134564476D01*
X153146095Y-134612095D01*
X154098476Y-134421619D02*
X154146095Y-134374000D01*
X154241333Y-134326380D01*
X154479428Y-134326380D01*
X154574666Y-134374000D01*
X154622285Y-134421619D01*
X154669904Y-134516857D01*
X154669904Y-134612095D01*
X154622285Y-134754952D01*
X154050857Y-135326380D01*
X154669904Y-135326380D01*
X151193714Y-137358380D02*
X151193714Y-136358380D01*
X151574666Y-136358380D01*
X151669904Y-136406000D01*
X151717523Y-136453619D01*
X151765142Y-136548857D01*
X151765142Y-136691714D01*
X151717523Y-136786952D01*
X151669904Y-136834571D01*
X151574666Y-136882190D01*
X151193714Y-136882190D01*
X152765142Y-137263142D02*
X152717523Y-137310761D01*
X152574666Y-137358380D01*
X152479428Y-137358380D01*
X152336571Y-137310761D01*
X152241333Y-137215523D01*
X152193714Y-137120285D01*
X152146095Y-136929809D01*
X152146095Y-136786952D01*
X152193714Y-136596476D01*
X152241333Y-136501238D01*
X152336571Y-136406000D01*
X152479428Y-136358380D01*
X152574666Y-136358380D01*
X152717523Y-136406000D01*
X152765142Y-136453619D01*
X153717523Y-137358380D02*
X153146095Y-137358380D01*
X153431809Y-137358380D02*
X153431809Y-136358380D01*
X153336571Y-136501238D01*
X153241333Y-136596476D01*
X153146095Y-136644095D01*
X154050857Y-136358380D02*
X154669904Y-136358380D01*
X154336571Y-136739333D01*
X154479428Y-136739333D01*
X154574666Y-136786952D01*
X154622285Y-136834571D01*
X154669904Y-136929809D01*
X154669904Y-137167904D01*
X154622285Y-137263142D01*
X154574666Y-137310761D01*
X154479428Y-137358380D01*
X154193714Y-137358380D01*
X154098476Y-137310761D01*
X154050857Y-137263142D01*
X150114047Y-140152380D02*
X149780714Y-139676190D01*
X149542619Y-140152380D02*
X149542619Y-139152380D01*
X149923571Y-139152380D01*
X150018809Y-139200000D01*
X150066428Y-139247619D01*
X150114047Y-139342857D01*
X150114047Y-139485714D01*
X150066428Y-139580952D01*
X150018809Y-139628571D01*
X149923571Y-139676190D01*
X149542619Y-139676190D01*
X150495000Y-140104761D02*
X150590238Y-140152380D01*
X150780714Y-140152380D01*
X150875952Y-140104761D01*
X150923571Y-140009523D01*
X150923571Y-139961904D01*
X150875952Y-139866666D01*
X150780714Y-139819047D01*
X150637857Y-139819047D01*
X150542619Y-139771428D01*
X150495000Y-139676190D01*
X150495000Y-139628571D01*
X150542619Y-139533333D01*
X150637857Y-139485714D01*
X150780714Y-139485714D01*
X150875952Y-139533333D01*
X151209285Y-139485714D02*
X151590238Y-139485714D01*
X151352142Y-139152380D02*
X151352142Y-140009523D01*
X151399761Y-140104761D01*
X151495000Y-140152380D01*
X151590238Y-140152380D01*
X138930142Y-143327380D02*
X138453952Y-143327380D01*
X138453952Y-142327380D01*
X139263476Y-142803571D02*
X139596809Y-142803571D01*
X139739666Y-143327380D02*
X139263476Y-143327380D01*
X139263476Y-142327380D01*
X139739666Y-142327380D01*
X140168238Y-143327380D02*
X140168238Y-142327380D01*
X140406333Y-142327380D01*
X140549190Y-142375000D01*
X140644428Y-142470238D01*
X140692047Y-142565476D01*
X140739666Y-142755952D01*
X140739666Y-142898809D01*
X140692047Y-143089285D01*
X140644428Y-143184523D01*
X140549190Y-143279761D01*
X140406333Y-143327380D01*
X140168238Y-143327380D01*
X130238666Y-143200380D02*
X130238666Y-142200380D01*
X130619619Y-142200380D01*
X130714857Y-142248000D01*
X130762476Y-142295619D01*
X130810095Y-142390857D01*
X130810095Y-142533714D01*
X130762476Y-142628952D01*
X130714857Y-142676571D01*
X130619619Y-142724190D01*
X130238666Y-142724190D01*
X131143428Y-142200380D02*
X131381523Y-143200380D01*
X131572000Y-142486095D01*
X131762476Y-143200380D01*
X132000571Y-142200380D01*
X132952952Y-143200380D02*
X132619619Y-142724190D01*
X132381523Y-143200380D02*
X132381523Y-142200380D01*
X132762476Y-142200380D01*
X132857714Y-142248000D01*
X132905333Y-142295619D01*
X132952952Y-142390857D01*
X132952952Y-142533714D01*
X132905333Y-142628952D01*
X132857714Y-142676571D01*
X132762476Y-142724190D01*
X132381523Y-142724190D01*
X121467571Y-148407238D02*
X121515190Y-148264380D01*
X121562809Y-148216761D01*
X121658047Y-148169142D01*
X121800904Y-148169142D01*
X121896142Y-148216761D01*
X121943761Y-148264380D01*
X121991380Y-148359619D01*
X121991380Y-148740571D01*
X120991380Y-148740571D01*
X120991380Y-148407238D01*
X121039000Y-148312000D01*
X121086619Y-148264380D01*
X121181857Y-148216761D01*
X121277095Y-148216761D01*
X121372333Y-148264380D01*
X121419952Y-148312000D01*
X121467571Y-148407238D01*
X121467571Y-148740571D01*
X121991380Y-147597714D02*
X121943761Y-147692952D01*
X121896142Y-147740571D01*
X121800904Y-147788190D01*
X121515190Y-147788190D01*
X121419952Y-147740571D01*
X121372333Y-147692952D01*
X121324714Y-147597714D01*
X121324714Y-147454857D01*
X121372333Y-147359619D01*
X121419952Y-147312000D01*
X121515190Y-147264380D01*
X121800904Y-147264380D01*
X121896142Y-147312000D01*
X121943761Y-147359619D01*
X121991380Y-147454857D01*
X121991380Y-147597714D01*
X121991380Y-146692952D02*
X121943761Y-146788190D01*
X121896142Y-146835809D01*
X121800904Y-146883428D01*
X121515190Y-146883428D01*
X121419952Y-146835809D01*
X121372333Y-146788190D01*
X121324714Y-146692952D01*
X121324714Y-146550095D01*
X121372333Y-146454857D01*
X121419952Y-146407238D01*
X121515190Y-146359619D01*
X121800904Y-146359619D01*
X121896142Y-146407238D01*
X121943761Y-146454857D01*
X121991380Y-146550095D01*
X121991380Y-146692952D01*
X121324714Y-146073904D02*
X121324714Y-145692952D01*
X120991380Y-145931047D02*
X121848523Y-145931047D01*
X121943761Y-145883428D01*
X121991380Y-145788190D01*
X121991380Y-145692952D01*
X120991380Y-145169142D02*
X120991380Y-145073904D01*
X121039000Y-144978666D01*
X121086619Y-144931047D01*
X121181857Y-144883428D01*
X121372333Y-144835809D01*
X121610428Y-144835809D01*
X121800904Y-144883428D01*
X121896142Y-144931047D01*
X121943761Y-144978666D01*
X121991380Y-145073904D01*
X121991380Y-145169142D01*
X121943761Y-145264380D01*
X121896142Y-145312000D01*
X121800904Y-145359619D01*
X121610428Y-145407238D01*
X121372333Y-145407238D01*
X121181857Y-145359619D01*
X121086619Y-145312000D01*
X121039000Y-145264380D01*
X120991380Y-145169142D01*
X123511733Y-138040533D02*
X122800533Y-138040533D01*
X122800533Y-137769600D01*
X122834400Y-137701866D01*
X122868266Y-137668000D01*
X122936000Y-137634133D01*
X123037600Y-137634133D01*
X123105333Y-137668000D01*
X123139200Y-137701866D01*
X123173066Y-137769600D01*
X123173066Y-138040533D01*
X123511733Y-137329333D02*
X122800533Y-137329333D01*
X122800533Y-137160000D01*
X122834400Y-137058400D01*
X122902133Y-136990666D01*
X122969866Y-136956800D01*
X123105333Y-136922933D01*
X123206933Y-136922933D01*
X123342400Y-136956800D01*
X123410133Y-136990666D01*
X123477866Y-137058400D01*
X123511733Y-137160000D01*
X123511733Y-137329333D01*
X122868266Y-136652000D02*
X122834400Y-136618133D01*
X122800533Y-136550400D01*
X122800533Y-136381066D01*
X122834400Y-136313333D01*
X122868266Y-136279466D01*
X122936000Y-136245600D01*
X123003733Y-136245600D01*
X123105333Y-136279466D01*
X123511733Y-136685866D01*
X123511733Y-136245600D01*
X123594761Y-135810476D02*
X123642380Y-135667619D01*
X123642380Y-135429523D01*
X123594761Y-135334285D01*
X123547142Y-135286666D01*
X123451904Y-135239047D01*
X123356666Y-135239047D01*
X123261428Y-135286666D01*
X123213809Y-135334285D01*
X123166190Y-135429523D01*
X123118571Y-135620000D01*
X123070952Y-135715238D01*
X123023333Y-135762857D01*
X122928095Y-135810476D01*
X122832857Y-135810476D01*
X122737619Y-135762857D01*
X122690000Y-135715238D01*
X122642380Y-135620000D01*
X122642380Y-135381904D01*
X122690000Y-135239047D01*
X123547142Y-134239047D02*
X123594761Y-134286666D01*
X123642380Y-134429523D01*
X123642380Y-134524761D01*
X123594761Y-134667619D01*
X123499523Y-134762857D01*
X123404285Y-134810476D01*
X123213809Y-134858095D01*
X123070952Y-134858095D01*
X122880476Y-134810476D01*
X122785238Y-134762857D01*
X122690000Y-134667619D01*
X122642380Y-134524761D01*
X122642380Y-134429523D01*
X122690000Y-134286666D01*
X122737619Y-134239047D01*
X123642380Y-133334285D02*
X123642380Y-133810476D01*
X122642380Y-133810476D01*
X123594761Y-132659285D02*
X123642380Y-132516428D01*
X123642380Y-132278333D01*
X123594761Y-132183095D01*
X123547142Y-132135476D01*
X123451904Y-132087857D01*
X123356666Y-132087857D01*
X123261428Y-132135476D01*
X123213809Y-132183095D01*
X123166190Y-132278333D01*
X123118571Y-132468809D01*
X123070952Y-132564047D01*
X123023333Y-132611666D01*
X122928095Y-132659285D01*
X122832857Y-132659285D01*
X122737619Y-132611666D01*
X122690000Y-132564047D01*
X122642380Y-132468809D01*
X122642380Y-132230714D01*
X122690000Y-132087857D01*
X123642380Y-131659285D02*
X122642380Y-131659285D01*
X122642380Y-131421190D01*
X122690000Y-131278333D01*
X122785238Y-131183095D01*
X122880476Y-131135476D01*
X123070952Y-131087857D01*
X123213809Y-131087857D01*
X123404285Y-131135476D01*
X123499523Y-131183095D01*
X123594761Y-131278333D01*
X123642380Y-131421190D01*
X123642380Y-131659285D01*
X123356666Y-130706904D02*
X123356666Y-130230714D01*
X123642380Y-130802142D02*
X122642380Y-130468809D01*
X123642380Y-130135476D01*
X122610714Y-129357380D02*
X122610714Y-128357380D01*
X122848809Y-128357380D01*
X122991666Y-128405000D01*
X123086904Y-128500238D01*
X123134523Y-128595476D01*
X123182142Y-128785952D01*
X123182142Y-128928809D01*
X123134523Y-129119285D01*
X123086904Y-129214523D01*
X122991666Y-129309761D01*
X122848809Y-129357380D01*
X122610714Y-129357380D01*
X124134523Y-129357380D02*
X123563095Y-129357380D01*
X123848809Y-129357380D02*
X123848809Y-128357380D01*
X123753571Y-128500238D01*
X123658333Y-128595476D01*
X123563095Y-128643095D01*
X124467857Y-128357380D02*
X125086904Y-128357380D01*
X124753571Y-128738333D01*
X124896428Y-128738333D01*
X124991666Y-128785952D01*
X125039285Y-128833571D01*
X125086904Y-128928809D01*
X125086904Y-129166904D01*
X125039285Y-129262142D01*
X124991666Y-129309761D01*
X124896428Y-129357380D01*
X124610714Y-129357380D01*
X124515476Y-129309761D01*
X124467857Y-129262142D01*
X122610714Y-127452380D02*
X122610714Y-126452380D01*
X122848809Y-126452380D01*
X122991666Y-126500000D01*
X123086904Y-126595238D01*
X123134523Y-126690476D01*
X123182142Y-126880952D01*
X123182142Y-127023809D01*
X123134523Y-127214285D01*
X123086904Y-127309523D01*
X122991666Y-127404761D01*
X122848809Y-127452380D01*
X122610714Y-127452380D01*
X124134523Y-127452380D02*
X123563095Y-127452380D01*
X123848809Y-127452380D02*
X123848809Y-126452380D01*
X123753571Y-126595238D01*
X123658333Y-126690476D01*
X123563095Y-126738095D01*
X124515476Y-126547619D02*
X124563095Y-126500000D01*
X124658333Y-126452380D01*
X124896428Y-126452380D01*
X124991666Y-126500000D01*
X125039285Y-126547619D01*
X125086904Y-126642857D01*
X125086904Y-126738095D01*
X125039285Y-126880952D01*
X124467857Y-127452380D01*
X125086904Y-127452380D01*
X123642380Y-125674285D02*
X122642380Y-125674285D01*
X122642380Y-125436190D01*
X122690000Y-125293333D01*
X122785238Y-125198095D01*
X122880476Y-125150476D01*
X123070952Y-125102857D01*
X123213809Y-125102857D01*
X123404285Y-125150476D01*
X123499523Y-125198095D01*
X123594761Y-125293333D01*
X123642380Y-125436190D01*
X123642380Y-125674285D01*
X123642380Y-124150476D02*
X123642380Y-124721904D01*
X123642380Y-124436190D02*
X122642380Y-124436190D01*
X122785238Y-124531428D01*
X122880476Y-124626666D01*
X122928095Y-124721904D01*
X123642380Y-123198095D02*
X123642380Y-123769523D01*
X123642380Y-123483809D02*
X122642380Y-123483809D01*
X122785238Y-123579047D01*
X122880476Y-123674285D01*
X122928095Y-123769523D01*
X123388380Y-122499285D02*
X122388380Y-122499285D01*
X122388380Y-122261190D01*
X122436000Y-122118333D01*
X122531238Y-122023095D01*
X122626476Y-121975476D01*
X122816952Y-121927857D01*
X122959809Y-121927857D01*
X123150285Y-121975476D01*
X123245523Y-122023095D01*
X123340761Y-122118333D01*
X123388380Y-122261190D01*
X123388380Y-122499285D01*
X123388380Y-120975476D02*
X123388380Y-121546904D01*
X123388380Y-121261190D02*
X122388380Y-121261190D01*
X122531238Y-121356428D01*
X122626476Y-121451666D01*
X122674095Y-121546904D01*
X122388380Y-120356428D02*
X122388380Y-120261190D01*
X122436000Y-120165952D01*
X122483619Y-120118333D01*
X122578857Y-120070714D01*
X122769333Y-120023095D01*
X123007428Y-120023095D01*
X123197904Y-120070714D01*
X123293142Y-120118333D01*
X123340761Y-120165952D01*
X123388380Y-120261190D01*
X123388380Y-120356428D01*
X123340761Y-120451666D01*
X123293142Y-120499285D01*
X123197904Y-120546904D01*
X123007428Y-120594523D01*
X122769333Y-120594523D01*
X122578857Y-120546904D01*
X122483619Y-120499285D01*
X122436000Y-120451666D01*
X122388380Y-120356428D01*
X122451904Y-119197380D02*
X122451904Y-118197380D01*
X122690000Y-118197380D01*
X122832857Y-118245000D01*
X122928095Y-118340238D01*
X122975714Y-118435476D01*
X123023333Y-118625952D01*
X123023333Y-118768809D01*
X122975714Y-118959285D01*
X122928095Y-119054523D01*
X122832857Y-119149761D01*
X122690000Y-119197380D01*
X122451904Y-119197380D01*
X123499523Y-119197380D02*
X123690000Y-119197380D01*
X123785238Y-119149761D01*
X123832857Y-119102142D01*
X123928095Y-118959285D01*
X123975714Y-118768809D01*
X123975714Y-118387857D01*
X123928095Y-118292619D01*
X123880476Y-118245000D01*
X123785238Y-118197380D01*
X123594761Y-118197380D01*
X123499523Y-118245000D01*
X123451904Y-118292619D01*
X123404285Y-118387857D01*
X123404285Y-118625952D01*
X123451904Y-118721190D01*
X123499523Y-118768809D01*
X123594761Y-118816428D01*
X123785238Y-118816428D01*
X123880476Y-118768809D01*
X123928095Y-118721190D01*
X123975714Y-118625952D01*
X122451904Y-117292380D02*
X122451904Y-116292380D01*
X122690000Y-116292380D01*
X122832857Y-116340000D01*
X122928095Y-116435238D01*
X122975714Y-116530476D01*
X123023333Y-116720952D01*
X123023333Y-116863809D01*
X122975714Y-117054285D01*
X122928095Y-117149523D01*
X122832857Y-117244761D01*
X122690000Y-117292380D01*
X122451904Y-117292380D01*
X123594761Y-116720952D02*
X123499523Y-116673333D01*
X123451904Y-116625714D01*
X123404285Y-116530476D01*
X123404285Y-116482857D01*
X123451904Y-116387619D01*
X123499523Y-116340000D01*
X123594761Y-116292380D01*
X123785238Y-116292380D01*
X123880476Y-116340000D01*
X123928095Y-116387619D01*
X123975714Y-116482857D01*
X123975714Y-116530476D01*
X123928095Y-116625714D01*
X123880476Y-116673333D01*
X123785238Y-116720952D01*
X123594761Y-116720952D01*
X123499523Y-116768571D01*
X123451904Y-116816190D01*
X123404285Y-116911428D01*
X123404285Y-117101904D01*
X123451904Y-117197142D01*
X123499523Y-117244761D01*
X123594761Y-117292380D01*
X123785238Y-117292380D01*
X123880476Y-117244761D01*
X123928095Y-117197142D01*
X123975714Y-117101904D01*
X123975714Y-116911428D01*
X123928095Y-116816190D01*
X123880476Y-116768571D01*
X123785238Y-116720952D01*
X123086904Y-114752380D02*
X123086904Y-113752380D01*
X123325000Y-113752380D01*
X123467857Y-113800000D01*
X123563095Y-113895238D01*
X123610714Y-113990476D01*
X123658333Y-114180952D01*
X123658333Y-114323809D01*
X123610714Y-114514285D01*
X123563095Y-114609523D01*
X123467857Y-114704761D01*
X123325000Y-114752380D01*
X123086904Y-114752380D01*
X123991666Y-113752380D02*
X124658333Y-113752380D01*
X124229761Y-114752380D01*
X123642380Y-112498095D02*
X122642380Y-112498095D01*
X122642380Y-112260000D01*
X122690000Y-112117142D01*
X122785238Y-112021904D01*
X122880476Y-111974285D01*
X123070952Y-111926666D01*
X123213809Y-111926666D01*
X123404285Y-111974285D01*
X123499523Y-112021904D01*
X123594761Y-112117142D01*
X123642380Y-112260000D01*
X123642380Y-112498095D01*
X122642380Y-111069523D02*
X122642380Y-111260000D01*
X122690000Y-111355238D01*
X122737619Y-111402857D01*
X122880476Y-111498095D01*
X123070952Y-111545714D01*
X123451904Y-111545714D01*
X123547142Y-111498095D01*
X123594761Y-111450476D01*
X123642380Y-111355238D01*
X123642380Y-111164761D01*
X123594761Y-111069523D01*
X123547142Y-111021904D01*
X123451904Y-110974285D01*
X123213809Y-110974285D01*
X123118571Y-111021904D01*
X123070952Y-111069523D01*
X123023333Y-111164761D01*
X123023333Y-111355238D01*
X123070952Y-111450476D01*
X123118571Y-111498095D01*
X123213809Y-111545714D01*
X123515380Y-109704095D02*
X122515380Y-109704095D01*
X122515380Y-109466000D01*
X122563000Y-109323142D01*
X122658238Y-109227904D01*
X122753476Y-109180285D01*
X122943952Y-109132666D01*
X123086809Y-109132666D01*
X123277285Y-109180285D01*
X123372523Y-109227904D01*
X123467761Y-109323142D01*
X123515380Y-109466000D01*
X123515380Y-109704095D01*
X122515380Y-108227904D02*
X122515380Y-108704095D01*
X122991571Y-108751714D01*
X122943952Y-108704095D01*
X122896333Y-108608857D01*
X122896333Y-108370761D01*
X122943952Y-108275523D01*
X122991571Y-108227904D01*
X123086809Y-108180285D01*
X123324904Y-108180285D01*
X123420142Y-108227904D01*
X123467761Y-108275523D01*
X123515380Y-108370761D01*
X123515380Y-108608857D01*
X123467761Y-108704095D01*
X123420142Y-108751714D01*
X122705904Y-107132380D02*
X122705904Y-106132380D01*
X122944000Y-106132380D01*
X123086857Y-106180000D01*
X123182095Y-106275238D01*
X123229714Y-106370476D01*
X123277333Y-106560952D01*
X123277333Y-106703809D01*
X123229714Y-106894285D01*
X123182095Y-106989523D01*
X123086857Y-107084761D01*
X122944000Y-107132380D01*
X122705904Y-107132380D01*
X124134476Y-106465714D02*
X124134476Y-107132380D01*
X123896380Y-106084761D02*
X123658285Y-106799047D01*
X124277333Y-106799047D01*
X122705904Y-104592380D02*
X122705904Y-103592380D01*
X122944000Y-103592380D01*
X123086857Y-103640000D01*
X123182095Y-103735238D01*
X123229714Y-103830476D01*
X123277333Y-104020952D01*
X123277333Y-104163809D01*
X123229714Y-104354285D01*
X123182095Y-104449523D01*
X123086857Y-104544761D01*
X122944000Y-104592380D01*
X122705904Y-104592380D01*
X123610666Y-103592380D02*
X124229714Y-103592380D01*
X123896380Y-103973333D01*
X124039238Y-103973333D01*
X124134476Y-104020952D01*
X124182095Y-104068571D01*
X124229714Y-104163809D01*
X124229714Y-104401904D01*
X124182095Y-104497142D01*
X124134476Y-104544761D01*
X124039238Y-104592380D01*
X123753523Y-104592380D01*
X123658285Y-104544761D01*
X123610666Y-104497142D01*
X122705904Y-102052380D02*
X122705904Y-101052380D01*
X122944000Y-101052380D01*
X123086857Y-101100000D01*
X123182095Y-101195238D01*
X123229714Y-101290476D01*
X123277333Y-101480952D01*
X123277333Y-101623809D01*
X123229714Y-101814285D01*
X123182095Y-101909523D01*
X123086857Y-102004761D01*
X122944000Y-102052380D01*
X122705904Y-102052380D01*
X123658285Y-101147619D02*
X123705904Y-101100000D01*
X123801142Y-101052380D01*
X124039238Y-101052380D01*
X124134476Y-101100000D01*
X124182095Y-101147619D01*
X124229714Y-101242857D01*
X124229714Y-101338095D01*
X124182095Y-101480952D01*
X123610666Y-102052380D01*
X124229714Y-102052380D01*
X122634523Y-95972380D02*
X123205952Y-95972380D01*
X122920238Y-96972380D02*
X122920238Y-95972380D01*
X123444047Y-96972380D02*
X123967857Y-96305714D01*
X123444047Y-96305714D02*
X123967857Y-96972380D01*
X124348809Y-96972380D02*
X124348809Y-95972380D01*
X124586904Y-95972380D01*
X124729761Y-96020000D01*
X124825000Y-96115238D01*
X124872619Y-96210476D01*
X124920238Y-96400952D01*
X124920238Y-96543809D01*
X124872619Y-96734285D01*
X124825000Y-96829523D01*
X124729761Y-96924761D01*
X124586904Y-96972380D01*
X124348809Y-96972380D01*
X123229761Y-99512380D02*
X122896428Y-99036190D01*
X122658333Y-99512380D02*
X122658333Y-98512380D01*
X123039285Y-98512380D01*
X123134523Y-98560000D01*
X123182142Y-98607619D01*
X123229761Y-98702857D01*
X123229761Y-98845714D01*
X123182142Y-98940952D01*
X123134523Y-98988571D01*
X123039285Y-99036190D01*
X122658333Y-99036190D01*
X123563095Y-99512380D02*
X124086904Y-98845714D01*
X123563095Y-98845714D02*
X124086904Y-99512380D01*
X124467857Y-99512380D02*
X124467857Y-98512380D01*
X124705952Y-98512380D01*
X124848809Y-98560000D01*
X124944047Y-98655238D01*
X124991666Y-98750476D01*
X125039285Y-98940952D01*
X125039285Y-99083809D01*
X124991666Y-99274285D01*
X124944047Y-99369523D01*
X124848809Y-99464761D01*
X124705952Y-99512380D01*
X124467857Y-99512380D01*
X122309000Y-94876857D02*
X122261380Y-94972095D01*
X122261380Y-95114952D01*
X122309000Y-95257809D01*
X122404238Y-95353047D01*
X122499476Y-95400666D01*
X122689952Y-95448285D01*
X122832809Y-95448285D01*
X123023285Y-95400666D01*
X123118523Y-95353047D01*
X123213761Y-95257809D01*
X123261380Y-95114952D01*
X123261380Y-95019714D01*
X123213761Y-94876857D01*
X123166142Y-94829238D01*
X122832809Y-94829238D01*
X122832809Y-95019714D01*
X122594714Y-94400666D02*
X123261380Y-94400666D01*
X122689952Y-94400666D02*
X122642333Y-94353047D01*
X122594714Y-94257809D01*
X122594714Y-94114952D01*
X122642333Y-94019714D01*
X122737571Y-93972095D01*
X123261380Y-93972095D01*
X123261380Y-93067333D02*
X122261380Y-93067333D01*
X123213761Y-93067333D02*
X123261380Y-93162571D01*
X123261380Y-93353047D01*
X123213761Y-93448285D01*
X123166142Y-93495904D01*
X123070904Y-93543523D01*
X122785190Y-93543523D01*
X122689952Y-93495904D01*
X122642333Y-93448285D01*
X122594714Y-93353047D01*
X122594714Y-93162571D01*
X122642333Y-93067333D01*
X122261380Y-92678095D02*
X122261380Y-92059047D01*
X122642333Y-92392380D01*
X122642333Y-92249523D01*
X122689952Y-92154285D01*
X122737571Y-92106666D01*
X122832809Y-92059047D01*
X123070904Y-92059047D01*
X123166142Y-92106666D01*
X123213761Y-92154285D01*
X123261380Y-92249523D01*
X123261380Y-92535238D01*
X123213761Y-92630476D01*
X123166142Y-92678095D01*
X122261380Y-91773333D02*
X123261380Y-91440000D01*
X122261380Y-91106666D01*
X122261380Y-90868571D02*
X122261380Y-90249523D01*
X122642333Y-90582857D01*
X122642333Y-90440000D01*
X122689952Y-90344761D01*
X122737571Y-90297142D01*
X122832809Y-90249523D01*
X123070904Y-90249523D01*
X123166142Y-90297142D01*
X123213761Y-90344761D01*
X123261380Y-90440000D01*
X123261380Y-90725714D01*
X123213761Y-90820952D01*
X123166142Y-90868571D01*
X122261380Y-89542809D02*
X123261380Y-89209476D01*
X122261380Y-88876142D01*
X123261380Y-88542809D02*
X122594714Y-88542809D01*
X122261380Y-88542809D02*
X122309000Y-88590428D01*
X122356619Y-88542809D01*
X122309000Y-88495190D01*
X122261380Y-88542809D01*
X122356619Y-88542809D01*
X122594714Y-88066619D02*
X123261380Y-88066619D01*
X122689952Y-88066619D02*
X122642333Y-88019000D01*
X122594714Y-87923761D01*
X122594714Y-87780904D01*
X122642333Y-87685666D01*
X122737571Y-87638047D01*
X123261380Y-87638047D01*
D12*
X144175000Y-126715000D02*
X145515000Y-126715000D01*
X144175000Y-127665000D02*
X144175000Y-126715000D01*
X143225000Y-127665000D02*
X144175000Y-127665000D01*
X133955000Y-127665000D02*
X133955000Y-126715000D01*
X134905000Y-127665000D02*
X133955000Y-127665000D01*
X144175000Y-117445000D02*
X144175000Y-118395000D01*
X143225000Y-117445000D02*
X144175000Y-117445000D01*
X133955000Y-117445000D02*
X133955000Y-118395000D01*
X134905000Y-117445000D02*
X133955000Y-117445000D01*
X135890000Y-97821667D02*
X134620000Y-97821667D01*
X134690000Y-96615000D02*
X134690000Y-97821667D01*
X134810000Y-96615000D02*
X134810000Y-97821667D01*
X134930000Y-96615000D02*
X134930000Y-97821667D01*
X135050000Y-96615000D02*
X135050000Y-97821667D01*
X135170000Y-96615000D02*
X135170000Y-97821667D01*
X135290000Y-96615000D02*
X135290000Y-97821667D01*
X135410000Y-96615000D02*
X135410000Y-97821667D01*
X135530000Y-96615000D02*
X135530000Y-97821667D01*
X135650000Y-96615000D02*
X135650000Y-97821667D01*
X135770000Y-96615000D02*
X135770000Y-97821667D01*
X135890000Y-100235000D02*
X135890000Y-96615000D01*
X134620000Y-100235000D02*
X135890000Y-100235000D01*
X134620000Y-96615000D02*
X134620000Y-100235000D01*
X135890000Y-96615000D02*
X134620000Y-96615000D01*
X138430000Y-97821667D02*
X137160000Y-97821667D01*
X137230000Y-96615000D02*
X137230000Y-97821667D01*
X137350000Y-96615000D02*
X137350000Y-97821667D01*
X137470000Y-96615000D02*
X137470000Y-97821667D01*
X137590000Y-96615000D02*
X137590000Y-97821667D01*
X137710000Y-96615000D02*
X137710000Y-97821667D01*
X137830000Y-96615000D02*
X137830000Y-97821667D01*
X137950000Y-96615000D02*
X137950000Y-97821667D01*
X138070000Y-96615000D02*
X138070000Y-97821667D01*
X138190000Y-96615000D02*
X138190000Y-97821667D01*
X138310000Y-96615000D02*
X138310000Y-97821667D01*
X138430000Y-100235000D02*
X138430000Y-96615000D01*
X137160000Y-100235000D02*
X138430000Y-100235000D01*
X137160000Y-96615000D02*
X137160000Y-100235000D01*
X138430000Y-96615000D02*
X137160000Y-96615000D01*
X140970000Y-97821667D02*
X139700000Y-97821667D01*
X139770000Y-96615000D02*
X139770000Y-97821667D01*
X139890000Y-96615000D02*
X139890000Y-97821667D01*
X140010000Y-96615000D02*
X140010000Y-97821667D01*
X140130000Y-96615000D02*
X140130000Y-97821667D01*
X140250000Y-96615000D02*
X140250000Y-97821667D01*
X140370000Y-96615000D02*
X140370000Y-97821667D01*
X140490000Y-96615000D02*
X140490000Y-97821667D01*
X140610000Y-96615000D02*
X140610000Y-97821667D01*
X140730000Y-96615000D02*
X140730000Y-97821667D01*
X140850000Y-96615000D02*
X140850000Y-97821667D01*
X140970000Y-100235000D02*
X140970000Y-96615000D01*
X139700000Y-100235000D02*
X140970000Y-100235000D01*
X139700000Y-96615000D02*
X139700000Y-100235000D01*
X140970000Y-96615000D02*
X139700000Y-96615000D01*
X143510000Y-97821667D02*
X142240000Y-97821667D01*
X142310000Y-96615000D02*
X142310000Y-97821667D01*
X142430000Y-96615000D02*
X142430000Y-97821667D01*
X142550000Y-96615000D02*
X142550000Y-97821667D01*
X142670000Y-96615000D02*
X142670000Y-97821667D01*
X142790000Y-96615000D02*
X142790000Y-97821667D01*
X142910000Y-96615000D02*
X142910000Y-97821667D01*
X143030000Y-96615000D02*
X143030000Y-97821667D01*
X143150000Y-96615000D02*
X143150000Y-97821667D01*
X143270000Y-96615000D02*
X143270000Y-97821667D01*
X143390000Y-96615000D02*
X143390000Y-97821667D01*
X143510000Y-100235000D02*
X143510000Y-96615000D01*
X142240000Y-100235000D02*
X143510000Y-100235000D01*
X142240000Y-96615000D02*
X142240000Y-100235000D01*
X143510000Y-96615000D02*
X142240000Y-96615000D01*
X145225000Y-94775000D02*
X143915000Y-94775000D01*
X145225000Y-94775000D02*
X145225000Y-96158000D01*
X141885000Y-101836000D02*
X141324000Y-101836000D01*
X144985000Y-101836000D02*
X143865000Y-101836000D01*
X139345000Y-101836000D02*
X138784000Y-101836000D01*
X136805000Y-101836000D02*
X136244000Y-101836000D01*
X134265000Y-101836000D02*
X133145000Y-101836000D01*
X134265000Y-95015000D02*
X133145000Y-95015000D01*
X136805000Y-95015000D02*
X136244000Y-95015000D01*
X139345000Y-95015000D02*
X138784000Y-95015000D01*
X141835000Y-95015000D02*
X141324000Y-95015000D01*
X144985000Y-95015000D02*
X143915000Y-95015000D01*
X133145000Y-95015000D02*
X133145000Y-101836000D01*
X144985000Y-95015000D02*
X144985000Y-101836000D01*
X147450000Y-89265000D02*
X144650000Y-89265000D01*
X144650000Y-89265000D02*
X144650000Y-87265000D01*
X144650000Y-87265000D02*
X147450000Y-87265000D01*
X147450000Y-87265000D02*
X147450000Y-89265000D01*
X126745000Y-87405000D02*
X126745000Y-92805000D01*
X123445000Y-87405000D02*
X123445000Y-92805000D01*
X126745000Y-87405000D02*
X123445000Y-87405000D01*
X129589801Y-85850000D02*
X129589801Y-85450000D01*
X129789801Y-85650000D02*
X129389801Y-85650000D01*
X125439000Y-84825000D02*
X125439000Y-84085000D01*
X125479000Y-84992000D02*
X125479000Y-83918000D01*
X125519000Y-85119000D02*
X125519000Y-83791000D01*
X125559000Y-85223000D02*
X125559000Y-83687000D01*
X125599000Y-85314000D02*
X125599000Y-83596000D01*
X125639000Y-85395000D02*
X125639000Y-83515000D01*
X125679000Y-85468000D02*
X125679000Y-83442000D01*
X125719000Y-85535000D02*
X125719000Y-83375000D01*
X125759000Y-85597000D02*
X125759000Y-83313000D01*
X125799000Y-85655000D02*
X125799000Y-83255000D01*
X125839000Y-85709000D02*
X125839000Y-83201000D01*
X125879000Y-85759000D02*
X125879000Y-83151000D01*
X125919000Y-85806000D02*
X125919000Y-83104000D01*
X125959000Y-83615000D02*
X125959000Y-83059000D01*
X125959000Y-85851000D02*
X125959000Y-85295000D01*
X125999000Y-83615000D02*
X125999000Y-83017000D01*
X125999000Y-85893000D02*
X125999000Y-85295000D01*
X126039000Y-83615000D02*
X126039000Y-82977000D01*
X126039000Y-85933000D02*
X126039000Y-85295000D01*
X126079000Y-83615000D02*
X126079000Y-82939000D01*
X126079000Y-85971000D02*
X126079000Y-85295000D01*
X126119000Y-83615000D02*
X126119000Y-82903000D01*
X126119000Y-86007000D02*
X126119000Y-85295000D01*
X126159000Y-83615000D02*
X126159000Y-82868000D01*
X126159000Y-86042000D02*
X126159000Y-85295000D01*
X126199000Y-83615000D02*
X126199000Y-82836000D01*
X126199000Y-86074000D02*
X126199000Y-85295000D01*
X126239000Y-83615000D02*
X126239000Y-82805000D01*
X126239000Y-86105000D02*
X126239000Y-85295000D01*
X126279000Y-83615000D02*
X126279000Y-82775000D01*
X126279000Y-86135000D02*
X126279000Y-85295000D01*
X126319000Y-83615000D02*
X126319000Y-82747000D01*
X126319000Y-86163000D02*
X126319000Y-85295000D01*
X126359000Y-83615000D02*
X126359000Y-82720000D01*
X126359000Y-86190000D02*
X126359000Y-85295000D01*
X126399000Y-83615000D02*
X126399000Y-82695000D01*
X126399000Y-86215000D02*
X126399000Y-85295000D01*
X126439000Y-83615000D02*
X126439000Y-82670000D01*
X126439000Y-86240000D02*
X126439000Y-85295000D01*
X126479000Y-83615000D02*
X126479000Y-82647000D01*
X126479000Y-86263000D02*
X126479000Y-85295000D01*
X126519000Y-83615000D02*
X126519000Y-82625000D01*
X126519000Y-86285000D02*
X126519000Y-85295000D01*
X126559000Y-83615000D02*
X126559000Y-82604000D01*
X126559000Y-86306000D02*
X126559000Y-85295000D01*
X126599000Y-83615000D02*
X126599000Y-82585000D01*
X126599000Y-86325000D02*
X126599000Y-85295000D01*
X126639000Y-83615000D02*
X126639000Y-82566000D01*
X126639000Y-86344000D02*
X126639000Y-85295000D01*
X126679000Y-83615000D02*
X126679000Y-82548000D01*
X126679000Y-86362000D02*
X126679000Y-85295000D01*
X126719000Y-83615000D02*
X126719000Y-82531000D01*
X126719000Y-86379000D02*
X126719000Y-85295000D01*
X126759000Y-83615000D02*
X126759000Y-82515000D01*
X126759000Y-86395000D02*
X126759000Y-85295000D01*
X126799000Y-83615000D02*
X126799000Y-82501000D01*
X126799000Y-86409000D02*
X126799000Y-85295000D01*
X126840000Y-83615000D02*
X126840000Y-82487000D01*
X126840000Y-86423000D02*
X126840000Y-85295000D01*
X126880000Y-83615000D02*
X126880000Y-82473000D01*
X126880000Y-86437000D02*
X126880000Y-85295000D01*
X126920000Y-83615000D02*
X126920000Y-82461000D01*
X126920000Y-86449000D02*
X126920000Y-85295000D01*
X126960000Y-83615000D02*
X126960000Y-82450000D01*
X126960000Y-86460000D02*
X126960000Y-85295000D01*
X127000000Y-83615000D02*
X127000000Y-82439000D01*
X127000000Y-86471000D02*
X127000000Y-85295000D01*
X127040000Y-83615000D02*
X127040000Y-82430000D01*
X127040000Y-86480000D02*
X127040000Y-85295000D01*
X127080000Y-83615000D02*
X127080000Y-82421000D01*
X127080000Y-86489000D02*
X127080000Y-85295000D01*
X127120000Y-83615000D02*
X127120000Y-82413000D01*
X127120000Y-86497000D02*
X127120000Y-85295000D01*
X127160000Y-83615000D02*
X127160000Y-82405000D01*
X127160000Y-86505000D02*
X127160000Y-85295000D01*
X127200000Y-83615000D02*
X127200000Y-82399000D01*
X127200000Y-86511000D02*
X127200000Y-85295000D01*
X127240000Y-83615000D02*
X127240000Y-82393000D01*
X127240000Y-86517000D02*
X127240000Y-85295000D01*
X127280000Y-83615000D02*
X127280000Y-82388000D01*
X127280000Y-86522000D02*
X127280000Y-85295000D01*
X127320000Y-83615000D02*
X127320000Y-82384000D01*
X127320000Y-86526000D02*
X127320000Y-85295000D01*
X127360000Y-83615000D02*
X127360000Y-82381000D01*
X127360000Y-86529000D02*
X127360000Y-85295000D01*
X127400000Y-83615000D02*
X127400000Y-82378000D01*
X127400000Y-86532000D02*
X127400000Y-85295000D01*
X127440000Y-86534000D02*
X127440000Y-85295000D01*
X127440000Y-83615000D02*
X127440000Y-82376000D01*
X127480000Y-86535000D02*
X127480000Y-85295000D01*
X127480000Y-83615000D02*
X127480000Y-82375000D01*
X127520000Y-86535000D02*
X127520000Y-85295000D01*
X127520000Y-83615000D02*
X127520000Y-82375000D01*
X129640000Y-84455000D02*
G75*
G03X129640000Y-84455000I-2120000J0D01*
G01*
X122905225Y-78285000D02*
X122905225Y-78785000D01*
X122655225Y-78535000D02*
X123155225Y-78535000D01*
X128061000Y-79726000D02*
X128061000Y-80294000D01*
X128021000Y-79492000D02*
X128021000Y-80528000D01*
X127981000Y-79333000D02*
X127981000Y-80687000D01*
X127941000Y-79205000D02*
X127941000Y-80815000D01*
X127901000Y-79095000D02*
X127901000Y-80925000D01*
X127861000Y-78999000D02*
X127861000Y-81021000D01*
X127821000Y-78912000D02*
X127821000Y-81108000D01*
X127781000Y-78832000D02*
X127781000Y-81188000D01*
X127741000Y-78759000D02*
X127741000Y-81261000D01*
X127701000Y-78691000D02*
X127701000Y-81329000D01*
X127661000Y-78627000D02*
X127661000Y-81393000D01*
X127621000Y-78567000D02*
X127621000Y-81453000D01*
X127581000Y-78510000D02*
X127581000Y-81510000D01*
X127541000Y-78456000D02*
X127541000Y-81564000D01*
X127501000Y-78405000D02*
X127501000Y-81615000D01*
X127461000Y-81050000D02*
X127461000Y-81663000D01*
X127461000Y-78357000D02*
X127461000Y-78970000D01*
X127421000Y-81050000D02*
X127421000Y-81709000D01*
X127421000Y-78311000D02*
X127421000Y-78970000D01*
X127381000Y-81050000D02*
X127381000Y-81753000D01*
X127381000Y-78267000D02*
X127381000Y-78970000D01*
X127341000Y-81050000D02*
X127341000Y-81795000D01*
X127341000Y-78225000D02*
X127341000Y-78970000D01*
X127301000Y-81050000D02*
X127301000Y-81836000D01*
X127301000Y-78184000D02*
X127301000Y-78970000D01*
X127261000Y-81050000D02*
X127261000Y-81874000D01*
X127261000Y-78146000D02*
X127261000Y-78970000D01*
X127221000Y-81050000D02*
X127221000Y-81911000D01*
X127221000Y-78109000D02*
X127221000Y-78970000D01*
X127181000Y-81050000D02*
X127181000Y-81947000D01*
X127181000Y-78073000D02*
X127181000Y-78970000D01*
X127141000Y-81050000D02*
X127141000Y-81981000D01*
X127141000Y-78039000D02*
X127141000Y-78970000D01*
X127101000Y-81050000D02*
X127101000Y-82014000D01*
X127101000Y-78006000D02*
X127101000Y-78970000D01*
X127061000Y-81050000D02*
X127061000Y-82045000D01*
X127061000Y-77975000D02*
X127061000Y-78970000D01*
X127021000Y-81050000D02*
X127021000Y-82075000D01*
X127021000Y-77945000D02*
X127021000Y-78970000D01*
X126981000Y-81050000D02*
X126981000Y-82105000D01*
X126981000Y-77915000D02*
X126981000Y-78970000D01*
X126941000Y-81050000D02*
X126941000Y-82132000D01*
X126941000Y-77888000D02*
X126941000Y-78970000D01*
X126901000Y-81050000D02*
X126901000Y-82159000D01*
X126901000Y-77861000D02*
X126901000Y-78970000D01*
X126861000Y-81050000D02*
X126861000Y-82185000D01*
X126861000Y-77835000D02*
X126861000Y-78970000D01*
X126821000Y-81050000D02*
X126821000Y-82210000D01*
X126821000Y-77810000D02*
X126821000Y-78970000D01*
X126781000Y-81050000D02*
X126781000Y-82234000D01*
X126781000Y-77786000D02*
X126781000Y-78970000D01*
X126741000Y-81050000D02*
X126741000Y-82257000D01*
X126741000Y-77763000D02*
X126741000Y-78970000D01*
X126701000Y-81050000D02*
X126701000Y-82278000D01*
X126701000Y-77742000D02*
X126701000Y-78970000D01*
X126661000Y-81050000D02*
X126661000Y-82300000D01*
X126661000Y-77720000D02*
X126661000Y-78970000D01*
X126621000Y-81050000D02*
X126621000Y-82320000D01*
X126621000Y-77700000D02*
X126621000Y-78970000D01*
X126581000Y-81050000D02*
X126581000Y-82339000D01*
X126581000Y-77681000D02*
X126581000Y-78970000D01*
X126541000Y-81050000D02*
X126541000Y-82358000D01*
X126541000Y-77662000D02*
X126541000Y-78970000D01*
X126501000Y-81050000D02*
X126501000Y-82375000D01*
X126501000Y-77645000D02*
X126501000Y-78970000D01*
X126461000Y-81050000D02*
X126461000Y-82392000D01*
X126461000Y-77628000D02*
X126461000Y-78970000D01*
X126421000Y-81050000D02*
X126421000Y-82408000D01*
X126421000Y-77612000D02*
X126421000Y-78970000D01*
X126381000Y-81050000D02*
X126381000Y-82424000D01*
X126381000Y-77596000D02*
X126381000Y-78970000D01*
X126341000Y-81050000D02*
X126341000Y-82438000D01*
X126341000Y-77582000D02*
X126341000Y-78970000D01*
X126301000Y-81050000D02*
X126301000Y-82452000D01*
X126301000Y-77568000D02*
X126301000Y-78970000D01*
X126261000Y-81050000D02*
X126261000Y-82465000D01*
X126261000Y-77555000D02*
X126261000Y-78970000D01*
X126221000Y-81050000D02*
X126221000Y-82478000D01*
X126221000Y-77542000D02*
X126221000Y-78970000D01*
X126181000Y-81050000D02*
X126181000Y-82490000D01*
X126181000Y-77530000D02*
X126181000Y-78970000D01*
X126140000Y-81050000D02*
X126140000Y-82501000D01*
X126140000Y-77519000D02*
X126140000Y-78970000D01*
X126100000Y-81050000D02*
X126100000Y-82511000D01*
X126100000Y-77509000D02*
X126100000Y-78970000D01*
X126060000Y-81050000D02*
X126060000Y-82521000D01*
X126060000Y-77499000D02*
X126060000Y-78970000D01*
X126020000Y-81050000D02*
X126020000Y-82530000D01*
X126020000Y-77490000D02*
X126020000Y-78970000D01*
X125980000Y-81050000D02*
X125980000Y-82538000D01*
X125980000Y-77482000D02*
X125980000Y-78970000D01*
X125940000Y-81050000D02*
X125940000Y-82546000D01*
X125940000Y-77474000D02*
X125940000Y-78970000D01*
X125900000Y-81050000D02*
X125900000Y-82553000D01*
X125900000Y-77467000D02*
X125900000Y-78970000D01*
X125860000Y-81050000D02*
X125860000Y-82560000D01*
X125860000Y-77460000D02*
X125860000Y-78970000D01*
X125820000Y-81050000D02*
X125820000Y-82566000D01*
X125820000Y-77454000D02*
X125820000Y-78970000D01*
X125780000Y-81050000D02*
X125780000Y-82571000D01*
X125780000Y-77449000D02*
X125780000Y-78970000D01*
X125740000Y-81050000D02*
X125740000Y-82575000D01*
X125740000Y-77445000D02*
X125740000Y-78970000D01*
X125700000Y-81050000D02*
X125700000Y-82579000D01*
X125700000Y-77441000D02*
X125700000Y-78970000D01*
X125660000Y-81050000D02*
X125660000Y-82583000D01*
X125660000Y-77437000D02*
X125660000Y-78970000D01*
X125620000Y-81050000D02*
X125620000Y-82586000D01*
X125620000Y-77434000D02*
X125620000Y-78970000D01*
X125580000Y-81050000D02*
X125580000Y-82588000D01*
X125580000Y-77432000D02*
X125580000Y-78970000D01*
X125540000Y-81050000D02*
X125540000Y-82589000D01*
X125540000Y-77431000D02*
X125540000Y-78970000D01*
X125500000Y-77430000D02*
X125500000Y-78970000D01*
X125500000Y-81050000D02*
X125500000Y-82590000D01*
X125460000Y-77430000D02*
X125460000Y-78970000D01*
X125460000Y-81050000D02*
X125460000Y-82590000D01*
X128080000Y-80010000D02*
G75*
G03X128080000Y-80010000I-2620000J0D01*
G01*
X132665199Y-106555000D02*
X132665199Y-106955000D01*
X132465199Y-106755000D02*
X132865199Y-106755000D01*
X136816000Y-107580000D02*
X136816000Y-108320000D01*
X136776000Y-107413000D02*
X136776000Y-108487000D01*
X136736000Y-107286000D02*
X136736000Y-108614000D01*
X136696000Y-107182000D02*
X136696000Y-108718000D01*
X136656000Y-107091000D02*
X136656000Y-108809000D01*
X136616000Y-107010000D02*
X136616000Y-108890000D01*
X136576000Y-106937000D02*
X136576000Y-108963000D01*
X136536000Y-106870000D02*
X136536000Y-109030000D01*
X136496000Y-106808000D02*
X136496000Y-109092000D01*
X136456000Y-106750000D02*
X136456000Y-109150000D01*
X136416000Y-106696000D02*
X136416000Y-109204000D01*
X136376000Y-106646000D02*
X136376000Y-109254000D01*
X136336000Y-106599000D02*
X136336000Y-109301000D01*
X136296000Y-108790000D02*
X136296000Y-109346000D01*
X136296000Y-106554000D02*
X136296000Y-107110000D01*
X136256000Y-108790000D02*
X136256000Y-109388000D01*
X136256000Y-106512000D02*
X136256000Y-107110000D01*
X136216000Y-108790000D02*
X136216000Y-109428000D01*
X136216000Y-106472000D02*
X136216000Y-107110000D01*
X136176000Y-108790000D02*
X136176000Y-109466000D01*
X136176000Y-106434000D02*
X136176000Y-107110000D01*
X136136000Y-108790000D02*
X136136000Y-109502000D01*
X136136000Y-106398000D02*
X136136000Y-107110000D01*
X136096000Y-108790000D02*
X136096000Y-109537000D01*
X136096000Y-106363000D02*
X136096000Y-107110000D01*
X136056000Y-108790000D02*
X136056000Y-109569000D01*
X136056000Y-106331000D02*
X136056000Y-107110000D01*
X136016000Y-108790000D02*
X136016000Y-109600000D01*
X136016000Y-106300000D02*
X136016000Y-107110000D01*
X135976000Y-108790000D02*
X135976000Y-109630000D01*
X135976000Y-106270000D02*
X135976000Y-107110000D01*
X135936000Y-108790000D02*
X135936000Y-109658000D01*
X135936000Y-106242000D02*
X135936000Y-107110000D01*
X135896000Y-108790000D02*
X135896000Y-109685000D01*
X135896000Y-106215000D02*
X135896000Y-107110000D01*
X135856000Y-108790000D02*
X135856000Y-109710000D01*
X135856000Y-106190000D02*
X135856000Y-107110000D01*
X135816000Y-108790000D02*
X135816000Y-109735000D01*
X135816000Y-106165000D02*
X135816000Y-107110000D01*
X135776000Y-108790000D02*
X135776000Y-109758000D01*
X135776000Y-106142000D02*
X135776000Y-107110000D01*
X135736000Y-108790000D02*
X135736000Y-109780000D01*
X135736000Y-106120000D02*
X135736000Y-107110000D01*
X135696000Y-108790000D02*
X135696000Y-109801000D01*
X135696000Y-106099000D02*
X135696000Y-107110000D01*
X135656000Y-108790000D02*
X135656000Y-109820000D01*
X135656000Y-106080000D02*
X135656000Y-107110000D01*
X135616000Y-108790000D02*
X135616000Y-109839000D01*
X135616000Y-106061000D02*
X135616000Y-107110000D01*
X135576000Y-108790000D02*
X135576000Y-109857000D01*
X135576000Y-106043000D02*
X135576000Y-107110000D01*
X135536000Y-108790000D02*
X135536000Y-109874000D01*
X135536000Y-106026000D02*
X135536000Y-107110000D01*
X135496000Y-108790000D02*
X135496000Y-109890000D01*
X135496000Y-106010000D02*
X135496000Y-107110000D01*
X135456000Y-108790000D02*
X135456000Y-109904000D01*
X135456000Y-105996000D02*
X135456000Y-107110000D01*
X135415000Y-108790000D02*
X135415000Y-109918000D01*
X135415000Y-105982000D02*
X135415000Y-107110000D01*
X135375000Y-108790000D02*
X135375000Y-109932000D01*
X135375000Y-105968000D02*
X135375000Y-107110000D01*
X135335000Y-108790000D02*
X135335000Y-109944000D01*
X135335000Y-105956000D02*
X135335000Y-107110000D01*
X135295000Y-108790000D02*
X135295000Y-109955000D01*
X135295000Y-105945000D02*
X135295000Y-107110000D01*
X135255000Y-108790000D02*
X135255000Y-109966000D01*
X135255000Y-105934000D02*
X135255000Y-107110000D01*
X135215000Y-108790000D02*
X135215000Y-109975000D01*
X135215000Y-105925000D02*
X135215000Y-107110000D01*
X135175000Y-108790000D02*
X135175000Y-109984000D01*
X135175000Y-105916000D02*
X135175000Y-107110000D01*
X135135000Y-108790000D02*
X135135000Y-109992000D01*
X135135000Y-105908000D02*
X135135000Y-107110000D01*
X135095000Y-108790000D02*
X135095000Y-110000000D01*
X135095000Y-105900000D02*
X135095000Y-107110000D01*
X135055000Y-108790000D02*
X135055000Y-110006000D01*
X135055000Y-105894000D02*
X135055000Y-107110000D01*
X135015000Y-108790000D02*
X135015000Y-110012000D01*
X135015000Y-105888000D02*
X135015000Y-107110000D01*
X134975000Y-108790000D02*
X134975000Y-110017000D01*
X134975000Y-105883000D02*
X134975000Y-107110000D01*
X134935000Y-108790000D02*
X134935000Y-110021000D01*
X134935000Y-105879000D02*
X134935000Y-107110000D01*
X134895000Y-108790000D02*
X134895000Y-110024000D01*
X134895000Y-105876000D02*
X134895000Y-107110000D01*
X134855000Y-108790000D02*
X134855000Y-110027000D01*
X134855000Y-105873000D02*
X134855000Y-107110000D01*
X134815000Y-105871000D02*
X134815000Y-107110000D01*
X134815000Y-108790000D02*
X134815000Y-110029000D01*
X134775000Y-105870000D02*
X134775000Y-107110000D01*
X134775000Y-108790000D02*
X134775000Y-110030000D01*
X134735000Y-105870000D02*
X134735000Y-107110000D01*
X134735000Y-108790000D02*
X134735000Y-110030000D01*
X136855000Y-107950000D02*
G75*
G03X136855000Y-107950000I-2120000J0D01*
G01*
X154880000Y-138490000D02*
X157540000Y-138490000D01*
X154880000Y-90170000D02*
X154880000Y-138490000D01*
X157540000Y-90170000D02*
X157540000Y-138490000D01*
X154880000Y-90170000D02*
X157540000Y-90170000D01*
X154880000Y-88900000D02*
X154880000Y-87570000D01*
X154880000Y-87570000D02*
X156210000Y-87570000D01*
X119320000Y-138490000D02*
X121980000Y-138490000D01*
X119320000Y-90170000D02*
X119320000Y-138490000D01*
X121980000Y-90170000D02*
X121980000Y-138490000D01*
X119320000Y-90170000D02*
X121980000Y-90170000D01*
X119320000Y-88900000D02*
X119320000Y-87570000D01*
X119320000Y-87570000D02*
X120650000Y-87570000D01*
X122495000Y-77530000D02*
X122495000Y-76200000D01*
X123825000Y-77530000D02*
X122495000Y-77530000D01*
X125095000Y-77530000D02*
X125095000Y-74870000D01*
X125095000Y-74870000D02*
X127695000Y-74870000D01*
X125095000Y-77530000D02*
X127695000Y-77530000D01*
X127695000Y-77530000D02*
X127695000Y-74870000D01*
X123765000Y-113090000D02*
X123765000Y-111760000D01*
X125095000Y-113090000D02*
X123765000Y-113090000D01*
X126365000Y-113090000D02*
X126365000Y-110430000D01*
X126365000Y-110430000D02*
X134045000Y-110430000D01*
X126365000Y-113090000D02*
X134045000Y-113090000D01*
X134045000Y-113090000D02*
X134045000Y-110430000D01*
X139125000Y-136465000D02*
X139125000Y-137795000D01*
X137795000Y-136465000D02*
X139125000Y-136465000D01*
X136525000Y-136465000D02*
X136525000Y-139125000D01*
X136525000Y-139125000D02*
X128845000Y-139125000D01*
X136525000Y-136465000D02*
X128845000Y-136465000D01*
X128845000Y-136465000D02*
X128845000Y-139125000D01*
X128845000Y-149920000D02*
X128845000Y-148590000D01*
X130175000Y-149920000D02*
X128845000Y-149920000D01*
X131445000Y-149920000D02*
X131445000Y-147260000D01*
X131445000Y-147260000D02*
X149285000Y-147260000D01*
X131445000Y-149920000D02*
X149285000Y-149920000D01*
X149285000Y-149920000D02*
X149285000Y-147260000D01*
X153020000Y-122630000D02*
G75*
G03X147970000Y-122630000I-2525000J0D01*
G01*
X153020000Y-129030000D02*
G75*
G02X147970000Y-129030000I-2525000J0D01*
G01*
X153020000Y-129030000D02*
X153020000Y-122630000D01*
X147970000Y-129030000D02*
X147970000Y-122630000D01*
X153670000Y-143541667D02*
X152400000Y-143541667D01*
X152470000Y-142335000D02*
X152470000Y-143541667D01*
X152590000Y-142335000D02*
X152590000Y-143541667D01*
X152710000Y-142335000D02*
X152710000Y-143541667D01*
X152830000Y-142335000D02*
X152830000Y-143541667D01*
X152950000Y-142335000D02*
X152950000Y-143541667D01*
X153070000Y-142335000D02*
X153070000Y-143541667D01*
X153190000Y-142335000D02*
X153190000Y-143541667D01*
X153310000Y-142335000D02*
X153310000Y-143541667D01*
X153430000Y-142335000D02*
X153430000Y-143541667D01*
X153550000Y-142335000D02*
X153550000Y-143541667D01*
X153670000Y-145955000D02*
X153670000Y-142335000D01*
X152400000Y-145955000D02*
X153670000Y-145955000D01*
X152400000Y-142335000D02*
X152400000Y-145955000D01*
X153670000Y-142335000D02*
X152400000Y-142335000D01*
X155385000Y-140495000D02*
X154075000Y-140495000D01*
X155385000Y-140495000D02*
X155385000Y-141878000D01*
X152045000Y-147556000D02*
X150925000Y-147556000D01*
X155145000Y-147556000D02*
X154025000Y-147556000D01*
X151995000Y-140735000D02*
X150925000Y-140735000D01*
X155145000Y-140735000D02*
X154075000Y-140735000D01*
X150925000Y-140735000D02*
X150925000Y-147556000D01*
X155145000Y-140735000D02*
X155145000Y-147556000D01*
X125095000Y-143541667D02*
X123825000Y-143541667D01*
X123895000Y-142335000D02*
X123895000Y-143541667D01*
X124015000Y-142335000D02*
X124015000Y-143541667D01*
X124135000Y-142335000D02*
X124135000Y-143541667D01*
X124255000Y-142335000D02*
X124255000Y-143541667D01*
X124375000Y-142335000D02*
X124375000Y-143541667D01*
X124495000Y-142335000D02*
X124495000Y-143541667D01*
X124615000Y-142335000D02*
X124615000Y-143541667D01*
X124735000Y-142335000D02*
X124735000Y-143541667D01*
X124855000Y-142335000D02*
X124855000Y-143541667D01*
X124975000Y-142335000D02*
X124975000Y-143541667D01*
X125095000Y-145955000D02*
X125095000Y-142335000D01*
X123825000Y-145955000D02*
X125095000Y-145955000D01*
X123825000Y-142335000D02*
X123825000Y-145955000D01*
X125095000Y-142335000D02*
X123825000Y-142335000D01*
X126810000Y-140495000D02*
X125500000Y-140495000D01*
X126810000Y-140495000D02*
X126810000Y-141878000D01*
X123470000Y-147556000D02*
X122350000Y-147556000D01*
X126570000Y-147556000D02*
X125450000Y-147556000D01*
X123420000Y-140735000D02*
X122350000Y-140735000D01*
X126570000Y-140735000D02*
X125500000Y-140735000D01*
X122350000Y-140735000D02*
X122350000Y-147556000D01*
X126570000Y-140735000D02*
X126570000Y-147556000D01*
X147605000Y-145430000D02*
X147605000Y-141590000D01*
X145765000Y-145430000D02*
X145765000Y-141590000D01*
X140685000Y-133335000D02*
X140685000Y-137175000D01*
X142525000Y-133335000D02*
X142525000Y-137175000D01*
X136875000Y-108570000D02*
X136875000Y-112410000D01*
X138715000Y-108570000D02*
X138715000Y-112410000D01*
X124175000Y-119365000D02*
X124175000Y-123205000D01*
X126015000Y-119365000D02*
X126015000Y-123205000D01*
X126715000Y-133335000D02*
X126715000Y-137175000D01*
X128555000Y-133335000D02*
X128555000Y-137175000D01*
X124175000Y-133335000D02*
X124175000Y-137175000D01*
X126015000Y-133335000D02*
X126015000Y-137175000D01*
X126715000Y-119365000D02*
X126715000Y-123205000D01*
X128555000Y-119365000D02*
X128555000Y-123205000D01*
X144430000Y-112410000D02*
X144430000Y-108570000D01*
X142590000Y-112410000D02*
X142590000Y-108570000D01*
X145065000Y-137175000D02*
X145065000Y-133335000D01*
X143225000Y-137175000D02*
X143225000Y-133335000D01*
X150272000Y-137175000D02*
X150272000Y-133335000D01*
X148432000Y-137175000D02*
X148432000Y-133335000D01*
X150780000Y-145430000D02*
X150780000Y-141590000D01*
X148940000Y-145430000D02*
X148940000Y-141590000D01*
X153955000Y-87645000D02*
X153955000Y-83805000D01*
X152115000Y-87645000D02*
X152115000Y-83805000D01*
X151415000Y-87645000D02*
X151415000Y-83805000D01*
X149575000Y-87645000D02*
X149575000Y-83805000D01*
X155225000Y-80025000D02*
X155225000Y-76185000D01*
X153385000Y-80025000D02*
X153385000Y-76185000D01*
X136335000Y-145070000D02*
X136491000Y-145070000D01*
X134019000Y-145070000D02*
X134175000Y-145070000D01*
X136334837Y-142468870D02*
G75*
G02X136335000Y-144550961I-1079837J-1041130D01*
G01*
X134175163Y-142468870D02*
G75*
G03X134175000Y-144550961I1079837J-1041130D01*
G01*
X136333608Y-141837665D02*
G75*
G02X136490516Y-145070000I-1078608J-1672335D01*
G01*
X134176392Y-141837665D02*
G75*
G03X134019484Y-145070000I1078608J-1672335D01*
G01*
X143955000Y-145070000D02*
X144111000Y-145070000D01*
X141639000Y-145070000D02*
X141795000Y-145070000D01*
X143954837Y-142468870D02*
G75*
G02X143955000Y-144550961I-1079837J-1041130D01*
G01*
X141795163Y-142468870D02*
G75*
G03X141795000Y-144550961I1079837J-1041130D01*
G01*
X143953608Y-141837665D02*
G75*
G02X144110516Y-145070000I-1078608J-1672335D01*
G01*
X141796392Y-141837665D02*
G75*
G03X141639484Y-145070000I1078608J-1672335D01*
G01*
X134330000Y-78505000D02*
X140340000Y-78505000D01*
X136580000Y-85325000D02*
X140340000Y-85325000D01*
X140340000Y-78505000D02*
X140340000Y-79765000D01*
X140340000Y-85325000D02*
X140340000Y-84065000D01*
X126580000Y-93435000D02*
X125914000Y-93435000D01*
X129356000Y-93435000D02*
X128690000Y-93435000D01*
X126580000Y-88095000D02*
X125914000Y-88095000D01*
X129356000Y-88095000D02*
X128690000Y-88095000D01*
X125914000Y-88095000D02*
X125914000Y-93435000D01*
X129356000Y-88095000D02*
X129356000Y-93435000D01*
X141771000Y-107860000D02*
X142437000Y-107860000D01*
X138995000Y-107860000D02*
X139661000Y-107860000D01*
X141771000Y-113200000D02*
X142437000Y-113200000D01*
X138995000Y-113200000D02*
X139661000Y-113200000D01*
X142437000Y-113200000D02*
X142437000Y-107860000D01*
X138995000Y-113200000D02*
X138995000Y-107860000D01*
X146011000Y-137885000D02*
X145345000Y-137885000D01*
X148787000Y-137885000D02*
X148121000Y-137885000D01*
X146011000Y-132545000D02*
X145345000Y-132545000D01*
X148787000Y-132545000D02*
X148121000Y-132545000D01*
X145345000Y-132545000D02*
X145345000Y-137885000D01*
X148787000Y-132545000D02*
X148787000Y-137885000D01*
X145630000Y-101055000D02*
X144964000Y-101055000D01*
X148406000Y-101055000D02*
X147740000Y-101055000D01*
X145630000Y-95715000D02*
X144964000Y-95715000D01*
X148406000Y-95715000D02*
X147740000Y-95715000D01*
X144964000Y-95715000D02*
X144964000Y-101055000D01*
X148406000Y-95715000D02*
X148406000Y-101055000D01*
X149440000Y-80735000D02*
X148774000Y-80735000D01*
X152216000Y-80735000D02*
X151550000Y-80735000D01*
X149440000Y-75395000D02*
X148774000Y-75395000D01*
X152216000Y-75395000D02*
X151550000Y-75395000D01*
X148774000Y-75395000D02*
X148774000Y-80735000D01*
X152216000Y-75395000D02*
X152216000Y-80735000D01*
D16*
G36*
X139077878Y-85695776D02*
G01*
X139183612Y-85696355D01*
X139260132Y-85697922D01*
X139312372Y-85700972D01*
X139345263Y-85705996D01*
X139363737Y-85713489D01*
X139372727Y-85723944D01*
X139377163Y-85737853D01*
X139377594Y-85739654D01*
X139384333Y-85772145D01*
X139396808Y-85836252D01*
X139413719Y-85925151D01*
X139433771Y-86032019D01*
X139455664Y-86150033D01*
X139456429Y-86154178D01*
X139478359Y-86269831D01*
X139498877Y-86372014D01*
X139516659Y-86454598D01*
X139530381Y-86511456D01*
X139538718Y-86536458D01*
X139539116Y-86536901D01*
X139563677Y-86549110D01*
X139614315Y-86569456D01*
X139680095Y-86593545D01*
X139680461Y-86593674D01*
X139763317Y-86624818D01*
X139861000Y-86664491D01*
X139953077Y-86704381D01*
X139957434Y-86706353D01*
X140107407Y-86774420D01*
X140439498Y-86547639D01*
X140541374Y-86478504D01*
X140633657Y-86416697D01*
X140711003Y-86365733D01*
X140768064Y-86329127D01*
X140799495Y-86310394D01*
X140802479Y-86309004D01*
X140825321Y-86315190D01*
X140867982Y-86345035D01*
X140932128Y-86399947D01*
X141019421Y-86481334D01*
X141108535Y-86567922D01*
X141194441Y-86653247D01*
X141271327Y-86731108D01*
X141334564Y-86796697D01*
X141379523Y-86845205D01*
X141401576Y-86871825D01*
X141402396Y-86873195D01*
X141404834Y-86891463D01*
X141395650Y-86921295D01*
X141372574Y-86966721D01*
X141333337Y-87031770D01*
X141275670Y-87120470D01*
X141198795Y-87234657D01*
X141130570Y-87335162D01*
X141069582Y-87425303D01*
X141019356Y-87499849D01*
X140983416Y-87553565D01*
X140965287Y-87581218D01*
X140964146Y-87583095D01*
X140966359Y-87609590D01*
X140983138Y-87661086D01*
X141011142Y-87727851D01*
X141021122Y-87749172D01*
X141064672Y-87844159D01*
X141111134Y-87951937D01*
X141148877Y-88045192D01*
X141176073Y-88114406D01*
X141197675Y-88167006D01*
X141210158Y-88194497D01*
X141211709Y-88196616D01*
X141234668Y-88200124D01*
X141288786Y-88209738D01*
X141366868Y-88224089D01*
X141461719Y-88241807D01*
X141566143Y-88261525D01*
X141672944Y-88281874D01*
X141774926Y-88301486D01*
X141864894Y-88318991D01*
X141935653Y-88333022D01*
X141980006Y-88342209D01*
X141990885Y-88344807D01*
X142002122Y-88351218D01*
X142010605Y-88365697D01*
X142016714Y-88393133D01*
X142020832Y-88438411D01*
X142023341Y-88506420D01*
X142024621Y-88602047D01*
X142025054Y-88730180D01*
X142025077Y-88782701D01*
X142025077Y-89209845D01*
X141922500Y-89230091D01*
X141865431Y-89241070D01*
X141780269Y-89257095D01*
X141677372Y-89276233D01*
X141567096Y-89296551D01*
X141536615Y-89302132D01*
X141434855Y-89321917D01*
X141346205Y-89341373D01*
X141278108Y-89358697D01*
X141238004Y-89372088D01*
X141231323Y-89376079D01*
X141214919Y-89404342D01*
X141191399Y-89459109D01*
X141165316Y-89529588D01*
X141160142Y-89544769D01*
X141125956Y-89638896D01*
X141083523Y-89745101D01*
X141041997Y-89840473D01*
X141041792Y-89840916D01*
X140972640Y-89990525D01*
X141427512Y-90659617D01*
X141135500Y-90952116D01*
X141047180Y-91039170D01*
X140966625Y-91115909D01*
X140898360Y-91178237D01*
X140846908Y-91222056D01*
X140816794Y-91243270D01*
X140812474Y-91244616D01*
X140787111Y-91234016D01*
X140735358Y-91204547D01*
X140662868Y-91159705D01*
X140575294Y-91102984D01*
X140480612Y-91039462D01*
X140384516Y-90974668D01*
X140298837Y-90918287D01*
X140229016Y-90873788D01*
X140180494Y-90844639D01*
X140158782Y-90834308D01*
X140132293Y-90843050D01*
X140082062Y-90866087D01*
X140018451Y-90898631D01*
X140011708Y-90902249D01*
X139926046Y-90945210D01*
X139867306Y-90966279D01*
X139830772Y-90966503D01*
X139811731Y-90946928D01*
X139811620Y-90946654D01*
X139802102Y-90923472D01*
X139779403Y-90868441D01*
X139745282Y-90785822D01*
X139701500Y-90679872D01*
X139649816Y-90554852D01*
X139591992Y-90415020D01*
X139535991Y-90279637D01*
X139474447Y-90130234D01*
X139417939Y-89991832D01*
X139368161Y-89868673D01*
X139326806Y-89765002D01*
X139295568Y-89685059D01*
X139276141Y-89633088D01*
X139270154Y-89613692D01*
X139285168Y-89591443D01*
X139324439Y-89555982D01*
X139376807Y-89516887D01*
X139525941Y-89393245D01*
X139642511Y-89251522D01*
X139725118Y-89094704D01*
X139772366Y-88925775D01*
X139782857Y-88747722D01*
X139775231Y-88665539D01*
X139733682Y-88495031D01*
X139662123Y-88344459D01*
X139564995Y-88215309D01*
X139446734Y-88109064D01*
X139311780Y-88027210D01*
X139164571Y-87971232D01*
X139009544Y-87942615D01*
X138851139Y-87942844D01*
X138693794Y-87973405D01*
X138541946Y-88035782D01*
X138400035Y-88131460D01*
X138340803Y-88185572D01*
X138227203Y-88324520D01*
X138148106Y-88476361D01*
X138102986Y-88636667D01*
X138091316Y-88801012D01*
X138112569Y-88964971D01*
X138166220Y-89124118D01*
X138251740Y-89274025D01*
X138368605Y-89410267D01*
X138499193Y-89516887D01*
X138553588Y-89557642D01*
X138592014Y-89592718D01*
X138605846Y-89613726D01*
X138598603Y-89636635D01*
X138578005Y-89691365D01*
X138545746Y-89773672D01*
X138503521Y-89879315D01*
X138453023Y-90004050D01*
X138395948Y-90143636D01*
X138339854Y-90279670D01*
X138277967Y-90429201D01*
X138220644Y-90567767D01*
X138169644Y-90691107D01*
X138126727Y-90794964D01*
X138093653Y-90875080D01*
X138072181Y-90927195D01*
X138064225Y-90946654D01*
X138045429Y-90966423D01*
X138009074Y-90966365D01*
X137950479Y-90945441D01*
X137864968Y-90902613D01*
X137864292Y-90902249D01*
X137799907Y-90869012D01*
X137747861Y-90844802D01*
X137718512Y-90834404D01*
X137717217Y-90834308D01*
X137695124Y-90844855D01*
X137646348Y-90874184D01*
X137576331Y-90918827D01*
X137490514Y-90975314D01*
X137395388Y-91039462D01*
X137298540Y-91104411D01*
X137211253Y-91160896D01*
X137139181Y-91205421D01*
X137087977Y-91234490D01*
X137063526Y-91244616D01*
X137041010Y-91231307D01*
X136995742Y-91194112D01*
X136932244Y-91137128D01*
X136855039Y-91064449D01*
X136768651Y-90980171D01*
X136740399Y-90952016D01*
X136448287Y-90659416D01*
X136670631Y-90333104D01*
X136738202Y-90232897D01*
X136797507Y-90142963D01*
X136845217Y-90068510D01*
X136878007Y-90014751D01*
X136892548Y-89986894D01*
X136892974Y-89984912D01*
X136885308Y-89958655D01*
X136864689Y-89905837D01*
X136834685Y-89835310D01*
X136813625Y-89788093D01*
X136774248Y-89697694D01*
X136737165Y-89606366D01*
X136708415Y-89529200D01*
X136700605Y-89505692D01*
X136678417Y-89442916D01*
X136656727Y-89394411D01*
X136644813Y-89376079D01*
X136618523Y-89364859D01*
X136561142Y-89348954D01*
X136480118Y-89330167D01*
X136382895Y-89310299D01*
X136339385Y-89302132D01*
X136228896Y-89281829D01*
X136122916Y-89262170D01*
X136031801Y-89245088D01*
X135965908Y-89232518D01*
X135953500Y-89230091D01*
X135850923Y-89209845D01*
X135850923Y-88782701D01*
X135851153Y-88642246D01*
X135852099Y-88535979D01*
X135854141Y-88459013D01*
X135857662Y-88406460D01*
X135863043Y-88373433D01*
X135870666Y-88355045D01*
X135880912Y-88346408D01*
X135885115Y-88344807D01*
X135910470Y-88339127D01*
X135966484Y-88327795D01*
X136045964Y-88312179D01*
X136141712Y-88293647D01*
X136246533Y-88273569D01*
X136353232Y-88253312D01*
X136454613Y-88234246D01*
X136543479Y-88217739D01*
X136612637Y-88205159D01*
X136654889Y-88197875D01*
X136664290Y-88196616D01*
X136672807Y-88179763D01*
X136691660Y-88134870D01*
X136717324Y-88070430D01*
X136727123Y-88045192D01*
X136766648Y-87947686D01*
X136813192Y-87839959D01*
X136854877Y-87749172D01*
X136885550Y-87679753D01*
X136905956Y-87622710D01*
X136912768Y-87587777D01*
X136911682Y-87583095D01*
X136897285Y-87560991D01*
X136864412Y-87511831D01*
X136816590Y-87440848D01*
X136757348Y-87353278D01*
X136690215Y-87254357D01*
X136676941Y-87234830D01*
X136599046Y-87119140D01*
X136541787Y-87031044D01*
X136502881Y-86966486D01*
X136480044Y-86921411D01*
X136470994Y-86891763D01*
X136473448Y-86873485D01*
X136473511Y-86873369D01*
X136492827Y-86849361D01*
X136535551Y-86802947D01*
X136597051Y-86738937D01*
X136672698Y-86662145D01*
X136757861Y-86577382D01*
X136767465Y-86567922D01*
X136874790Y-86463989D01*
X136957615Y-86387675D01*
X137017605Y-86337571D01*
X137056423Y-86312270D01*
X137073520Y-86309004D01*
X137098473Y-86323250D01*
X137150255Y-86356156D01*
X137223520Y-86404208D01*
X137312920Y-86463890D01*
X137413111Y-86531688D01*
X137436501Y-86547639D01*
X137768593Y-86774420D01*
X137918565Y-86706353D01*
X138009770Y-86666685D01*
X138107669Y-86626791D01*
X138191831Y-86594983D01*
X138195538Y-86593674D01*
X138261369Y-86569576D01*
X138312116Y-86549200D01*
X138336842Y-86536936D01*
X138336884Y-86536901D01*
X138344729Y-86514734D01*
X138358066Y-86460217D01*
X138375570Y-86379480D01*
X138395917Y-86278650D01*
X138417782Y-86163856D01*
X138419571Y-86154178D01*
X138441504Y-86035904D01*
X138461640Y-85928542D01*
X138478680Y-85838917D01*
X138491328Y-85773851D01*
X138498284Y-85740168D01*
X138498406Y-85739654D01*
X138502639Y-85725325D01*
X138510871Y-85714507D01*
X138528033Y-85706706D01*
X138559058Y-85701429D01*
X138608878Y-85698182D01*
X138682424Y-85696472D01*
X138784629Y-85695807D01*
X138920425Y-85695693D01*
X138938000Y-85695692D01*
X139077878Y-85695776D01*
G37*
X139077878Y-85695776D02*
X139183612Y-85696355D01*
X139260132Y-85697922D01*
X139312372Y-85700972D01*
X139345263Y-85705996D01*
X139363737Y-85713489D01*
X139372727Y-85723944D01*
X139377163Y-85737853D01*
X139377594Y-85739654D01*
X139384333Y-85772145D01*
X139396808Y-85836252D01*
X139413719Y-85925151D01*
X139433771Y-86032019D01*
X139455664Y-86150033D01*
X139456429Y-86154178D01*
X139478359Y-86269831D01*
X139498877Y-86372014D01*
X139516659Y-86454598D01*
X139530381Y-86511456D01*
X139538718Y-86536458D01*
X139539116Y-86536901D01*
X139563677Y-86549110D01*
X139614315Y-86569456D01*
X139680095Y-86593545D01*
X139680461Y-86593674D01*
X139763317Y-86624818D01*
X139861000Y-86664491D01*
X139953077Y-86704381D01*
X139957434Y-86706353D01*
X140107407Y-86774420D01*
X140439498Y-86547639D01*
X140541374Y-86478504D01*
X140633657Y-86416697D01*
X140711003Y-86365733D01*
X140768064Y-86329127D01*
X140799495Y-86310394D01*
X140802479Y-86309004D01*
X140825321Y-86315190D01*
X140867982Y-86345035D01*
X140932128Y-86399947D01*
X141019421Y-86481334D01*
X141108535Y-86567922D01*
X141194441Y-86653247D01*
X141271327Y-86731108D01*
X141334564Y-86796697D01*
X141379523Y-86845205D01*
X141401576Y-86871825D01*
X141402396Y-86873195D01*
X141404834Y-86891463D01*
X141395650Y-86921295D01*
X141372574Y-86966721D01*
X141333337Y-87031770D01*
X141275670Y-87120470D01*
X141198795Y-87234657D01*
X141130570Y-87335162D01*
X141069582Y-87425303D01*
X141019356Y-87499849D01*
X140983416Y-87553565D01*
X140965287Y-87581218D01*
X140964146Y-87583095D01*
X140966359Y-87609590D01*
X140983138Y-87661086D01*
X141011142Y-87727851D01*
X141021122Y-87749172D01*
X141064672Y-87844159D01*
X141111134Y-87951937D01*
X141148877Y-88045192D01*
X141176073Y-88114406D01*
X141197675Y-88167006D01*
X141210158Y-88194497D01*
X141211709Y-88196616D01*
X141234668Y-88200124D01*
X141288786Y-88209738D01*
X141366868Y-88224089D01*
X141461719Y-88241807D01*
X141566143Y-88261525D01*
X141672944Y-88281874D01*
X141774926Y-88301486D01*
X141864894Y-88318991D01*
X141935653Y-88333022D01*
X141980006Y-88342209D01*
X141990885Y-88344807D01*
X142002122Y-88351218D01*
X142010605Y-88365697D01*
X142016714Y-88393133D01*
X142020832Y-88438411D01*
X142023341Y-88506420D01*
X142024621Y-88602047D01*
X142025054Y-88730180D01*
X142025077Y-88782701D01*
X142025077Y-89209845D01*
X141922500Y-89230091D01*
X141865431Y-89241070D01*
X141780269Y-89257095D01*
X141677372Y-89276233D01*
X141567096Y-89296551D01*
X141536615Y-89302132D01*
X141434855Y-89321917D01*
X141346205Y-89341373D01*
X141278108Y-89358697D01*
X141238004Y-89372088D01*
X141231323Y-89376079D01*
X141214919Y-89404342D01*
X141191399Y-89459109D01*
X141165316Y-89529588D01*
X141160142Y-89544769D01*
X141125956Y-89638896D01*
X141083523Y-89745101D01*
X141041997Y-89840473D01*
X141041792Y-89840916D01*
X140972640Y-89990525D01*
X141427512Y-90659617D01*
X141135500Y-90952116D01*
X141047180Y-91039170D01*
X140966625Y-91115909D01*
X140898360Y-91178237D01*
X140846908Y-91222056D01*
X140816794Y-91243270D01*
X140812474Y-91244616D01*
X140787111Y-91234016D01*
X140735358Y-91204547D01*
X140662868Y-91159705D01*
X140575294Y-91102984D01*
X140480612Y-91039462D01*
X140384516Y-90974668D01*
X140298837Y-90918287D01*
X140229016Y-90873788D01*
X140180494Y-90844639D01*
X140158782Y-90834308D01*
X140132293Y-90843050D01*
X140082062Y-90866087D01*
X140018451Y-90898631D01*
X140011708Y-90902249D01*
X139926046Y-90945210D01*
X139867306Y-90966279D01*
X139830772Y-90966503D01*
X139811731Y-90946928D01*
X139811620Y-90946654D01*
X139802102Y-90923472D01*
X139779403Y-90868441D01*
X139745282Y-90785822D01*
X139701500Y-90679872D01*
X139649816Y-90554852D01*
X139591992Y-90415020D01*
X139535991Y-90279637D01*
X139474447Y-90130234D01*
X139417939Y-89991832D01*
X139368161Y-89868673D01*
X139326806Y-89765002D01*
X139295568Y-89685059D01*
X139276141Y-89633088D01*
X139270154Y-89613692D01*
X139285168Y-89591443D01*
X139324439Y-89555982D01*
X139376807Y-89516887D01*
X139525941Y-89393245D01*
X139642511Y-89251522D01*
X139725118Y-89094704D01*
X139772366Y-88925775D01*
X139782857Y-88747722D01*
X139775231Y-88665539D01*
X139733682Y-88495031D01*
X139662123Y-88344459D01*
X139564995Y-88215309D01*
X139446734Y-88109064D01*
X139311780Y-88027210D01*
X139164571Y-87971232D01*
X139009544Y-87942615D01*
X138851139Y-87942844D01*
X138693794Y-87973405D01*
X138541946Y-88035782D01*
X138400035Y-88131460D01*
X138340803Y-88185572D01*
X138227203Y-88324520D01*
X138148106Y-88476361D01*
X138102986Y-88636667D01*
X138091316Y-88801012D01*
X138112569Y-88964971D01*
X138166220Y-89124118D01*
X138251740Y-89274025D01*
X138368605Y-89410267D01*
X138499193Y-89516887D01*
X138553588Y-89557642D01*
X138592014Y-89592718D01*
X138605846Y-89613726D01*
X138598603Y-89636635D01*
X138578005Y-89691365D01*
X138545746Y-89773672D01*
X138503521Y-89879315D01*
X138453023Y-90004050D01*
X138395948Y-90143636D01*
X138339854Y-90279670D01*
X138277967Y-90429201D01*
X138220644Y-90567767D01*
X138169644Y-90691107D01*
X138126727Y-90794964D01*
X138093653Y-90875080D01*
X138072181Y-90927195D01*
X138064225Y-90946654D01*
X138045429Y-90966423D01*
X138009074Y-90966365D01*
X137950479Y-90945441D01*
X137864968Y-90902613D01*
X137864292Y-90902249D01*
X137799907Y-90869012D01*
X137747861Y-90844802D01*
X137718512Y-90834404D01*
X137717217Y-90834308D01*
X137695124Y-90844855D01*
X137646348Y-90874184D01*
X137576331Y-90918827D01*
X137490514Y-90975314D01*
X137395388Y-91039462D01*
X137298540Y-91104411D01*
X137211253Y-91160896D01*
X137139181Y-91205421D01*
X137087977Y-91234490D01*
X137063526Y-91244616D01*
X137041010Y-91231307D01*
X136995742Y-91194112D01*
X136932244Y-91137128D01*
X136855039Y-91064449D01*
X136768651Y-90980171D01*
X136740399Y-90952016D01*
X136448287Y-90659416D01*
X136670631Y-90333104D01*
X136738202Y-90232897D01*
X136797507Y-90142963D01*
X136845217Y-90068510D01*
X136878007Y-90014751D01*
X136892548Y-89986894D01*
X136892974Y-89984912D01*
X136885308Y-89958655D01*
X136864689Y-89905837D01*
X136834685Y-89835310D01*
X136813625Y-89788093D01*
X136774248Y-89697694D01*
X136737165Y-89606366D01*
X136708415Y-89529200D01*
X136700605Y-89505692D01*
X136678417Y-89442916D01*
X136656727Y-89394411D01*
X136644813Y-89376079D01*
X136618523Y-89364859D01*
X136561142Y-89348954D01*
X136480118Y-89330167D01*
X136382895Y-89310299D01*
X136339385Y-89302132D01*
X136228896Y-89281829D01*
X136122916Y-89262170D01*
X136031801Y-89245088D01*
X135965908Y-89232518D01*
X135953500Y-89230091D01*
X135850923Y-89209845D01*
X135850923Y-88782701D01*
X135851153Y-88642246D01*
X135852099Y-88535979D01*
X135854141Y-88459013D01*
X135857662Y-88406460D01*
X135863043Y-88373433D01*
X135870666Y-88355045D01*
X135880912Y-88346408D01*
X135885115Y-88344807D01*
X135910470Y-88339127D01*
X135966484Y-88327795D01*
X136045964Y-88312179D01*
X136141712Y-88293647D01*
X136246533Y-88273569D01*
X136353232Y-88253312D01*
X136454613Y-88234246D01*
X136543479Y-88217739D01*
X136612637Y-88205159D01*
X136654889Y-88197875D01*
X136664290Y-88196616D01*
X136672807Y-88179763D01*
X136691660Y-88134870D01*
X136717324Y-88070430D01*
X136727123Y-88045192D01*
X136766648Y-87947686D01*
X136813192Y-87839959D01*
X136854877Y-87749172D01*
X136885550Y-87679753D01*
X136905956Y-87622710D01*
X136912768Y-87587777D01*
X136911682Y-87583095D01*
X136897285Y-87560991D01*
X136864412Y-87511831D01*
X136816590Y-87440848D01*
X136757348Y-87353278D01*
X136690215Y-87254357D01*
X136676941Y-87234830D01*
X136599046Y-87119140D01*
X136541787Y-87031044D01*
X136502881Y-86966486D01*
X136480044Y-86921411D01*
X136470994Y-86891763D01*
X136473448Y-86873485D01*
X136473511Y-86873369D01*
X136492827Y-86849361D01*
X136535551Y-86802947D01*
X136597051Y-86738937D01*
X136672698Y-86662145D01*
X136757861Y-86577382D01*
X136767465Y-86567922D01*
X136874790Y-86463989D01*
X136957615Y-86387675D01*
X137017605Y-86337571D01*
X137056423Y-86312270D01*
X137073520Y-86309004D01*
X137098473Y-86323250D01*
X137150255Y-86356156D01*
X137223520Y-86404208D01*
X137312920Y-86463890D01*
X137413111Y-86531688D01*
X137436501Y-86547639D01*
X137768593Y-86774420D01*
X137918565Y-86706353D01*
X138009770Y-86666685D01*
X138107669Y-86626791D01*
X138191831Y-86594983D01*
X138195538Y-86593674D01*
X138261369Y-86569576D01*
X138312116Y-86549200D01*
X138336842Y-86536936D01*
X138336884Y-86536901D01*
X138344729Y-86514734D01*
X138358066Y-86460217D01*
X138375570Y-86379480D01*
X138395917Y-86278650D01*
X138417782Y-86163856D01*
X138419571Y-86154178D01*
X138441504Y-86035904D01*
X138461640Y-85928542D01*
X138478680Y-85838917D01*
X138491328Y-85773851D01*
X138498284Y-85740168D01*
X138498406Y-85739654D01*
X138502639Y-85725325D01*
X138510871Y-85714507D01*
X138528033Y-85706706D01*
X138559058Y-85701429D01*
X138608878Y-85698182D01*
X138682424Y-85696472D01*
X138784629Y-85695807D01*
X138920425Y-85695693D01*
X138938000Y-85695692D01*
X139077878Y-85695776D01*
G36*
X143183224Y-92055838D02*
G01*
X143260528Y-92106361D01*
X143297814Y-92151590D01*
X143327353Y-92233663D01*
X143329699Y-92298607D01*
X143324385Y-92385445D01*
X143124115Y-92473103D01*
X143026739Y-92517887D01*
X142963113Y-92553913D01*
X142930029Y-92585117D01*
X142924280Y-92615436D01*
X142942658Y-92648805D01*
X142962923Y-92670923D01*
X143021889Y-92706393D01*
X143086024Y-92708879D01*
X143144926Y-92681235D01*
X143188197Y-92626320D01*
X143195936Y-92606928D01*
X143233006Y-92546364D01*
X143275654Y-92520552D01*
X143334154Y-92498471D01*
X143334154Y-92582184D01*
X143328982Y-92639150D01*
X143308723Y-92687189D01*
X143266262Y-92742346D01*
X143259951Y-92749514D01*
X143212720Y-92798585D01*
X143172121Y-92824920D01*
X143121328Y-92837035D01*
X143079220Y-92841003D01*
X143003902Y-92841991D01*
X142950286Y-92829466D01*
X142916838Y-92810869D01*
X142864268Y-92769975D01*
X142827879Y-92725748D01*
X142804850Y-92670126D01*
X142792359Y-92595047D01*
X142787587Y-92492449D01*
X142787206Y-92440376D01*
X142788501Y-92377948D01*
X142906471Y-92377948D01*
X142907839Y-92411438D01*
X142911249Y-92416923D01*
X142933753Y-92409472D01*
X142982182Y-92389753D01*
X143046908Y-92361718D01*
X143060443Y-92355692D01*
X143142244Y-92314096D01*
X143187312Y-92277538D01*
X143197217Y-92243296D01*
X143173526Y-92208648D01*
X143153960Y-92193339D01*
X143083360Y-92162721D01*
X143017280Y-92167780D01*
X142961959Y-92205151D01*
X142923636Y-92271473D01*
X142911349Y-92324116D01*
X142906471Y-92377948D01*
X142788501Y-92377948D01*
X142789730Y-92318720D01*
X142799032Y-92228710D01*
X142817460Y-92163167D01*
X142847360Y-92114912D01*
X142891080Y-92076767D01*
X142910141Y-92064440D01*
X142996726Y-92032336D01*
X143091522Y-92030316D01*
X143183224Y-92055838D01*
G37*
X143183224Y-92055838D02*
X143260528Y-92106361D01*
X143297814Y-92151590D01*
X143327353Y-92233663D01*
X143329699Y-92298607D01*
X143324385Y-92385445D01*
X143124115Y-92473103D01*
X143026739Y-92517887D01*
X142963113Y-92553913D01*
X142930029Y-92585117D01*
X142924280Y-92615436D01*
X142942658Y-92648805D01*
X142962923Y-92670923D01*
X143021889Y-92706393D01*
X143086024Y-92708879D01*
X143144926Y-92681235D01*
X143188197Y-92626320D01*
X143195936Y-92606928D01*
X143233006Y-92546364D01*
X143275654Y-92520552D01*
X143334154Y-92498471D01*
X143334154Y-92582184D01*
X143328982Y-92639150D01*
X143308723Y-92687189D01*
X143266262Y-92742346D01*
X143259951Y-92749514D01*
X143212720Y-92798585D01*
X143172121Y-92824920D01*
X143121328Y-92837035D01*
X143079220Y-92841003D01*
X143003902Y-92841991D01*
X142950286Y-92829466D01*
X142916838Y-92810869D01*
X142864268Y-92769975D01*
X142827879Y-92725748D01*
X142804850Y-92670126D01*
X142792359Y-92595047D01*
X142787587Y-92492449D01*
X142787206Y-92440376D01*
X142788501Y-92377948D01*
X142906471Y-92377948D01*
X142907839Y-92411438D01*
X142911249Y-92416923D01*
X142933753Y-92409472D01*
X142982182Y-92389753D01*
X143046908Y-92361718D01*
X143060443Y-92355692D01*
X143142244Y-92314096D01*
X143187312Y-92277538D01*
X143197217Y-92243296D01*
X143173526Y-92208648D01*
X143153960Y-92193339D01*
X143083360Y-92162721D01*
X143017280Y-92167780D01*
X142961959Y-92205151D01*
X142923636Y-92271473D01*
X142911349Y-92324116D01*
X142906471Y-92377948D01*
X142788501Y-92377948D01*
X142789730Y-92318720D01*
X142799032Y-92228710D01*
X142817460Y-92163167D01*
X142847360Y-92114912D01*
X142891080Y-92076767D01*
X142910141Y-92064440D01*
X142996726Y-92032336D01*
X143091522Y-92030316D01*
X143183224Y-92055838D01*
G36*
X142508807Y-92044782D02*
G01*
X142532161Y-92054988D01*
X142587902Y-92099134D01*
X142635569Y-92162967D01*
X142665048Y-92231087D01*
X142669846Y-92264670D01*
X142653760Y-92311556D01*
X142618475Y-92336365D01*
X142580644Y-92351387D01*
X142563321Y-92354155D01*
X142554886Y-92334066D01*
X142538230Y-92290351D01*
X142530923Y-92270598D01*
X142489948Y-92202271D01*
X142430622Y-92168191D01*
X142354552Y-92169239D01*
X142348918Y-92170581D01*
X142308305Y-92189836D01*
X142278448Y-92227375D01*
X142258055Y-92287809D01*
X142245836Y-92375751D01*
X142240500Y-92495813D01*
X142240000Y-92559698D01*
X142239752Y-92660403D01*
X142238126Y-92729054D01*
X142233801Y-92772673D01*
X142225454Y-92798282D01*
X142211765Y-92812903D01*
X142191411Y-92823558D01*
X142190234Y-92824095D01*
X142151038Y-92840667D01*
X142131619Y-92846769D01*
X142128635Y-92828319D01*
X142126081Y-92777323D01*
X142124140Y-92700308D01*
X142122997Y-92603805D01*
X142122769Y-92533184D01*
X142123932Y-92396525D01*
X142128479Y-92292851D01*
X142137999Y-92216108D01*
X142154081Y-92160246D01*
X142178313Y-92119212D01*
X142212286Y-92086954D01*
X142245833Y-92064440D01*
X142326499Y-92034476D01*
X142420381Y-92027718D01*
X142508807Y-92044782D01*
G37*
X142508807Y-92044782D02*
X142532161Y-92054988D01*
X142587902Y-92099134D01*
X142635569Y-92162967D01*
X142665048Y-92231087D01*
X142669846Y-92264670D01*
X142653760Y-92311556D01*
X142618475Y-92336365D01*
X142580644Y-92351387D01*
X142563321Y-92354155D01*
X142554886Y-92334066D01*
X142538230Y-92290351D01*
X142530923Y-92270598D01*
X142489948Y-92202271D01*
X142430622Y-92168191D01*
X142354552Y-92169239D01*
X142348918Y-92170581D01*
X142308305Y-92189836D01*
X142278448Y-92227375D01*
X142258055Y-92287809D01*
X142245836Y-92375751D01*
X142240500Y-92495813D01*
X142240000Y-92559698D01*
X142239752Y-92660403D01*
X142238126Y-92729054D01*
X142233801Y-92772673D01*
X142225454Y-92798282D01*
X142211765Y-92812903D01*
X142191411Y-92823558D01*
X142190234Y-92824095D01*
X142151038Y-92840667D01*
X142131619Y-92846769D01*
X142128635Y-92828319D01*
X142126081Y-92777323D01*
X142124140Y-92700308D01*
X142122997Y-92603805D01*
X142122769Y-92533184D01*
X142123932Y-92396525D01*
X142128479Y-92292851D01*
X142137999Y-92216108D01*
X142154081Y-92160246D01*
X142178313Y-92119212D01*
X142212286Y-92086954D01*
X142245833Y-92064440D01*
X142326499Y-92034476D01*
X142420381Y-92027718D01*
X142508807Y-92044782D01*
G36*
X141825333Y-92041528D02*
G01*
X141881590Y-92067117D01*
X141925747Y-92098124D01*
X141958101Y-92132795D01*
X141980438Y-92177520D01*
X141994546Y-92238692D01*
X142002211Y-92322701D01*
X142005220Y-92435940D01*
X142005538Y-92510509D01*
X142005538Y-92801420D01*
X141955773Y-92824095D01*
X141916576Y-92840667D01*
X141897157Y-92846769D01*
X141893442Y-92828610D01*
X141890495Y-92779648D01*
X141888691Y-92708153D01*
X141888308Y-92651385D01*
X141886661Y-92569371D01*
X141882222Y-92504309D01*
X141875740Y-92464467D01*
X141870590Y-92456000D01*
X141835977Y-92464646D01*
X141781640Y-92486823D01*
X141718722Y-92516886D01*
X141658368Y-92549192D01*
X141611721Y-92578098D01*
X141589926Y-92597961D01*
X141589839Y-92598175D01*
X141591714Y-92634935D01*
X141608525Y-92670026D01*
X141638039Y-92698528D01*
X141681116Y-92708061D01*
X141717932Y-92706950D01*
X141770074Y-92706133D01*
X141797444Y-92718349D01*
X141813882Y-92750624D01*
X141815955Y-92756710D01*
X141823081Y-92802739D01*
X141804024Y-92830687D01*
X141754353Y-92844007D01*
X141700697Y-92846470D01*
X141604142Y-92828210D01*
X141554159Y-92802131D01*
X141492429Y-92740868D01*
X141459690Y-92665670D01*
X141456753Y-92586211D01*
X141484424Y-92512167D01*
X141526047Y-92465769D01*
X141567604Y-92439793D01*
X141632922Y-92406907D01*
X141709038Y-92373557D01*
X141721726Y-92368461D01*
X141805333Y-92331565D01*
X141853530Y-92299046D01*
X141869030Y-92266718D01*
X141854550Y-92230394D01*
X141829692Y-92202000D01*
X141770939Y-92167039D01*
X141706293Y-92164417D01*
X141647008Y-92191358D01*
X141604339Y-92245088D01*
X141598739Y-92258950D01*
X141566133Y-92309936D01*
X141518530Y-92347787D01*
X141458461Y-92378850D01*
X141458461Y-92290768D01*
X141461997Y-92236951D01*
X141477156Y-92194534D01*
X141510768Y-92149279D01*
X141543035Y-92114420D01*
X141593209Y-92065062D01*
X141632193Y-92038547D01*
X141674064Y-92027911D01*
X141721460Y-92026154D01*
X141825333Y-92041528D01*
G37*
X141825333Y-92041528D02*
X141881590Y-92067117D01*
X141925747Y-92098124D01*
X141958101Y-92132795D01*
X141980438Y-92177520D01*
X141994546Y-92238692D01*
X142002211Y-92322701D01*
X142005220Y-92435940D01*
X142005538Y-92510509D01*
X142005538Y-92801420D01*
X141955773Y-92824095D01*
X141916576Y-92840667D01*
X141897157Y-92846769D01*
X141893442Y-92828610D01*
X141890495Y-92779648D01*
X141888691Y-92708153D01*
X141888308Y-92651385D01*
X141886661Y-92569371D01*
X141882222Y-92504309D01*
X141875740Y-92464467D01*
X141870590Y-92456000D01*
X141835977Y-92464646D01*
X141781640Y-92486823D01*
X141718722Y-92516886D01*
X141658368Y-92549192D01*
X141611721Y-92578098D01*
X141589926Y-92597961D01*
X141589839Y-92598175D01*
X141591714Y-92634935D01*
X141608525Y-92670026D01*
X141638039Y-92698528D01*
X141681116Y-92708061D01*
X141717932Y-92706950D01*
X141770074Y-92706133D01*
X141797444Y-92718349D01*
X141813882Y-92750624D01*
X141815955Y-92756710D01*
X141823081Y-92802739D01*
X141804024Y-92830687D01*
X141754353Y-92844007D01*
X141700697Y-92846470D01*
X141604142Y-92828210D01*
X141554159Y-92802131D01*
X141492429Y-92740868D01*
X141459690Y-92665670D01*
X141456753Y-92586211D01*
X141484424Y-92512167D01*
X141526047Y-92465769D01*
X141567604Y-92439793D01*
X141632922Y-92406907D01*
X141709038Y-92373557D01*
X141721726Y-92368461D01*
X141805333Y-92331565D01*
X141853530Y-92299046D01*
X141869030Y-92266718D01*
X141854550Y-92230394D01*
X141829692Y-92202000D01*
X141770939Y-92167039D01*
X141706293Y-92164417D01*
X141647008Y-92191358D01*
X141604339Y-92245088D01*
X141598739Y-92258950D01*
X141566133Y-92309936D01*
X141518530Y-92347787D01*
X141458461Y-92378850D01*
X141458461Y-92290768D01*
X141461997Y-92236951D01*
X141477156Y-92194534D01*
X141510768Y-92149279D01*
X141543035Y-92114420D01*
X141593209Y-92065062D01*
X141632193Y-92038547D01*
X141674064Y-92027911D01*
X141721460Y-92026154D01*
X141825333Y-92041528D01*
G36*
X141333929Y-92044662D02*
G01*
X141336911Y-92096068D01*
X141339247Y-92174192D01*
X141340749Y-92272857D01*
X141341231Y-92376343D01*
X141341231Y-92726533D01*
X141279401Y-92788363D01*
X141236793Y-92826462D01*
X141199390Y-92841895D01*
X141148270Y-92840918D01*
X141127978Y-92838433D01*
X141064554Y-92831200D01*
X141012095Y-92827055D01*
X140999308Y-92826672D01*
X140956199Y-92829176D01*
X140894544Y-92835462D01*
X140870638Y-92838433D01*
X140811922Y-92843028D01*
X140772464Y-92833046D01*
X140733338Y-92802228D01*
X140719215Y-92788363D01*
X140657385Y-92726533D01*
X140657385Y-92071503D01*
X140707150Y-92048829D01*
X140750002Y-92032034D01*
X140775073Y-92026154D01*
X140781501Y-92044736D01*
X140787509Y-92096655D01*
X140792697Y-92176172D01*
X140796664Y-92277546D01*
X140798577Y-92363192D01*
X140803923Y-92700231D01*
X140850560Y-92706825D01*
X140892976Y-92702214D01*
X140913760Y-92687287D01*
X140919570Y-92659377D01*
X140924530Y-92599925D01*
X140928246Y-92516466D01*
X140930324Y-92416532D01*
X140930624Y-92365104D01*
X140930923Y-92069054D01*
X140992454Y-92047604D01*
X141036004Y-92033020D01*
X141059694Y-92026219D01*
X141060377Y-92026154D01*
X141062754Y-92044642D01*
X141065366Y-92095906D01*
X141067995Y-92173649D01*
X141070421Y-92271574D01*
X141072115Y-92363192D01*
X141077461Y-92700231D01*
X141194692Y-92700231D01*
X141200072Y-92392746D01*
X141205451Y-92085261D01*
X141262601Y-92055707D01*
X141304797Y-92035413D01*
X141329770Y-92026204D01*
X141330491Y-92026154D01*
X141333929Y-92044662D01*
G37*
X141333929Y-92044662D02*
X141336911Y-92096068D01*
X141339247Y-92174192D01*
X141340749Y-92272857D01*
X141341231Y-92376343D01*
X141341231Y-92726533D01*
X141279401Y-92788363D01*
X141236793Y-92826462D01*
X141199390Y-92841895D01*
X141148270Y-92840918D01*
X141127978Y-92838433D01*
X141064554Y-92831200D01*
X141012095Y-92827055D01*
X140999308Y-92826672D01*
X140956199Y-92829176D01*
X140894544Y-92835462D01*
X140870638Y-92838433D01*
X140811922Y-92843028D01*
X140772464Y-92833046D01*
X140733338Y-92802228D01*
X140719215Y-92788363D01*
X140657385Y-92726533D01*
X140657385Y-92071503D01*
X140707150Y-92048829D01*
X140750002Y-92032034D01*
X140775073Y-92026154D01*
X140781501Y-92044736D01*
X140787509Y-92096655D01*
X140792697Y-92176172D01*
X140796664Y-92277546D01*
X140798577Y-92363192D01*
X140803923Y-92700231D01*
X140850560Y-92706825D01*
X140892976Y-92702214D01*
X140913760Y-92687287D01*
X140919570Y-92659377D01*
X140924530Y-92599925D01*
X140928246Y-92516466D01*
X140930324Y-92416532D01*
X140930624Y-92365104D01*
X140930923Y-92069054D01*
X140992454Y-92047604D01*
X141036004Y-92033020D01*
X141059694Y-92026219D01*
X141060377Y-92026154D01*
X141062754Y-92044642D01*
X141065366Y-92095906D01*
X141067995Y-92173649D01*
X141070421Y-92271574D01*
X141072115Y-92363192D01*
X141077461Y-92700231D01*
X141194692Y-92700231D01*
X141200072Y-92392746D01*
X141205451Y-92085261D01*
X141262601Y-92055707D01*
X141304797Y-92035413D01*
X141329770Y-92026204D01*
X141330491Y-92026154D01*
X141333929Y-92044662D01*
G36*
X140540081Y-92188289D02*
G01*
X140539833Y-92334320D01*
X140538872Y-92446655D01*
X140536794Y-92530678D01*
X140533193Y-92591769D01*
X140527665Y-92635309D01*
X140519804Y-92666679D01*
X140509207Y-92691262D01*
X140501182Y-92705294D01*
X140434728Y-92781388D01*
X140350470Y-92829084D01*
X140257249Y-92846199D01*
X140163900Y-92830546D01*
X140108312Y-92802418D01*
X140049957Y-92753760D01*
X140010186Y-92694333D01*
X139986190Y-92616507D01*
X139975161Y-92512652D01*
X139973599Y-92436462D01*
X139973809Y-92430986D01*
X140110308Y-92430986D01*
X140111141Y-92518355D01*
X140114961Y-92576192D01*
X140123746Y-92614029D01*
X140139474Y-92641398D01*
X140158266Y-92662042D01*
X140221375Y-92701890D01*
X140289137Y-92705295D01*
X140353179Y-92672025D01*
X140358164Y-92667517D01*
X140379439Y-92644067D01*
X140392779Y-92616166D01*
X140400001Y-92574641D01*
X140402923Y-92510316D01*
X140403385Y-92439200D01*
X140402383Y-92349858D01*
X140398238Y-92290258D01*
X140389236Y-92251089D01*
X140373667Y-92223040D01*
X140360902Y-92208144D01*
X140301600Y-92170575D01*
X140233301Y-92166057D01*
X140168110Y-92194753D01*
X140155528Y-92205406D01*
X140134111Y-92229063D01*
X140120744Y-92257251D01*
X140113566Y-92299245D01*
X140110719Y-92364319D01*
X140110308Y-92430986D01*
X139973809Y-92430986D01*
X139978322Y-92313765D01*
X139994362Y-92221577D01*
X140024528Y-92152269D01*
X140071629Y-92098211D01*
X140108312Y-92070505D01*
X140174990Y-92040572D01*
X140252272Y-92026678D01*
X140324110Y-92030397D01*
X140364308Y-92045400D01*
X140380082Y-92049670D01*
X140390550Y-92033750D01*
X140397856Y-91991089D01*
X140403385Y-91926106D01*
X140409437Y-91853732D01*
X140417844Y-91810187D01*
X140433141Y-91785287D01*
X140459864Y-91768845D01*
X140476654Y-91761564D01*
X140540154Y-91734963D01*
X140540081Y-92188289D01*
G37*
X140540081Y-92188289D02*
X140539833Y-92334320D01*
X140538872Y-92446655D01*
X140536794Y-92530678D01*
X140533193Y-92591769D01*
X140527665Y-92635309D01*
X140519804Y-92666679D01*
X140509207Y-92691262D01*
X140501182Y-92705294D01*
X140434728Y-92781388D01*
X140350470Y-92829084D01*
X140257249Y-92846199D01*
X140163900Y-92830546D01*
X140108312Y-92802418D01*
X140049957Y-92753760D01*
X140010186Y-92694333D01*
X139986190Y-92616507D01*
X139975161Y-92512652D01*
X139973599Y-92436462D01*
X139973809Y-92430986D01*
X140110308Y-92430986D01*
X140111141Y-92518355D01*
X140114961Y-92576192D01*
X140123746Y-92614029D01*
X140139474Y-92641398D01*
X140158266Y-92662042D01*
X140221375Y-92701890D01*
X140289137Y-92705295D01*
X140353179Y-92672025D01*
X140358164Y-92667517D01*
X140379439Y-92644067D01*
X140392779Y-92616166D01*
X140400001Y-92574641D01*
X140402923Y-92510316D01*
X140403385Y-92439200D01*
X140402383Y-92349858D01*
X140398238Y-92290258D01*
X140389236Y-92251089D01*
X140373667Y-92223040D01*
X140360902Y-92208144D01*
X140301600Y-92170575D01*
X140233301Y-92166057D01*
X140168110Y-92194753D01*
X140155528Y-92205406D01*
X140134111Y-92229063D01*
X140120744Y-92257251D01*
X140113566Y-92299245D01*
X140110719Y-92364319D01*
X140110308Y-92430986D01*
X139973809Y-92430986D01*
X139978322Y-92313765D01*
X139994362Y-92221577D01*
X140024528Y-92152269D01*
X140071629Y-92098211D01*
X140108312Y-92070505D01*
X140174990Y-92040572D01*
X140252272Y-92026678D01*
X140324110Y-92030397D01*
X140364308Y-92045400D01*
X140380082Y-92049670D01*
X140390550Y-92033750D01*
X140397856Y-91991089D01*
X140403385Y-91926106D01*
X140409437Y-91853732D01*
X140417844Y-91810187D01*
X140433141Y-91785287D01*
X140459864Y-91768845D01*
X140476654Y-91761564D01*
X140540154Y-91734963D01*
X140540081Y-92188289D01*
G36*
X139651362Y-92032670D02*
G01*
X139740117Y-92065421D01*
X139812022Y-92123350D01*
X139840144Y-92164128D01*
X139870802Y-92238954D01*
X139870165Y-92293058D01*
X139837987Y-92329446D01*
X139826081Y-92335633D01*
X139774675Y-92354925D01*
X139748422Y-92349982D01*
X139739530Y-92317587D01*
X139739077Y-92299692D01*
X139722797Y-92233859D01*
X139680365Y-92187807D01*
X139621388Y-92165564D01*
X139555475Y-92171161D01*
X139501895Y-92200229D01*
X139483798Y-92216810D01*
X139470971Y-92236925D01*
X139462306Y-92267332D01*
X139456696Y-92314788D01*
X139453035Y-92386050D01*
X139450215Y-92487875D01*
X139449484Y-92520115D01*
X139446820Y-92630410D01*
X139443792Y-92708036D01*
X139439250Y-92759396D01*
X139432046Y-92790890D01*
X139421033Y-92808920D01*
X139405060Y-92819888D01*
X139394834Y-92824733D01*
X139351406Y-92841301D01*
X139325842Y-92846769D01*
X139317395Y-92828507D01*
X139312239Y-92773296D01*
X139310346Y-92680499D01*
X139311689Y-92549478D01*
X139312107Y-92529269D01*
X139315058Y-92409733D01*
X139318548Y-92322449D01*
X139323514Y-92260591D01*
X139330893Y-92217336D01*
X139341624Y-92185860D01*
X139356645Y-92159339D01*
X139364502Y-92147975D01*
X139409553Y-92097692D01*
X139459940Y-92058581D01*
X139466108Y-92055167D01*
X139556458Y-92028212D01*
X139651362Y-92032670D01*
G37*
X139651362Y-92032670D02*
X139740117Y-92065421D01*
X139812022Y-92123350D01*
X139840144Y-92164128D01*
X139870802Y-92238954D01*
X139870165Y-92293058D01*
X139837987Y-92329446D01*
X139826081Y-92335633D01*
X139774675Y-92354925D01*
X139748422Y-92349982D01*
X139739530Y-92317587D01*
X139739077Y-92299692D01*
X139722797Y-92233859D01*
X139680365Y-92187807D01*
X139621388Y-92165564D01*
X139555475Y-92171161D01*
X139501895Y-92200229D01*
X139483798Y-92216810D01*
X139470971Y-92236925D01*
X139462306Y-92267332D01*
X139456696Y-92314788D01*
X139453035Y-92386050D01*
X139450215Y-92487875D01*
X139449484Y-92520115D01*
X139446820Y-92630410D01*
X139443792Y-92708036D01*
X139439250Y-92759396D01*
X139432046Y-92790890D01*
X139421033Y-92808920D01*
X139405060Y-92819888D01*
X139394834Y-92824733D01*
X139351406Y-92841301D01*
X139325842Y-92846769D01*
X139317395Y-92828507D01*
X139312239Y-92773296D01*
X139310346Y-92680499D01*
X139311689Y-92549478D01*
X139312107Y-92529269D01*
X139315058Y-92409733D01*
X139318548Y-92322449D01*
X139323514Y-92260591D01*
X139330893Y-92217336D01*
X139341624Y-92185860D01*
X139356645Y-92159339D01*
X139364502Y-92147975D01*
X139409553Y-92097692D01*
X139459940Y-92058581D01*
X139466108Y-92055167D01*
X139556458Y-92028212D01*
X139651362Y-92032670D01*
G36*
X138991501Y-92034303D02*
G01*
X139068060Y-92062733D01*
X139068936Y-92063279D01*
X139116285Y-92098127D01*
X139151241Y-92138852D01*
X139175825Y-92191925D01*
X139192062Y-92263814D01*
X139201975Y-92360992D01*
X139207586Y-92489928D01*
X139208077Y-92508298D01*
X139215141Y-92785287D01*
X139155695Y-92816028D01*
X139112681Y-92836802D01*
X139086710Y-92846646D01*
X139085509Y-92846769D01*
X139081014Y-92828606D01*
X139077444Y-92779612D01*
X139075248Y-92708031D01*
X139074769Y-92650068D01*
X139074758Y-92556170D01*
X139070466Y-92497203D01*
X139055503Y-92469079D01*
X139023482Y-92467706D01*
X138968014Y-92488998D01*
X138884269Y-92528136D01*
X138822689Y-92560643D01*
X138791017Y-92588845D01*
X138781706Y-92619582D01*
X138781692Y-92621104D01*
X138797057Y-92674054D01*
X138842547Y-92702660D01*
X138912166Y-92706803D01*
X138962313Y-92706084D01*
X138988754Y-92720527D01*
X139005243Y-92755218D01*
X139014733Y-92799416D01*
X139001057Y-92824493D01*
X138995907Y-92828082D01*
X138947425Y-92842496D01*
X138879531Y-92844537D01*
X138809612Y-92834983D01*
X138760068Y-92817522D01*
X138691570Y-92759364D01*
X138652634Y-92678408D01*
X138644923Y-92615160D01*
X138650807Y-92558111D01*
X138672101Y-92511542D01*
X138714265Y-92470181D01*
X138782759Y-92428755D01*
X138883044Y-92381993D01*
X138889154Y-92379350D01*
X138979490Y-92337617D01*
X139035235Y-92303391D01*
X139059129Y-92272635D01*
X139053913Y-92241311D01*
X139022328Y-92205383D01*
X139012883Y-92197116D01*
X138949617Y-92165058D01*
X138884064Y-92166407D01*
X138826972Y-92197838D01*
X138789093Y-92256024D01*
X138785574Y-92267446D01*
X138751300Y-92322837D01*
X138707809Y-92349518D01*
X138644923Y-92375960D01*
X138644923Y-92307548D01*
X138664052Y-92208110D01*
X138720831Y-92116902D01*
X138750378Y-92086389D01*
X138817542Y-92047228D01*
X138902956Y-92029500D01*
X138991501Y-92034303D01*
G37*
X138991501Y-92034303D02*
X139068060Y-92062733D01*
X139068936Y-92063279D01*
X139116285Y-92098127D01*
X139151241Y-92138852D01*
X139175825Y-92191925D01*
X139192062Y-92263814D01*
X139201975Y-92360992D01*
X139207586Y-92489928D01*
X139208077Y-92508298D01*
X139215141Y-92785287D01*
X139155695Y-92816028D01*
X139112681Y-92836802D01*
X139086710Y-92846646D01*
X139085509Y-92846769D01*
X139081014Y-92828606D01*
X139077444Y-92779612D01*
X139075248Y-92708031D01*
X139074769Y-92650068D01*
X139074758Y-92556170D01*
X139070466Y-92497203D01*
X139055503Y-92469079D01*
X139023482Y-92467706D01*
X138968014Y-92488998D01*
X138884269Y-92528136D01*
X138822689Y-92560643D01*
X138791017Y-92588845D01*
X138781706Y-92619582D01*
X138781692Y-92621104D01*
X138797057Y-92674054D01*
X138842547Y-92702660D01*
X138912166Y-92706803D01*
X138962313Y-92706084D01*
X138988754Y-92720527D01*
X139005243Y-92755218D01*
X139014733Y-92799416D01*
X139001057Y-92824493D01*
X138995907Y-92828082D01*
X138947425Y-92842496D01*
X138879531Y-92844537D01*
X138809612Y-92834983D01*
X138760068Y-92817522D01*
X138691570Y-92759364D01*
X138652634Y-92678408D01*
X138644923Y-92615160D01*
X138650807Y-92558111D01*
X138672101Y-92511542D01*
X138714265Y-92470181D01*
X138782759Y-92428755D01*
X138883044Y-92381993D01*
X138889154Y-92379350D01*
X138979490Y-92337617D01*
X139035235Y-92303391D01*
X139059129Y-92272635D01*
X139053913Y-92241311D01*
X139022328Y-92205383D01*
X139012883Y-92197116D01*
X138949617Y-92165058D01*
X138884064Y-92166407D01*
X138826972Y-92197838D01*
X138789093Y-92256024D01*
X138785574Y-92267446D01*
X138751300Y-92322837D01*
X138707809Y-92349518D01*
X138644923Y-92375960D01*
X138644923Y-92307548D01*
X138664052Y-92208110D01*
X138720831Y-92116902D01*
X138750378Y-92086389D01*
X138817542Y-92047228D01*
X138902956Y-92029500D01*
X138991501Y-92034303D01*
G36*
X138097846Y-91900120D02*
G01*
X138103572Y-91979980D01*
X138110149Y-92027039D01*
X138119262Y-92047566D01*
X138132598Y-92047829D01*
X138136923Y-92045378D01*
X138194444Y-92027636D01*
X138269268Y-92028672D01*
X138345339Y-92046910D01*
X138392918Y-92070505D01*
X138441702Y-92108198D01*
X138477364Y-92150855D01*
X138501845Y-92205057D01*
X138517087Y-92277384D01*
X138525030Y-92374419D01*
X138527616Y-92502742D01*
X138527662Y-92527358D01*
X138527692Y-92803870D01*
X138466161Y-92825320D01*
X138422459Y-92839912D01*
X138398482Y-92846706D01*
X138397777Y-92846769D01*
X138395415Y-92828345D01*
X138393406Y-92777526D01*
X138391901Y-92700993D01*
X138391053Y-92605430D01*
X138390923Y-92547329D01*
X138390651Y-92432771D01*
X138389252Y-92350667D01*
X138385849Y-92294393D01*
X138379567Y-92257326D01*
X138369529Y-92232844D01*
X138354861Y-92214325D01*
X138345702Y-92205406D01*
X138282789Y-92169466D01*
X138214136Y-92166775D01*
X138151848Y-92197170D01*
X138140329Y-92208144D01*
X138123433Y-92228779D01*
X138111714Y-92253256D01*
X138104233Y-92288647D01*
X138100054Y-92342026D01*
X138098237Y-92420466D01*
X138097846Y-92528617D01*
X138097846Y-92803870D01*
X138036315Y-92825320D01*
X137992613Y-92839912D01*
X137968636Y-92846706D01*
X137967930Y-92846769D01*
X137966126Y-92828069D01*
X137964500Y-92775322D01*
X137963117Y-92693557D01*
X137962042Y-92587805D01*
X137961340Y-92463094D01*
X137961077Y-92324455D01*
X137961077Y-91789806D01*
X138088077Y-91736236D01*
X138097846Y-91900120D01*
G37*
X138097846Y-91900120D02*
X138103572Y-91979980D01*
X138110149Y-92027039D01*
X138119262Y-92047566D01*
X138132598Y-92047829D01*
X138136923Y-92045378D01*
X138194444Y-92027636D01*
X138269268Y-92028672D01*
X138345339Y-92046910D01*
X138392918Y-92070505D01*
X138441702Y-92108198D01*
X138477364Y-92150855D01*
X138501845Y-92205057D01*
X138517087Y-92277384D01*
X138525030Y-92374419D01*
X138527616Y-92502742D01*
X138527662Y-92527358D01*
X138527692Y-92803870D01*
X138466161Y-92825320D01*
X138422459Y-92839912D01*
X138398482Y-92846706D01*
X138397777Y-92846769D01*
X138395415Y-92828345D01*
X138393406Y-92777526D01*
X138391901Y-92700993D01*
X138391053Y-92605430D01*
X138390923Y-92547329D01*
X138390651Y-92432771D01*
X138389252Y-92350667D01*
X138385849Y-92294393D01*
X138379567Y-92257326D01*
X138369529Y-92232844D01*
X138354861Y-92214325D01*
X138345702Y-92205406D01*
X138282789Y-92169466D01*
X138214136Y-92166775D01*
X138151848Y-92197170D01*
X138140329Y-92208144D01*
X138123433Y-92228779D01*
X138111714Y-92253256D01*
X138104233Y-92288647D01*
X138100054Y-92342026D01*
X138098237Y-92420466D01*
X138097846Y-92528617D01*
X138097846Y-92803870D01*
X138036315Y-92825320D01*
X137992613Y-92839912D01*
X137968636Y-92846706D01*
X137967930Y-92846769D01*
X137966126Y-92828069D01*
X137964500Y-92775322D01*
X137963117Y-92693557D01*
X137962042Y-92587805D01*
X137961340Y-92463094D01*
X137961077Y-92324455D01*
X137961077Y-91789806D01*
X138088077Y-91736236D01*
X138097846Y-91900120D01*
G36*
X136472254Y-92007745D02*
G01*
X136549286Y-92059567D01*
X136608816Y-92134412D01*
X136644378Y-92229654D01*
X136651571Y-92299756D01*
X136650754Y-92329009D01*
X136643914Y-92351407D01*
X136625112Y-92371474D01*
X136588408Y-92393733D01*
X136527862Y-92422709D01*
X136437534Y-92462927D01*
X136437077Y-92463129D01*
X136353933Y-92501210D01*
X136285753Y-92535025D01*
X136239505Y-92560933D01*
X136222158Y-92575295D01*
X136222154Y-92575411D01*
X136237443Y-92606685D01*
X136273196Y-92641157D01*
X136314242Y-92665990D01*
X136335037Y-92670923D01*
X136391770Y-92653862D01*
X136440627Y-92611133D01*
X136464465Y-92564155D01*
X136487397Y-92529522D01*
X136532318Y-92490081D01*
X136585123Y-92456009D01*
X136631710Y-92437480D01*
X136641452Y-92436462D01*
X136652418Y-92453215D01*
X136653079Y-92496039D01*
X136645020Y-92553781D01*
X136629827Y-92615289D01*
X136609086Y-92669409D01*
X136608038Y-92671510D01*
X136545621Y-92758660D01*
X136464726Y-92817939D01*
X136372856Y-92847034D01*
X136277513Y-92843634D01*
X136186198Y-92805428D01*
X136182138Y-92802741D01*
X136110306Y-92737642D01*
X136063073Y-92652705D01*
X136036934Y-92541021D01*
X136033426Y-92509643D01*
X136027213Y-92361536D01*
X136034661Y-92292468D01*
X136222154Y-92292468D01*
X136224590Y-92335552D01*
X136237914Y-92348126D01*
X136271132Y-92338719D01*
X136323494Y-92316483D01*
X136382024Y-92288610D01*
X136383479Y-92287872D01*
X136433089Y-92261777D01*
X136453000Y-92244363D01*
X136448090Y-92226107D01*
X136427416Y-92202120D01*
X136374819Y-92167406D01*
X136318177Y-92164856D01*
X136267369Y-92190119D01*
X136232276Y-92238847D01*
X136222154Y-92292468D01*
X136034661Y-92292468D01*
X136039992Y-92243036D01*
X136072778Y-92149055D01*
X136118421Y-92083215D01*
X136200802Y-92016681D01*
X136291546Y-91983676D01*
X136384185Y-91981573D01*
X136472254Y-92007745D01*
G37*
X136472254Y-92007745D02*
X136549286Y-92059567D01*
X136608816Y-92134412D01*
X136644378Y-92229654D01*
X136651571Y-92299756D01*
X136650754Y-92329009D01*
X136643914Y-92351407D01*
X136625112Y-92371474D01*
X136588408Y-92393733D01*
X136527862Y-92422709D01*
X136437534Y-92462927D01*
X136437077Y-92463129D01*
X136353933Y-92501210D01*
X136285753Y-92535025D01*
X136239505Y-92560933D01*
X136222158Y-92575295D01*
X136222154Y-92575411D01*
X136237443Y-92606685D01*
X136273196Y-92641157D01*
X136314242Y-92665990D01*
X136335037Y-92670923D01*
X136391770Y-92653862D01*
X136440627Y-92611133D01*
X136464465Y-92564155D01*
X136487397Y-92529522D01*
X136532318Y-92490081D01*
X136585123Y-92456009D01*
X136631710Y-92437480D01*
X136641452Y-92436462D01*
X136652418Y-92453215D01*
X136653079Y-92496039D01*
X136645020Y-92553781D01*
X136629827Y-92615289D01*
X136609086Y-92669409D01*
X136608038Y-92671510D01*
X136545621Y-92758660D01*
X136464726Y-92817939D01*
X136372856Y-92847034D01*
X136277513Y-92843634D01*
X136186198Y-92805428D01*
X136182138Y-92802741D01*
X136110306Y-92737642D01*
X136063073Y-92652705D01*
X136036934Y-92541021D01*
X136033426Y-92509643D01*
X136027213Y-92361536D01*
X136034661Y-92292468D01*
X136222154Y-92292468D01*
X136224590Y-92335552D01*
X136237914Y-92348126D01*
X136271132Y-92338719D01*
X136323494Y-92316483D01*
X136382024Y-92288610D01*
X136383479Y-92287872D01*
X136433089Y-92261777D01*
X136453000Y-92244363D01*
X136448090Y-92226107D01*
X136427416Y-92202120D01*
X136374819Y-92167406D01*
X136318177Y-92164856D01*
X136267369Y-92190119D01*
X136232276Y-92238847D01*
X136222154Y-92292468D01*
X136034661Y-92292468D01*
X136039992Y-92243036D01*
X136072778Y-92149055D01*
X136118421Y-92083215D01*
X136200802Y-92016681D01*
X136291546Y-91983676D01*
X136384185Y-91981573D01*
X136472254Y-92007745D01*
G36*
X134954886Y-91995256D02*
G01*
X135046464Y-92043409D01*
X135114049Y-92120905D01*
X135138057Y-92170727D01*
X135156738Y-92245533D01*
X135166301Y-92340052D01*
X135167208Y-92443210D01*
X135159921Y-92543935D01*
X135144903Y-92631153D01*
X135122615Y-92693791D01*
X135115765Y-92704579D01*
X135034632Y-92785105D01*
X134938266Y-92833336D01*
X134833701Y-92847450D01*
X134727968Y-92825629D01*
X134698543Y-92812547D01*
X134641241Y-92772231D01*
X134590950Y-92718775D01*
X134586197Y-92711995D01*
X134566878Y-92679321D01*
X134554108Y-92644394D01*
X134546564Y-92598414D01*
X134542924Y-92532584D01*
X134541865Y-92438105D01*
X134541846Y-92416923D01*
X134541894Y-92410182D01*
X134737231Y-92410182D01*
X134738368Y-92499349D01*
X134742841Y-92558520D01*
X134752246Y-92596741D01*
X134768176Y-92623053D01*
X134776308Y-92631846D01*
X134823058Y-92665261D01*
X134868447Y-92663737D01*
X134914340Y-92634752D01*
X134941712Y-92603809D01*
X134957923Y-92558643D01*
X134967026Y-92487420D01*
X134967651Y-92479114D01*
X134969204Y-92350037D01*
X134952965Y-92254172D01*
X134919152Y-92192107D01*
X134867984Y-92164432D01*
X134849720Y-92162923D01*
X134801760Y-92170513D01*
X134768953Y-92196808D01*
X134748895Y-92247095D01*
X134739178Y-92326664D01*
X134737231Y-92410182D01*
X134541894Y-92410182D01*
X134542574Y-92316249D01*
X134545629Y-92245906D01*
X134552322Y-92197163D01*
X134563960Y-92161288D01*
X134581853Y-92129548D01*
X134585808Y-92123648D01*
X134652267Y-92044104D01*
X134724685Y-91997929D01*
X134812849Y-91979599D01*
X134842787Y-91978703D01*
X134954886Y-91995256D01*
G37*
X134954886Y-91995256D02*
X135046464Y-92043409D01*
X135114049Y-92120905D01*
X135138057Y-92170727D01*
X135156738Y-92245533D01*
X135166301Y-92340052D01*
X135167208Y-92443210D01*
X135159921Y-92543935D01*
X135144903Y-92631153D01*
X135122615Y-92693791D01*
X135115765Y-92704579D01*
X135034632Y-92785105D01*
X134938266Y-92833336D01*
X134833701Y-92847450D01*
X134727968Y-92825629D01*
X134698543Y-92812547D01*
X134641241Y-92772231D01*
X134590950Y-92718775D01*
X134586197Y-92711995D01*
X134566878Y-92679321D01*
X134554108Y-92644394D01*
X134546564Y-92598414D01*
X134542924Y-92532584D01*
X134541865Y-92438105D01*
X134541846Y-92416923D01*
X134541894Y-92410182D01*
X134737231Y-92410182D01*
X134738368Y-92499349D01*
X134742841Y-92558520D01*
X134752246Y-92596741D01*
X134768176Y-92623053D01*
X134776308Y-92631846D01*
X134823058Y-92665261D01*
X134868447Y-92663737D01*
X134914340Y-92634752D01*
X134941712Y-92603809D01*
X134957923Y-92558643D01*
X134967026Y-92487420D01*
X134967651Y-92479114D01*
X134969204Y-92350037D01*
X134952965Y-92254172D01*
X134919152Y-92192107D01*
X134867984Y-92164432D01*
X134849720Y-92162923D01*
X134801760Y-92170513D01*
X134768953Y-92196808D01*
X134748895Y-92247095D01*
X134739178Y-92326664D01*
X134737231Y-92410182D01*
X134541894Y-92410182D01*
X134542574Y-92316249D01*
X134545629Y-92245906D01*
X134552322Y-92197163D01*
X134563960Y-92161288D01*
X134581853Y-92129548D01*
X134585808Y-92123648D01*
X134652267Y-92044104D01*
X134724685Y-91997929D01*
X134812849Y-91979599D01*
X134842787Y-91978703D01*
X134954886Y-91995256D01*
G36*
X137209664Y-92003089D02*
G01*
X137272367Y-92039358D01*
X137315961Y-92075358D01*
X137347845Y-92113075D01*
X137369810Y-92159199D01*
X137383649Y-92220421D01*
X137391153Y-92303431D01*
X137394117Y-92414919D01*
X137394461Y-92495062D01*
X137394461Y-92790065D01*
X137228385Y-92864515D01*
X137218615Y-92541402D01*
X137214579Y-92420729D01*
X137210344Y-92333141D01*
X137205097Y-92272650D01*
X137198025Y-92233268D01*
X137188311Y-92209007D01*
X137175144Y-92193880D01*
X137170919Y-92190606D01*
X137106909Y-92165034D01*
X137042208Y-92175153D01*
X137003692Y-92202000D01*
X136988025Y-92221024D01*
X136977180Y-92245988D01*
X136970288Y-92283834D01*
X136966479Y-92341502D01*
X136964883Y-92425935D01*
X136964615Y-92513928D01*
X136964563Y-92624323D01*
X136962672Y-92702463D01*
X136956345Y-92755165D01*
X136942983Y-92789242D01*
X136919985Y-92811511D01*
X136884754Y-92828787D01*
X136837697Y-92846738D01*
X136786303Y-92866278D01*
X136792421Y-92519485D01*
X136794884Y-92394468D01*
X136797767Y-92302082D01*
X136801898Y-92235881D01*
X136808107Y-92189420D01*
X136817226Y-92156256D01*
X136830083Y-92129944D01*
X136845584Y-92106729D01*
X136920371Y-92032569D01*
X137011628Y-91989684D01*
X137110883Y-91979412D01*
X137209664Y-92003089D01*
G37*
X137209664Y-92003089D02*
X137272367Y-92039358D01*
X137315961Y-92075358D01*
X137347845Y-92113075D01*
X137369810Y-92159199D01*
X137383649Y-92220421D01*
X137391153Y-92303431D01*
X137394117Y-92414919D01*
X137394461Y-92495062D01*
X137394461Y-92790065D01*
X137228385Y-92864515D01*
X137218615Y-92541402D01*
X137214579Y-92420729D01*
X137210344Y-92333141D01*
X137205097Y-92272650D01*
X137198025Y-92233268D01*
X137188311Y-92209007D01*
X137175144Y-92193880D01*
X137170919Y-92190606D01*
X137106909Y-92165034D01*
X137042208Y-92175153D01*
X137003692Y-92202000D01*
X136988025Y-92221024D01*
X136977180Y-92245988D01*
X136970288Y-92283834D01*
X136966479Y-92341502D01*
X136964883Y-92425935D01*
X136964615Y-92513928D01*
X136964563Y-92624323D01*
X136962672Y-92702463D01*
X136956345Y-92755165D01*
X136942983Y-92789242D01*
X136919985Y-92811511D01*
X136884754Y-92828787D01*
X136837697Y-92846738D01*
X136786303Y-92866278D01*
X136792421Y-92519485D01*
X136794884Y-92394468D01*
X136797767Y-92302082D01*
X136801898Y-92235881D01*
X136808107Y-92189420D01*
X136817226Y-92156256D01*
X136830083Y-92129944D01*
X136845584Y-92106729D01*
X136920371Y-92032569D01*
X137011628Y-91989684D01*
X137110883Y-91979412D01*
X137209664Y-92003089D01*
G36*
X135706886Y-91992505D02*
G01*
X135781539Y-92029727D01*
X135847431Y-92098261D01*
X135865577Y-92123648D01*
X135885345Y-92156866D01*
X135898172Y-92192945D01*
X135905510Y-92241098D01*
X135908813Y-92310536D01*
X135909538Y-92402206D01*
X135906263Y-92527830D01*
X135894877Y-92622154D01*
X135873041Y-92692523D01*
X135838419Y-92746286D01*
X135788670Y-92790788D01*
X135785014Y-92793423D01*
X135735985Y-92820377D01*
X135676945Y-92833712D01*
X135601859Y-92837000D01*
X135479795Y-92837000D01*
X135479744Y-92955497D01*
X135478608Y-93021492D01*
X135471686Y-93060202D01*
X135453598Y-93083419D01*
X135418962Y-93102933D01*
X135410645Y-93106920D01*
X135371720Y-93125603D01*
X135341583Y-93137403D01*
X135319174Y-93138422D01*
X135303433Y-93124761D01*
X135293302Y-93092522D01*
X135287723Y-93037804D01*
X135285635Y-92956711D01*
X135285981Y-92845344D01*
X135287700Y-92699802D01*
X135288237Y-92656269D01*
X135290172Y-92506205D01*
X135291904Y-92408042D01*
X135479692Y-92408042D01*
X135480748Y-92491364D01*
X135485438Y-92545880D01*
X135496051Y-92581837D01*
X135514872Y-92609482D01*
X135527650Y-92622965D01*
X135579890Y-92662417D01*
X135626142Y-92665628D01*
X135673867Y-92633049D01*
X135675077Y-92631846D01*
X135694494Y-92606668D01*
X135706307Y-92572447D01*
X135712265Y-92519748D01*
X135714120Y-92439131D01*
X135714154Y-92421271D01*
X135709670Y-92310175D01*
X135695074Y-92233161D01*
X135668650Y-92186147D01*
X135628683Y-92165050D01*
X135605584Y-92162923D01*
X135550762Y-92172900D01*
X135513158Y-92205752D01*
X135490523Y-92265857D01*
X135480606Y-92357598D01*
X135479692Y-92408042D01*
X135291904Y-92408042D01*
X135292222Y-92390060D01*
X135294873Y-92302679D01*
X135298606Y-92238905D01*
X135303907Y-92193582D01*
X135311258Y-92161555D01*
X135321143Y-92137668D01*
X135334046Y-92116764D01*
X135339579Y-92108898D01*
X135412969Y-92034595D01*
X135505760Y-91992467D01*
X135613096Y-91980722D01*
X135706886Y-91992505D01*
G37*
X135706886Y-91992505D02*
X135781539Y-92029727D01*
X135847431Y-92098261D01*
X135865577Y-92123648D01*
X135885345Y-92156866D01*
X135898172Y-92192945D01*
X135905510Y-92241098D01*
X135908813Y-92310536D01*
X135909538Y-92402206D01*
X135906263Y-92527830D01*
X135894877Y-92622154D01*
X135873041Y-92692523D01*
X135838419Y-92746286D01*
X135788670Y-92790788D01*
X135785014Y-92793423D01*
X135735985Y-92820377D01*
X135676945Y-92833712D01*
X135601859Y-92837000D01*
X135479795Y-92837000D01*
X135479744Y-92955497D01*
X135478608Y-93021492D01*
X135471686Y-93060202D01*
X135453598Y-93083419D01*
X135418962Y-93102933D01*
X135410645Y-93106920D01*
X135371720Y-93125603D01*
X135341583Y-93137403D01*
X135319174Y-93138422D01*
X135303433Y-93124761D01*
X135293302Y-93092522D01*
X135287723Y-93037804D01*
X135285635Y-92956711D01*
X135285981Y-92845344D01*
X135287700Y-92699802D01*
X135288237Y-92656269D01*
X135290172Y-92506205D01*
X135291904Y-92408042D01*
X135479692Y-92408042D01*
X135480748Y-92491364D01*
X135485438Y-92545880D01*
X135496051Y-92581837D01*
X135514872Y-92609482D01*
X135527650Y-92622965D01*
X135579890Y-92662417D01*
X135626142Y-92665628D01*
X135673867Y-92633049D01*
X135675077Y-92631846D01*
X135694494Y-92606668D01*
X135706307Y-92572447D01*
X135712265Y-92519748D01*
X135714120Y-92439131D01*
X135714154Y-92421271D01*
X135709670Y-92310175D01*
X135695074Y-92233161D01*
X135668650Y-92186147D01*
X135628683Y-92165050D01*
X135605584Y-92162923D01*
X135550762Y-92172900D01*
X135513158Y-92205752D01*
X135490523Y-92265857D01*
X135480606Y-92357598D01*
X135479692Y-92408042D01*
X135291904Y-92408042D01*
X135292222Y-92390060D01*
X135294873Y-92302679D01*
X135298606Y-92238905D01*
X135303907Y-92193582D01*
X135311258Y-92161555D01*
X135321143Y-92137668D01*
X135334046Y-92116764D01*
X135339579Y-92108898D01*
X135412969Y-92034595D01*
X135505760Y-91992467D01*
X135613096Y-91980722D01*
X135706886Y-91992505D01*
D10*
X137517238Y-121007142D02*
X137469619Y-121054761D01*
X137326761Y-121102380D01*
X137231523Y-121102380D01*
X137088666Y-121054761D01*
X136993428Y-120959523D01*
X136945809Y-120864285D01*
X136898190Y-120673809D01*
X136898190Y-120530952D01*
X136945809Y-120340476D01*
X136993428Y-120245238D01*
X137088666Y-120150000D01*
X137231523Y-120102380D01*
X137326761Y-120102380D01*
X137469619Y-120150000D01*
X137517238Y-120197619D01*
X137945809Y-121102380D02*
X137945809Y-120102380D01*
X138945809Y-121102380D02*
X138374380Y-121102380D01*
X138660095Y-121102380D02*
X138660095Y-120102380D01*
X138564857Y-120245238D01*
X138469619Y-120340476D01*
X138374380Y-120388095D01*
X143954666Y-103274761D02*
X144097523Y-103322380D01*
X144335619Y-103322380D01*
X144430857Y-103274761D01*
X144478476Y-103227142D01*
X144526095Y-103131904D01*
X144526095Y-103036666D01*
X144478476Y-102941428D01*
X144430857Y-102893809D01*
X144335619Y-102846190D01*
X144145142Y-102798571D01*
X144049904Y-102750952D01*
X144002285Y-102703333D01*
X143954666Y-102608095D01*
X143954666Y-102512857D01*
X144002285Y-102417619D01*
X144049904Y-102370000D01*
X144145142Y-102322380D01*
X144383238Y-102322380D01*
X144526095Y-102370000D01*
X144859428Y-102322380D02*
X145097523Y-103322380D01*
X145288000Y-102608095D01*
X145478476Y-103322380D01*
X145716571Y-102322380D01*
X146002285Y-102322380D02*
X146621333Y-102322380D01*
X146288000Y-102703333D01*
X146430857Y-102703333D01*
X146526095Y-102750952D01*
X146573714Y-102798571D01*
X146621333Y-102893809D01*
X146621333Y-103131904D01*
X146573714Y-103227142D01*
X146526095Y-103274761D01*
X146430857Y-103322380D01*
X146145142Y-103322380D01*
X146049904Y-103274761D01*
X146002285Y-103227142D01*
X147976166Y-87988623D02*
X147976166Y-88514766D01*
X147941090Y-88619995D01*
X147870938Y-88690147D01*
X147765709Y-88725223D01*
X147695557Y-88725223D01*
X148326928Y-88725223D02*
X148326928Y-87988623D01*
X148607538Y-87988623D01*
X148677690Y-88023700D01*
X148712766Y-88058776D01*
X148747842Y-88128928D01*
X148747842Y-88234157D01*
X148712766Y-88304309D01*
X148677690Y-88339385D01*
X148607538Y-88374461D01*
X148326928Y-88374461D01*
X149449366Y-88725223D02*
X149028452Y-88725223D01*
X149238909Y-88725223D02*
X149238909Y-87988623D01*
X149168757Y-88093852D01*
X149098604Y-88164004D01*
X149028452Y-88199080D01*
X124356904Y-91257380D02*
X124356904Y-90257380D01*
X124595000Y-90257380D01*
X124737857Y-90305000D01*
X124833095Y-90400238D01*
X124880714Y-90495476D01*
X124928333Y-90685952D01*
X124928333Y-90828809D01*
X124880714Y-91019285D01*
X124833095Y-91114523D01*
X124737857Y-91209761D01*
X124595000Y-91257380D01*
X124356904Y-91257380D01*
X125880714Y-91257380D02*
X125309285Y-91257380D01*
X125595000Y-91257380D02*
X125595000Y-90257380D01*
X125499761Y-90400238D01*
X125404523Y-90495476D01*
X125309285Y-90543095D01*
X128151466Y-85979000D02*
X128117600Y-86012866D01*
X128016000Y-86046733D01*
X127948266Y-86046733D01*
X127846666Y-86012866D01*
X127778933Y-85945133D01*
X127745066Y-85877400D01*
X127711200Y-85741933D01*
X127711200Y-85640333D01*
X127745066Y-85504866D01*
X127778933Y-85437133D01*
X127846666Y-85369400D01*
X127948266Y-85335533D01*
X128016000Y-85335533D01*
X128117600Y-85369400D01*
X128151466Y-85403266D01*
X128388533Y-85335533D02*
X128862666Y-85335533D01*
X128557866Y-86046733D01*
X124087466Y-81661000D02*
X124053600Y-81694866D01*
X123952000Y-81728733D01*
X123884266Y-81728733D01*
X123782666Y-81694866D01*
X123714933Y-81627133D01*
X123681066Y-81559400D01*
X123647200Y-81423933D01*
X123647200Y-81322333D01*
X123681066Y-81186866D01*
X123714933Y-81119133D01*
X123782666Y-81051400D01*
X123884266Y-81017533D01*
X123952000Y-81017533D01*
X124053600Y-81051400D01*
X124087466Y-81085266D01*
X124697066Y-81017533D02*
X124561600Y-81017533D01*
X124493866Y-81051400D01*
X124460000Y-81085266D01*
X124392266Y-81186866D01*
X124358400Y-81322333D01*
X124358400Y-81593266D01*
X124392266Y-81661000D01*
X124426133Y-81694866D01*
X124493866Y-81728733D01*
X124629333Y-81728733D01*
X124697066Y-81694866D01*
X124730933Y-81661000D01*
X124764800Y-81593266D01*
X124764800Y-81423933D01*
X124730933Y-81356200D01*
X124697066Y-81322333D01*
X124629333Y-81288466D01*
X124493866Y-81288466D01*
X124426133Y-81322333D01*
X124392266Y-81356200D01*
X124358400Y-81423933D01*
X133739466Y-109220000D02*
X133705600Y-109253866D01*
X133604000Y-109287733D01*
X133536266Y-109287733D01*
X133434666Y-109253866D01*
X133366933Y-109186133D01*
X133333066Y-109118400D01*
X133299200Y-108982933D01*
X133299200Y-108881333D01*
X133333066Y-108745866D01*
X133366933Y-108678133D01*
X133434666Y-108610400D01*
X133536266Y-108576533D01*
X133604000Y-108576533D01*
X133705600Y-108610400D01*
X133739466Y-108644266D01*
X134382933Y-108576533D02*
X134044266Y-108576533D01*
X134010400Y-108915200D01*
X134044266Y-108881333D01*
X134112000Y-108847466D01*
X134281333Y-108847466D01*
X134349066Y-108881333D01*
X134382933Y-108915200D01*
X134416800Y-108982933D01*
X134416800Y-109152266D01*
X134382933Y-109220000D01*
X134349066Y-109253866D01*
X134281333Y-109287733D01*
X134112000Y-109287733D01*
X134044266Y-109253866D01*
X134010400Y-109220000D01*
X155876666Y-86022380D02*
X155876666Y-86736666D01*
X155829047Y-86879523D01*
X155733809Y-86974761D01*
X155590952Y-87022380D01*
X155495714Y-87022380D01*
X156305238Y-86117619D02*
X156352857Y-86070000D01*
X156448095Y-86022380D01*
X156686190Y-86022380D01*
X156781428Y-86070000D01*
X156829047Y-86117619D01*
X156876666Y-86212857D01*
X156876666Y-86308095D01*
X156829047Y-86450952D01*
X156257619Y-87022380D01*
X156876666Y-87022380D01*
X120316666Y-86022380D02*
X120316666Y-86736666D01*
X120269047Y-86879523D01*
X120173809Y-86974761D01*
X120030952Y-87022380D01*
X119935714Y-87022380D01*
X121316666Y-87022380D02*
X120745238Y-87022380D01*
X121030952Y-87022380D02*
X121030952Y-86022380D01*
X120935714Y-86165238D01*
X120840476Y-86260476D01*
X120745238Y-86308095D01*
X121205666Y-77811380D02*
X121205666Y-78525666D01*
X121158047Y-78668523D01*
X121062809Y-78763761D01*
X120919952Y-78811380D01*
X120824714Y-78811380D01*
X122110428Y-77811380D02*
X121919952Y-77811380D01*
X121824714Y-77859000D01*
X121777095Y-77906619D01*
X121681857Y-78049476D01*
X121634238Y-78239952D01*
X121634238Y-78620904D01*
X121681857Y-78716142D01*
X121729476Y-78763761D01*
X121824714Y-78811380D01*
X122015190Y-78811380D01*
X122110428Y-78763761D01*
X122158047Y-78716142D01*
X122205666Y-78620904D01*
X122205666Y-78382809D01*
X122158047Y-78287571D01*
X122110428Y-78239952D01*
X122015190Y-78192333D01*
X121824714Y-78192333D01*
X121729476Y-78239952D01*
X121681857Y-78287571D01*
X121634238Y-78382809D01*
X134794666Y-111339380D02*
X134794666Y-112053666D01*
X134747047Y-112196523D01*
X134651809Y-112291761D01*
X134508952Y-112339380D01*
X134413714Y-112339380D01*
X135747047Y-111339380D02*
X135270857Y-111339380D01*
X135223238Y-111815571D01*
X135270857Y-111767952D01*
X135366095Y-111720333D01*
X135604190Y-111720333D01*
X135699428Y-111767952D01*
X135747047Y-111815571D01*
X135794666Y-111910809D01*
X135794666Y-112148904D01*
X135747047Y-112244142D01*
X135699428Y-112291761D01*
X135604190Y-112339380D01*
X135366095Y-112339380D01*
X135270857Y-112291761D01*
X135223238Y-112244142D01*
X139493666Y-137374380D02*
X139493666Y-138088666D01*
X139446047Y-138231523D01*
X139350809Y-138326761D01*
X139207952Y-138374380D01*
X139112714Y-138374380D01*
X140398428Y-137707714D02*
X140398428Y-138374380D01*
X140160333Y-137326761D02*
X139922238Y-138041047D01*
X140541285Y-138041047D01*
X127428666Y-148169380D02*
X127428666Y-148883666D01*
X127381047Y-149026523D01*
X127285809Y-149121761D01*
X127142952Y-149169380D01*
X127047714Y-149169380D01*
X127809619Y-148169380D02*
X128428666Y-148169380D01*
X128095333Y-148550333D01*
X128238190Y-148550333D01*
X128333428Y-148597952D01*
X128381047Y-148645571D01*
X128428666Y-148740809D01*
X128428666Y-148978904D01*
X128381047Y-149074142D01*
X128333428Y-149121761D01*
X128238190Y-149169380D01*
X127952476Y-149169380D01*
X127857238Y-149121761D01*
X127809619Y-149074142D01*
X150066476Y-124928380D02*
X150733142Y-125928380D01*
X150733142Y-124928380D02*
X150066476Y-125928380D01*
X151637904Y-125928380D02*
X151066476Y-125928380D01*
X151352190Y-125928380D02*
X151352190Y-124928380D01*
X151256952Y-125071238D01*
X151161714Y-125166476D01*
X151066476Y-125214095D01*
X152042761Y-145351333D02*
X152090380Y-145208476D01*
X152090380Y-144970380D01*
X152042761Y-144875142D01*
X151995142Y-144827523D01*
X151899904Y-144779904D01*
X151804666Y-144779904D01*
X151709428Y-144827523D01*
X151661809Y-144875142D01*
X151614190Y-144970380D01*
X151566571Y-145160857D01*
X151518952Y-145256095D01*
X151471333Y-145303714D01*
X151376095Y-145351333D01*
X151280857Y-145351333D01*
X151185619Y-145303714D01*
X151138000Y-145256095D01*
X151090380Y-145160857D01*
X151090380Y-144922761D01*
X151138000Y-144779904D01*
X151090380Y-144446571D02*
X152090380Y-144208476D01*
X151376095Y-144018000D01*
X152090380Y-143827523D01*
X151090380Y-143589428D01*
X151185619Y-143256095D02*
X151138000Y-143208476D01*
X151090380Y-143113238D01*
X151090380Y-142875142D01*
X151138000Y-142779904D01*
X151185619Y-142732285D01*
X151280857Y-142684666D01*
X151376095Y-142684666D01*
X151518952Y-142732285D01*
X152090380Y-143303714D01*
X152090380Y-142684666D01*
X123467761Y-145351333D02*
X123515380Y-145208476D01*
X123515380Y-144970380D01*
X123467761Y-144875142D01*
X123420142Y-144827523D01*
X123324904Y-144779904D01*
X123229666Y-144779904D01*
X123134428Y-144827523D01*
X123086809Y-144875142D01*
X123039190Y-144970380D01*
X122991571Y-145160857D01*
X122943952Y-145256095D01*
X122896333Y-145303714D01*
X122801095Y-145351333D01*
X122705857Y-145351333D01*
X122610619Y-145303714D01*
X122563000Y-145256095D01*
X122515380Y-145160857D01*
X122515380Y-144922761D01*
X122563000Y-144779904D01*
X122515380Y-144446571D02*
X123515380Y-144208476D01*
X122801095Y-144018000D01*
X123515380Y-143827523D01*
X122515380Y-143589428D01*
X123515380Y-142684666D02*
X123515380Y-143256095D01*
X123515380Y-142970380D02*
X122515380Y-142970380D01*
X122658238Y-143065619D01*
X122753476Y-143160857D01*
X122801095Y-143256095D01*
X147137380Y-144152857D02*
X146661190Y-144486190D01*
X147137380Y-144724285D02*
X146137380Y-144724285D01*
X146137380Y-144343333D01*
X146185000Y-144248095D01*
X146232619Y-144200476D01*
X146327857Y-144152857D01*
X146470714Y-144152857D01*
X146565952Y-144200476D01*
X146613571Y-144248095D01*
X146661190Y-144343333D01*
X146661190Y-144724285D01*
X147137380Y-143200476D02*
X147137380Y-143771904D01*
X147137380Y-143486190D02*
X146137380Y-143486190D01*
X146280238Y-143581428D01*
X146375476Y-143676666D01*
X146423095Y-143771904D01*
X146470714Y-142343333D02*
X147137380Y-142343333D01*
X146089761Y-142581428D02*
X146804047Y-142819523D01*
X146804047Y-142200476D01*
X142184380Y-135897857D02*
X141708190Y-136231190D01*
X142184380Y-136469285D02*
X141184380Y-136469285D01*
X141184380Y-136088333D01*
X141232000Y-135993095D01*
X141279619Y-135945476D01*
X141374857Y-135897857D01*
X141517714Y-135897857D01*
X141612952Y-135945476D01*
X141660571Y-135993095D01*
X141708190Y-136088333D01*
X141708190Y-136469285D01*
X142184380Y-134945476D02*
X142184380Y-135516904D01*
X142184380Y-135231190D02*
X141184380Y-135231190D01*
X141327238Y-135326428D01*
X141422476Y-135421666D01*
X141470095Y-135516904D01*
X141184380Y-134612142D02*
X141184380Y-133993095D01*
X141565333Y-134326428D01*
X141565333Y-134183571D01*
X141612952Y-134088333D01*
X141660571Y-134040714D01*
X141755809Y-133993095D01*
X141993904Y-133993095D01*
X142089142Y-134040714D01*
X142136761Y-134088333D01*
X142184380Y-134183571D01*
X142184380Y-134469285D01*
X142136761Y-134564523D01*
X142089142Y-134612142D01*
X138374380Y-110497857D02*
X137898190Y-110831190D01*
X138374380Y-111069285D02*
X137374380Y-111069285D01*
X137374380Y-110688333D01*
X137422000Y-110593095D01*
X137469619Y-110545476D01*
X137564857Y-110497857D01*
X137707714Y-110497857D01*
X137802952Y-110545476D01*
X137850571Y-110593095D01*
X137898190Y-110688333D01*
X137898190Y-111069285D01*
X138374380Y-109545476D02*
X138374380Y-110116904D01*
X138374380Y-109831190D02*
X137374380Y-109831190D01*
X137517238Y-109926428D01*
X137612476Y-110021666D01*
X137660095Y-110116904D01*
X137469619Y-109164523D02*
X137422000Y-109116904D01*
X137374380Y-109021666D01*
X137374380Y-108783571D01*
X137422000Y-108688333D01*
X137469619Y-108640714D01*
X137564857Y-108593095D01*
X137660095Y-108593095D01*
X137802952Y-108640714D01*
X138374380Y-109212142D01*
X138374380Y-108593095D01*
X125547380Y-121165857D02*
X125071190Y-121499190D01*
X125547380Y-121737285D02*
X124547380Y-121737285D01*
X124547380Y-121356333D01*
X124595000Y-121261095D01*
X124642619Y-121213476D01*
X124737857Y-121165857D01*
X124880714Y-121165857D01*
X124975952Y-121213476D01*
X125023571Y-121261095D01*
X125071190Y-121356333D01*
X125071190Y-121737285D01*
X125547380Y-120213476D02*
X125547380Y-120784904D01*
X125547380Y-120499190D02*
X124547380Y-120499190D01*
X124690238Y-120594428D01*
X124785476Y-120689666D01*
X124833095Y-120784904D01*
X125547380Y-119261095D02*
X125547380Y-119832523D01*
X125547380Y-119546809D02*
X124547380Y-119546809D01*
X124690238Y-119642047D01*
X124785476Y-119737285D01*
X124833095Y-119832523D01*
X128087380Y-135897857D02*
X127611190Y-136231190D01*
X128087380Y-136469285D02*
X127087380Y-136469285D01*
X127087380Y-136088333D01*
X127135000Y-135993095D01*
X127182619Y-135945476D01*
X127277857Y-135897857D01*
X127420714Y-135897857D01*
X127515952Y-135945476D01*
X127563571Y-135993095D01*
X127611190Y-136088333D01*
X127611190Y-136469285D01*
X128087380Y-134945476D02*
X128087380Y-135516904D01*
X128087380Y-135231190D02*
X127087380Y-135231190D01*
X127230238Y-135326428D01*
X127325476Y-135421666D01*
X127373095Y-135516904D01*
X127087380Y-134326428D02*
X127087380Y-134231190D01*
X127135000Y-134135952D01*
X127182619Y-134088333D01*
X127277857Y-134040714D01*
X127468333Y-133993095D01*
X127706428Y-133993095D01*
X127896904Y-134040714D01*
X127992142Y-134088333D01*
X128039761Y-134135952D01*
X128087380Y-134231190D01*
X128087380Y-134326428D01*
X128039761Y-134421666D01*
X127992142Y-134469285D01*
X127896904Y-134516904D01*
X127706428Y-134564523D01*
X127468333Y-134564523D01*
X127277857Y-134516904D01*
X127182619Y-134469285D01*
X127135000Y-134421666D01*
X127087380Y-134326428D01*
X125674380Y-134532666D02*
X125198190Y-134866000D01*
X125674380Y-135104095D02*
X124674380Y-135104095D01*
X124674380Y-134723142D01*
X124722000Y-134627904D01*
X124769619Y-134580285D01*
X124864857Y-134532666D01*
X125007714Y-134532666D01*
X125102952Y-134580285D01*
X125150571Y-134627904D01*
X125198190Y-134723142D01*
X125198190Y-135104095D01*
X125674380Y-134056476D02*
X125674380Y-133866000D01*
X125626761Y-133770761D01*
X125579142Y-133723142D01*
X125436285Y-133627904D01*
X125245809Y-133580285D01*
X124864857Y-133580285D01*
X124769619Y-133627904D01*
X124722000Y-133675523D01*
X124674380Y-133770761D01*
X124674380Y-133961238D01*
X124722000Y-134056476D01*
X124769619Y-134104095D01*
X124864857Y-134151714D01*
X125102952Y-134151714D01*
X125198190Y-134104095D01*
X125245809Y-134056476D01*
X125293428Y-133961238D01*
X125293428Y-133770761D01*
X125245809Y-133675523D01*
X125198190Y-133627904D01*
X125102952Y-133580285D01*
X128087380Y-121451666D02*
X127611190Y-121785000D01*
X128087380Y-122023095D02*
X127087380Y-122023095D01*
X127087380Y-121642142D01*
X127135000Y-121546904D01*
X127182619Y-121499285D01*
X127277857Y-121451666D01*
X127420714Y-121451666D01*
X127515952Y-121499285D01*
X127563571Y-121546904D01*
X127611190Y-121642142D01*
X127611190Y-122023095D01*
X127515952Y-120880238D02*
X127468333Y-120975476D01*
X127420714Y-121023095D01*
X127325476Y-121070714D01*
X127277857Y-121070714D01*
X127182619Y-121023095D01*
X127135000Y-120975476D01*
X127087380Y-120880238D01*
X127087380Y-120689761D01*
X127135000Y-120594523D01*
X127182619Y-120546904D01*
X127277857Y-120499285D01*
X127325476Y-120499285D01*
X127420714Y-120546904D01*
X127468333Y-120594523D01*
X127515952Y-120689761D01*
X127515952Y-120880238D01*
X127563571Y-120975476D01*
X127611190Y-121023095D01*
X127706428Y-121070714D01*
X127896904Y-121070714D01*
X127992142Y-121023095D01*
X128039761Y-120975476D01*
X128087380Y-120880238D01*
X128087380Y-120689761D01*
X128039761Y-120594523D01*
X127992142Y-120546904D01*
X127896904Y-120499285D01*
X127706428Y-120499285D01*
X127611190Y-120546904D01*
X127563571Y-120594523D01*
X127515952Y-120689761D01*
X143962380Y-110656666D02*
X143486190Y-110990000D01*
X143962380Y-111228095D02*
X142962380Y-111228095D01*
X142962380Y-110847142D01*
X143010000Y-110751904D01*
X143057619Y-110704285D01*
X143152857Y-110656666D01*
X143295714Y-110656666D01*
X143390952Y-110704285D01*
X143438571Y-110751904D01*
X143486190Y-110847142D01*
X143486190Y-111228095D01*
X142962380Y-110323333D02*
X142962380Y-109656666D01*
X143962380Y-110085238D01*
X144597380Y-135294666D02*
X144121190Y-135628000D01*
X144597380Y-135866095D02*
X143597380Y-135866095D01*
X143597380Y-135485142D01*
X143645000Y-135389904D01*
X143692619Y-135342285D01*
X143787857Y-135294666D01*
X143930714Y-135294666D01*
X144025952Y-135342285D01*
X144073571Y-135389904D01*
X144121190Y-135485142D01*
X144121190Y-135866095D01*
X143597380Y-134437523D02*
X143597380Y-134628000D01*
X143645000Y-134723238D01*
X143692619Y-134770857D01*
X143835476Y-134866095D01*
X144025952Y-134913714D01*
X144406904Y-134913714D01*
X144502142Y-134866095D01*
X144549761Y-134818476D01*
X144597380Y-134723238D01*
X144597380Y-134532761D01*
X144549761Y-134437523D01*
X144502142Y-134389904D01*
X144406904Y-134342285D01*
X144168809Y-134342285D01*
X144073571Y-134389904D01*
X144025952Y-134437523D01*
X143978333Y-134532761D01*
X143978333Y-134723238D01*
X144025952Y-134818476D01*
X144073571Y-134866095D01*
X144168809Y-134913714D01*
X150058380Y-135167666D02*
X149582190Y-135501000D01*
X150058380Y-135739095D02*
X149058380Y-135739095D01*
X149058380Y-135358142D01*
X149106000Y-135262904D01*
X149153619Y-135215285D01*
X149248857Y-135167666D01*
X149391714Y-135167666D01*
X149486952Y-135215285D01*
X149534571Y-135262904D01*
X149582190Y-135358142D01*
X149582190Y-135739095D01*
X149058380Y-134262904D02*
X149058380Y-134739095D01*
X149534571Y-134786714D01*
X149486952Y-134739095D01*
X149439333Y-134643857D01*
X149439333Y-134405761D01*
X149486952Y-134310523D01*
X149534571Y-134262904D01*
X149629809Y-134215285D01*
X149867904Y-134215285D01*
X149963142Y-134262904D01*
X150010761Y-134310523D01*
X150058380Y-134405761D01*
X150058380Y-134643857D01*
X150010761Y-134739095D01*
X149963142Y-134786714D01*
X150312380Y-143676666D02*
X149836190Y-144010000D01*
X150312380Y-144248095D02*
X149312380Y-144248095D01*
X149312380Y-143867142D01*
X149360000Y-143771904D01*
X149407619Y-143724285D01*
X149502857Y-143676666D01*
X149645714Y-143676666D01*
X149740952Y-143724285D01*
X149788571Y-143771904D01*
X149836190Y-143867142D01*
X149836190Y-144248095D01*
X149645714Y-142819523D02*
X150312380Y-142819523D01*
X149264761Y-143057619D02*
X149979047Y-143295714D01*
X149979047Y-142676666D01*
X153487380Y-85891666D02*
X153011190Y-86225000D01*
X153487380Y-86463095D02*
X152487380Y-86463095D01*
X152487380Y-86082142D01*
X152535000Y-85986904D01*
X152582619Y-85939285D01*
X152677857Y-85891666D01*
X152820714Y-85891666D01*
X152915952Y-85939285D01*
X152963571Y-85986904D01*
X153011190Y-86082142D01*
X153011190Y-86463095D01*
X152487380Y-85558333D02*
X152487380Y-84939285D01*
X152868333Y-85272619D01*
X152868333Y-85129761D01*
X152915952Y-85034523D01*
X152963571Y-84986904D01*
X153058809Y-84939285D01*
X153296904Y-84939285D01*
X153392142Y-84986904D01*
X153439761Y-85034523D01*
X153487380Y-85129761D01*
X153487380Y-85415476D01*
X153439761Y-85510714D01*
X153392142Y-85558333D01*
X150947380Y-85891666D02*
X150471190Y-86225000D01*
X150947380Y-86463095D02*
X149947380Y-86463095D01*
X149947380Y-86082142D01*
X149995000Y-85986904D01*
X150042619Y-85939285D01*
X150137857Y-85891666D01*
X150280714Y-85891666D01*
X150375952Y-85939285D01*
X150423571Y-85986904D01*
X150471190Y-86082142D01*
X150471190Y-86463095D01*
X150042619Y-85510714D02*
X149995000Y-85463095D01*
X149947380Y-85367857D01*
X149947380Y-85129761D01*
X149995000Y-85034523D01*
X150042619Y-84986904D01*
X150137857Y-84939285D01*
X150233095Y-84939285D01*
X150375952Y-84986904D01*
X150947380Y-85558333D01*
X150947380Y-84939285D01*
X154757380Y-78271666D02*
X154281190Y-78605000D01*
X154757380Y-78843095D02*
X153757380Y-78843095D01*
X153757380Y-78462142D01*
X153805000Y-78366904D01*
X153852619Y-78319285D01*
X153947857Y-78271666D01*
X154090714Y-78271666D01*
X154185952Y-78319285D01*
X154233571Y-78366904D01*
X154281190Y-78462142D01*
X154281190Y-78843095D01*
X154757380Y-77319285D02*
X154757380Y-77890714D01*
X154757380Y-77605000D02*
X153757380Y-77605000D01*
X153900238Y-77700238D01*
X153995476Y-77795476D01*
X154043095Y-77890714D01*
X134516904Y-144089380D02*
X134516904Y-143089380D01*
X134755000Y-143089380D01*
X134897857Y-143137000D01*
X134993095Y-143232238D01*
X135040714Y-143327476D01*
X135088333Y-143517952D01*
X135088333Y-143660809D01*
X135040714Y-143851285D01*
X134993095Y-143946523D01*
X134897857Y-144041761D01*
X134755000Y-144089380D01*
X134516904Y-144089380D01*
X135421666Y-143089380D02*
X136040714Y-143089380D01*
X135707380Y-143470333D01*
X135850238Y-143470333D01*
X135945476Y-143517952D01*
X135993095Y-143565571D01*
X136040714Y-143660809D01*
X136040714Y-143898904D01*
X135993095Y-143994142D01*
X135945476Y-144041761D01*
X135850238Y-144089380D01*
X135564523Y-144089380D01*
X135469285Y-144041761D01*
X135421666Y-143994142D01*
X142136904Y-144089380D02*
X142136904Y-143089380D01*
X142375000Y-143089380D01*
X142517857Y-143137000D01*
X142613095Y-143232238D01*
X142660714Y-143327476D01*
X142708333Y-143517952D01*
X142708333Y-143660809D01*
X142660714Y-143851285D01*
X142613095Y-143946523D01*
X142517857Y-144041761D01*
X142375000Y-144089380D01*
X142136904Y-144089380D01*
X143089285Y-143184619D02*
X143136904Y-143137000D01*
X143232142Y-143089380D01*
X143470238Y-143089380D01*
X143565476Y-143137000D01*
X143613095Y-143184619D01*
X143660714Y-143279857D01*
X143660714Y-143375095D01*
X143613095Y-143517952D01*
X143041666Y-144089380D01*
X143660714Y-144089380D01*
X137517238Y-82145142D02*
X137469619Y-82192761D01*
X137326761Y-82240380D01*
X137231523Y-82240380D01*
X137088666Y-82192761D01*
X136993428Y-82097523D01*
X136945809Y-82002285D01*
X136898190Y-81811809D01*
X136898190Y-81668952D01*
X136945809Y-81478476D01*
X136993428Y-81383238D01*
X137088666Y-81288000D01*
X137231523Y-81240380D01*
X137326761Y-81240380D01*
X137469619Y-81288000D01*
X137517238Y-81335619D01*
X137945809Y-82240380D02*
X137945809Y-81240380D01*
X138374380Y-81335619D02*
X138422000Y-81288000D01*
X138517238Y-81240380D01*
X138755333Y-81240380D01*
X138850571Y-81288000D01*
X138898190Y-81335619D01*
X138945809Y-81430857D01*
X138945809Y-81526095D01*
X138898190Y-81668952D01*
X138326761Y-82240380D01*
X138945809Y-82240380D01*
X127595333Y-91162142D02*
X127547714Y-91209761D01*
X127404857Y-91257380D01*
X127309619Y-91257380D01*
X127166761Y-91209761D01*
X127071523Y-91114523D01*
X127023904Y-91019285D01*
X126976285Y-90828809D01*
X126976285Y-90685952D01*
X127023904Y-90495476D01*
X127071523Y-90400238D01*
X127166761Y-90305000D01*
X127309619Y-90257380D01*
X127404857Y-90257380D01*
X127547714Y-90305000D01*
X127595333Y-90352619D01*
X128166761Y-90685952D02*
X128071523Y-90638333D01*
X128023904Y-90590714D01*
X127976285Y-90495476D01*
X127976285Y-90447857D01*
X128023904Y-90352619D01*
X128071523Y-90305000D01*
X128166761Y-90257380D01*
X128357238Y-90257380D01*
X128452476Y-90305000D01*
X128500095Y-90352619D01*
X128547714Y-90447857D01*
X128547714Y-90495476D01*
X128500095Y-90590714D01*
X128452476Y-90638333D01*
X128357238Y-90685952D01*
X128166761Y-90685952D01*
X128071523Y-90733571D01*
X128023904Y-90781190D01*
X127976285Y-90876428D01*
X127976285Y-91066904D01*
X128023904Y-91162142D01*
X128071523Y-91209761D01*
X128166761Y-91257380D01*
X128357238Y-91257380D01*
X128452476Y-91209761D01*
X128500095Y-91162142D01*
X128547714Y-91066904D01*
X128547714Y-90876428D01*
X128500095Y-90781190D01*
X128452476Y-90733571D01*
X128357238Y-90685952D01*
X141327142Y-110783666D02*
X141374761Y-110831285D01*
X141422380Y-110974142D01*
X141422380Y-111069380D01*
X141374761Y-111212238D01*
X141279523Y-111307476D01*
X141184285Y-111355095D01*
X140993809Y-111402714D01*
X140850952Y-111402714D01*
X140660476Y-111355095D01*
X140565238Y-111307476D01*
X140470000Y-111212238D01*
X140422380Y-111069380D01*
X140422380Y-110974142D01*
X140470000Y-110831285D01*
X140517619Y-110783666D01*
X140755714Y-109926523D02*
X141422380Y-109926523D01*
X140374761Y-110164619D02*
X141089047Y-110402714D01*
X141089047Y-109783666D01*
X147423142Y-135294666D02*
X147470761Y-135342285D01*
X147518380Y-135485142D01*
X147518380Y-135580380D01*
X147470761Y-135723238D01*
X147375523Y-135818476D01*
X147280285Y-135866095D01*
X147089809Y-135913714D01*
X146946952Y-135913714D01*
X146756476Y-135866095D01*
X146661238Y-135818476D01*
X146566000Y-135723238D01*
X146518380Y-135580380D01*
X146518380Y-135485142D01*
X146566000Y-135342285D01*
X146613619Y-135294666D01*
X146518380Y-134961333D02*
X146518380Y-134342285D01*
X146899333Y-134675619D01*
X146899333Y-134532761D01*
X146946952Y-134437523D01*
X146994571Y-134389904D01*
X147089809Y-134342285D01*
X147327904Y-134342285D01*
X147423142Y-134389904D01*
X147470761Y-134437523D01*
X147518380Y-134532761D01*
X147518380Y-134818476D01*
X147470761Y-134913714D01*
X147423142Y-134961333D01*
X146772333Y-98655142D02*
X146724714Y-98702761D01*
X146581857Y-98750380D01*
X146486619Y-98750380D01*
X146343761Y-98702761D01*
X146248523Y-98607523D01*
X146200904Y-98512285D01*
X146153285Y-98321809D01*
X146153285Y-98178952D01*
X146200904Y-97988476D01*
X146248523Y-97893238D01*
X146343761Y-97798000D01*
X146486619Y-97750380D01*
X146581857Y-97750380D01*
X146724714Y-97798000D01*
X146772333Y-97845619D01*
X147153285Y-97845619D02*
X147200904Y-97798000D01*
X147296142Y-97750380D01*
X147534238Y-97750380D01*
X147629476Y-97798000D01*
X147677095Y-97845619D01*
X147724714Y-97940857D01*
X147724714Y-98036095D01*
X147677095Y-98178952D01*
X147105666Y-98750380D01*
X147724714Y-98750380D01*
X150201333Y-78335142D02*
X150153714Y-78382761D01*
X150010857Y-78430380D01*
X149915619Y-78430380D01*
X149772761Y-78382761D01*
X149677523Y-78287523D01*
X149629904Y-78192285D01*
X149582285Y-78001809D01*
X149582285Y-77858952D01*
X149629904Y-77668476D01*
X149677523Y-77573238D01*
X149772761Y-77478000D01*
X149915619Y-77430380D01*
X150010857Y-77430380D01*
X150153714Y-77478000D01*
X150201333Y-77525619D01*
X151153714Y-78430380D02*
X150582285Y-78430380D01*
X150868000Y-78430380D02*
X150868000Y-77430380D01*
X150772761Y-77573238D01*
X150677523Y-77668476D01*
X150582285Y-77716095D01*
M02*
