G04 #@! TF.GenerationSoftware,KiCad,Pcbnew,(5.1.5)-3*
G04 #@! TF.CreationDate,2019-12-31T15:28:13-03:00*
G04 #@! TF.ProjectId,BoardNetMF1,426f6172-644e-4657-944d-46312e6b6963,rev?*
G04 #@! TF.SameCoordinates,Original*
G04 #@! TF.FileFunction,Copper,L2,Bot*
G04 #@! TF.FilePolarity,Positive*
%FSLAX46Y46*%
G04 Gerber Fmt 4.6, Leading zero omitted, Abs format (unit mm)*
G04 Created by KiCad (PCBNEW (5.1.5)-3) date 2019-12-31 15:28:13*
%MOMM*%
%LPD*%
G04 APERTURE LIST*
%ADD10O,1.600000X1.600000*%
%ADD11R,1.600000X1.600000*%
%ADD12R,2.000000X1.100000*%
%ADD13C,1.200000*%
%ADD14R,1.200000X1.200000*%
%ADD15C,1.600000*%
%ADD16R,2.540000X1.700000*%
%ADD17O,1.700000X1.700000*%
%ADD18R,1.700000X1.700000*%
%ADD19C,1.500000*%
%ADD20O,1.400000X1.400000*%
%ADD21C,1.400000*%
%ADD22C,1.800000*%
%ADD23R,1.800000X1.800000*%
%ADD24C,0.800000*%
%ADD25C,0.812800*%
%ADD26C,0.406400*%
%ADD27C,0.609600*%
%ADD28C,0.304800*%
%ADD29C,0.250000*%
G04 APERTURE END LIST*
D10*
X142875000Y-102235000D03*
X135255000Y-94615000D03*
X140335000Y-102235000D03*
X137795000Y-94615000D03*
X137795000Y-102235000D03*
X140335000Y-94615000D03*
X135255000Y-102235000D03*
D11*
X142875000Y-94615000D03*
D12*
X146685000Y-75580000D03*
X146685000Y-77580000D03*
X146685000Y-79580000D03*
X146685000Y-81580000D03*
X146685000Y-83580000D03*
X146685000Y-85580000D03*
X146685000Y-87580000D03*
X146685000Y-89580000D03*
X130685000Y-89580000D03*
X130685000Y-87580000D03*
X130685000Y-85580000D03*
X130685000Y-83580000D03*
X130685000Y-81580000D03*
X130685000Y-79580000D03*
X130685000Y-77580000D03*
X130685000Y-75580000D03*
D13*
X126770000Y-84455000D03*
D14*
X128270000Y-84455000D03*
D15*
X126460000Y-80010000D03*
D11*
X124460000Y-80010000D03*
D13*
X135485000Y-107950000D03*
D14*
X133985000Y-107950000D03*
D16*
X156210000Y-88900000D03*
X156210000Y-91440000D03*
X156210000Y-93980000D03*
X156210000Y-96520000D03*
X156210000Y-99060000D03*
X156210000Y-101600000D03*
X156210000Y-104140000D03*
X156210000Y-106680000D03*
X156210000Y-109220000D03*
X156210000Y-111760000D03*
X156210000Y-114300000D03*
X156210000Y-116840000D03*
X156210000Y-119380000D03*
X156210000Y-121920000D03*
X156210000Y-124460000D03*
X156210000Y-127000000D03*
X156210000Y-129540000D03*
X156210000Y-132080000D03*
X156210000Y-134620000D03*
X156210000Y-137160000D03*
X120650000Y-88900000D03*
X120650000Y-91440000D03*
X120650000Y-93980000D03*
X120650000Y-96520000D03*
X120650000Y-99060000D03*
X120650000Y-101600000D03*
X120650000Y-104140000D03*
X120650000Y-106680000D03*
X120650000Y-109220000D03*
X120650000Y-111760000D03*
X120650000Y-114300000D03*
X120650000Y-116840000D03*
X120650000Y-119380000D03*
X120650000Y-121920000D03*
X120650000Y-124460000D03*
X120650000Y-127000000D03*
X120650000Y-129540000D03*
X120650000Y-132080000D03*
X120650000Y-134620000D03*
X120650000Y-137160000D03*
D17*
X126365000Y-76200000D03*
D18*
X123825000Y-76200000D03*
D17*
X132715000Y-111760000D03*
X130175000Y-111760000D03*
X127635000Y-111760000D03*
D18*
X125095000Y-111760000D03*
D17*
X130175000Y-137795000D03*
X132715000Y-137795000D03*
X135255000Y-137795000D03*
D18*
X137795000Y-137795000D03*
D17*
X147955000Y-148590000D03*
X145415000Y-148590000D03*
X142875000Y-148590000D03*
X140335000Y-148590000D03*
X137795000Y-148590000D03*
X135255000Y-148590000D03*
X132715000Y-148590000D03*
D18*
X130175000Y-148590000D03*
D19*
X150495000Y-123390000D03*
X150495000Y-128270000D03*
D10*
X153035000Y-147955000D03*
D11*
X153035000Y-140335000D03*
D10*
X124460000Y-147955000D03*
D11*
X124460000Y-140335000D03*
D20*
X146685000Y-140970000D03*
D21*
X146685000Y-146050000D03*
D20*
X141605000Y-137795000D03*
D21*
X141605000Y-132715000D03*
D20*
X137795000Y-113030000D03*
D21*
X137795000Y-107950000D03*
D20*
X125095000Y-123825000D03*
D21*
X125095000Y-118745000D03*
D20*
X127635000Y-137795000D03*
D21*
X127635000Y-132715000D03*
D20*
X125095000Y-137795000D03*
D21*
X125095000Y-132715000D03*
D20*
X127635000Y-123825000D03*
D21*
X127635000Y-118745000D03*
D20*
X143510000Y-107950000D03*
D21*
X143510000Y-113030000D03*
D20*
X144145000Y-132715000D03*
D21*
X144145000Y-137795000D03*
D20*
X149352000Y-132715000D03*
D21*
X149352000Y-137795000D03*
D20*
X149860000Y-140970000D03*
D21*
X149860000Y-146050000D03*
D20*
X153035000Y-83185000D03*
D21*
X153035000Y-88265000D03*
D20*
X150495000Y-83185000D03*
D21*
X150495000Y-88265000D03*
D20*
X154305000Y-75565000D03*
D21*
X154305000Y-80645000D03*
D22*
X135255000Y-142240000D03*
D23*
X135255000Y-144780000D03*
D22*
X142875000Y-142240000D03*
D23*
X142875000Y-144780000D03*
D15*
X127635000Y-93265000D03*
X127635000Y-88265000D03*
X140716000Y-108030000D03*
X140716000Y-113030000D03*
X147066000Y-137715000D03*
X147066000Y-132715000D03*
X146685000Y-100885000D03*
X146685000Y-95885000D03*
X150495000Y-80565000D03*
X150495000Y-75565000D03*
D24*
X126365000Y-100330000D03*
X135763000Y-110998000D03*
X126365000Y-144145000D03*
X126365000Y-136525000D03*
X142875000Y-121920000D03*
X140017500Y-122174000D03*
X126111000Y-125730000D03*
X131953000Y-126365000D03*
X128778000Y-126746000D03*
X132842000Y-127000000D03*
X128905000Y-102235000D03*
X151384000Y-133985000D03*
X140970000Y-120777000D03*
X146431000Y-120269000D03*
X143129000Y-119380000D03*
X151384000Y-137922000D03*
X134874000Y-115570000D03*
X128016000Y-105156000D03*
X140335000Y-106045000D03*
X141605000Y-130683000D03*
X125222000Y-129667000D03*
X140462000Y-133858000D03*
X139192000Y-140716000D03*
X139700000Y-132334000D03*
X138684000Y-132715000D03*
X124460000Y-135382000D03*
X137541000Y-126746000D03*
X139065000Y-129667000D03*
X138684000Y-130683000D03*
X138684000Y-133858000D03*
X137414000Y-134874000D03*
X136271000Y-134874000D03*
X135001000Y-131953000D03*
X154051000Y-128905000D03*
X133223000Y-129286000D03*
X133731000Y-143002000D03*
X154051000Y-143510000D03*
X129667000Y-146050000D03*
X151511000Y-146812000D03*
X135001000Y-124968000D03*
X130302000Y-126365000D03*
X127317500Y-126301500D03*
X142875000Y-97155000D03*
X142875000Y-104013000D03*
X134747000Y-104521000D03*
X137287000Y-123825000D03*
X135001000Y-123444000D03*
X140335000Y-98425000D03*
X132461000Y-113411000D03*
X137541000Y-111252000D03*
X131445000Y-122682000D03*
X125222000Y-122301000D03*
X131572000Y-115951000D03*
X131699000Y-121158000D03*
X135255000Y-121412000D03*
X132334000Y-114935000D03*
X122428000Y-115570000D03*
X135128000Y-120269000D03*
X128651000Y-120904000D03*
X127381000Y-129286000D03*
X123698000Y-121666000D03*
X124079000Y-125857000D03*
X127762000Y-127254000D03*
X131191000Y-129286000D03*
X131064000Y-132334000D03*
X133096000Y-132334000D03*
X132334000Y-117856000D03*
X123444000Y-120650000D03*
X133223000Y-117094000D03*
X124460000Y-146304000D03*
X138303000Y-125476000D03*
X144145000Y-129286000D03*
X144145000Y-147193000D03*
X144907000Y-128270000D03*
X139573000Y-125476000D03*
X145542000Y-127254000D03*
X140716000Y-125476000D03*
X153162000Y-110617000D03*
X138303000Y-110490000D03*
X153035000Y-124206000D03*
X152273000Y-111506000D03*
X139827000Y-110998000D03*
X152273000Y-120523000D03*
X146812000Y-106680000D03*
X146812000Y-114046000D03*
X140208000Y-114554000D03*
X148082000Y-104140000D03*
X140970000Y-115316000D03*
X147701000Y-114935000D03*
X140208000Y-119888000D03*
X149606000Y-118618000D03*
X148844000Y-102616000D03*
X140970000Y-118999000D03*
X150749000Y-117983000D03*
X149733000Y-99060000D03*
X143891000Y-116840000D03*
X150749000Y-116078000D03*
X145161000Y-93980000D03*
X146812000Y-91440000D03*
X149860000Y-90551000D03*
X147320000Y-119380000D03*
X147447000Y-116840000D03*
X136652000Y-122809000D03*
X132334000Y-103378000D03*
X142748000Y-122936000D03*
X122809000Y-127254000D03*
X147701000Y-129921000D03*
X146812000Y-123063000D03*
X148971000Y-123063000D03*
X143256000Y-123825000D03*
X146431000Y-124587000D03*
X150495000Y-124841000D03*
X142875000Y-124841000D03*
X130175000Y-123952000D03*
X131318000Y-106680000D03*
X148590000Y-109601000D03*
X148336000Y-125349000D03*
X146812000Y-125603000D03*
X148844000Y-136398000D03*
X148336000Y-126492000D03*
X143129000Y-126111000D03*
X125095000Y-113665000D03*
X132715000Y-87630000D03*
X147193000Y-92837000D03*
D25*
X127635000Y-93265000D02*
X127635000Y-91440000D01*
X130810000Y-89535000D02*
X130685000Y-89580000D01*
X127635000Y-91440000D02*
X129540000Y-89535000D01*
X129540000Y-89535000D02*
X130810000Y-89535000D01*
X126770000Y-84455000D02*
X126770000Y-85320000D01*
X125730000Y-89535000D02*
X127635000Y-91440000D01*
X125730000Y-86360000D02*
X125730000Y-89535000D01*
X126770000Y-85320000D02*
X125730000Y-86360000D01*
X120650000Y-93980000D02*
X126920000Y-93980000D01*
X126920000Y-93980000D02*
X127635000Y-93265000D01*
D26*
X146685000Y-100885000D02*
X138510000Y-100885000D01*
X138510000Y-100885000D02*
X137795000Y-101600000D01*
X137795000Y-101600000D02*
X137795000Y-102235000D01*
D25*
X137795000Y-102235000D02*
X137795000Y-100965000D01*
X137160000Y-100330000D02*
X137795000Y-100965000D01*
X137160000Y-100330000D02*
X126365000Y-100330000D01*
X135485000Y-107950000D02*
X137795000Y-107950000D01*
X132715000Y-111760000D02*
X135001000Y-111760000D01*
X135001000Y-111760000D02*
X135763000Y-110998000D01*
D27*
X153035000Y-145415000D02*
X153035000Y-147955000D01*
X152400000Y-144780000D02*
X153035000Y-145415000D01*
X127000000Y-144780000D02*
X152400000Y-144780000D01*
X126365000Y-144145000D02*
X127000000Y-144780000D01*
D26*
X132715000Y-137795000D02*
X132715000Y-136525000D01*
X127000000Y-135890000D02*
X126365000Y-136525000D01*
X132080000Y-135890000D02*
X131445000Y-135890000D01*
X131445000Y-135890000D02*
X127000000Y-135890000D01*
X132715000Y-136525000D02*
X132080000Y-135890000D01*
X131445000Y-135890000D02*
X143510000Y-135890000D01*
X143510000Y-135890000D02*
X146050000Y-135890000D01*
D28*
X146812000Y-135890000D02*
X146050000Y-135890000D01*
X147066000Y-136144000D02*
X146812000Y-135890000D01*
X147066000Y-136144000D02*
X147066000Y-137715000D01*
D26*
X144145000Y-137795000D02*
X144145000Y-136525000D01*
X144145000Y-136525000D02*
X143510000Y-135890000D01*
D28*
X140017500Y-122174000D02*
X142621000Y-122174000D01*
X142621000Y-122174000D02*
X142875000Y-121920000D01*
X126903598Y-125445402D02*
X130556000Y-125445402D01*
X126903598Y-125445402D02*
X126619000Y-125730000D01*
X126619000Y-125730000D02*
X126111000Y-125730000D01*
D25*
X137795000Y-107950000D02*
X140462000Y-107950000D01*
X140716000Y-108204000D02*
X140716000Y-108030000D01*
X140462000Y-107950000D02*
X140716000Y-108204000D01*
D28*
X131033402Y-125445402D02*
X130586598Y-125445402D01*
X131953000Y-126365000D02*
X131033402Y-125445402D01*
D25*
X146685000Y-75580000D02*
X150480000Y-75580000D01*
X150480000Y-75580000D02*
X150495000Y-75565000D01*
X150495000Y-75565000D02*
X154305000Y-75565000D01*
X128270000Y-84455000D02*
X128270000Y-87630000D01*
X128270000Y-87630000D02*
X127635000Y-88265000D01*
D28*
X129222500Y-127190500D02*
X128778000Y-126746000D01*
X132651500Y-127190500D02*
X132842000Y-127000000D01*
X129730500Y-127190500D02*
X132651500Y-127190500D01*
X129730500Y-127190500D02*
X129222500Y-127190500D01*
D25*
X128905000Y-102235000D02*
X135255000Y-102235000D01*
D26*
X125095000Y-137795000D02*
X127635000Y-137795000D01*
X137795000Y-139065000D02*
X137795000Y-137795000D01*
X137160000Y-139700000D02*
X137795000Y-139065000D01*
X136525000Y-139700000D02*
X137160000Y-139700000D01*
X128905000Y-139065000D02*
X129540000Y-139700000D01*
D27*
X127635000Y-137795000D02*
X128905000Y-139065000D01*
D26*
X129540000Y-139700000D02*
X136525000Y-139700000D01*
X146685000Y-146050000D02*
X149860000Y-146050000D01*
X149733000Y-133985000D02*
X149860000Y-133985000D01*
X151384000Y-133985000D02*
X149733000Y-133985000D01*
X147320000Y-133985000D02*
X149860000Y-133985000D01*
X146685000Y-133350000D02*
X147320000Y-133985000D01*
X146685000Y-133350000D02*
X146685000Y-132715000D01*
X136525000Y-139700000D02*
X148590000Y-139700000D01*
X149225000Y-139065000D02*
X149225000Y-137795000D01*
X148590000Y-139700000D02*
X149225000Y-139065000D01*
D28*
X143002000Y-120015000D02*
X142240000Y-120777000D01*
X140970000Y-120777000D02*
X142240000Y-120777000D01*
D29*
X146431000Y-120269000D02*
X142748000Y-120269000D01*
X142748000Y-120269000D02*
X143002000Y-120015000D01*
X143002000Y-120015000D02*
X143129000Y-119888000D01*
X143129000Y-119380000D02*
X143129000Y-119888000D01*
D26*
X149225000Y-137795000D02*
X151257000Y-137795000D01*
X151257000Y-137795000D02*
X151384000Y-137922000D01*
X140335000Y-113030000D02*
X143510000Y-113030000D01*
D28*
X139128500Y-114236500D02*
X140335000Y-113030000D01*
X137985500Y-114236500D02*
X139128500Y-114236500D01*
X136207500Y-114236500D02*
X137985500Y-114236500D01*
X134874000Y-115570000D02*
X136207500Y-114236500D01*
D26*
X128524000Y-105664000D02*
X128016000Y-105156000D01*
X139954000Y-105664000D02*
X128524000Y-105664000D01*
X140335000Y-106045000D02*
X139954000Y-105664000D01*
D28*
X140335000Y-113030000D02*
X140716000Y-113030000D01*
X141224000Y-130683000D02*
X140843000Y-130302000D01*
X141605000Y-130683000D02*
X141224000Y-130683000D01*
X137541000Y-129667000D02*
X134239000Y-129667000D01*
X134239000Y-129667000D02*
X133731000Y-130175000D01*
X133731000Y-130175000D02*
X127635000Y-130175000D01*
X127635000Y-130175000D02*
X126746000Y-130175000D01*
X137541000Y-129667000D02*
X138303000Y-128905000D01*
X138303000Y-128905000D02*
X139446000Y-128905000D01*
X139446000Y-128905000D02*
X140843000Y-130302000D01*
X126746000Y-130175000D02*
X126746000Y-130175000D01*
X125730000Y-130175000D02*
X126746000Y-130175000D01*
X125222000Y-129667000D02*
X125730000Y-130175000D01*
X126746000Y-130178198D02*
X126746000Y-130175000D01*
X126746000Y-130175000D02*
X126746000Y-130175000D01*
D26*
X144145000Y-132715000D02*
X144145000Y-133350000D01*
X144145000Y-133350000D02*
X143637000Y-133858000D01*
X143637000Y-133858000D02*
X140462000Y-133858000D01*
X124587000Y-140335000D02*
X124460000Y-140335000D01*
X125476000Y-140335000D02*
X124587000Y-140335000D01*
X126111000Y-139700000D02*
X125476000Y-140335000D01*
X128016000Y-139700000D02*
X126111000Y-139700000D01*
X128778000Y-140462000D02*
X128016000Y-139700000D01*
X130048000Y-140462000D02*
X128778000Y-140462000D01*
X139192000Y-140716000D02*
X138938000Y-140462000D01*
X138938000Y-140462000D02*
X130048000Y-140462000D01*
D28*
X120650000Y-132080000D02*
X122428000Y-132080000D01*
X127635000Y-132842000D02*
X127635000Y-132715000D01*
X127635000Y-133604000D02*
X127635000Y-132842000D01*
X127254000Y-133985000D02*
X127635000Y-133604000D01*
X124333000Y-133985000D02*
X127254000Y-133985000D01*
X122428000Y-132080000D02*
X124333000Y-133985000D01*
X127635000Y-132715000D02*
X127635000Y-133477000D01*
X136017000Y-132207000D02*
X137795000Y-132207000D01*
X137795000Y-132207000D02*
X137815000Y-132207000D01*
X135636000Y-132588000D02*
X136017000Y-132207000D01*
X127635000Y-133477000D02*
X128143000Y-133985000D01*
X128143000Y-133985000D02*
X134239000Y-133985000D01*
X134239000Y-133985000D02*
X135636000Y-132588000D01*
X137795000Y-132207000D02*
X138049000Y-132207000D01*
X138049000Y-132207000D02*
X138303000Y-131953000D01*
X138303000Y-131953000D02*
X139319000Y-131953000D01*
X139319000Y-131953000D02*
X139700000Y-132334000D01*
X120650000Y-134620000D02*
X124587000Y-134620000D01*
X124587000Y-134620000D02*
X124968000Y-134620000D01*
X124968000Y-134620000D02*
X125857000Y-134620000D01*
X136271000Y-132969000D02*
X136398000Y-132842000D01*
X134620000Y-134620000D02*
X125857000Y-134620000D01*
X134620000Y-134620000D02*
X136271000Y-132969000D01*
D29*
X136398000Y-132842000D02*
X138557000Y-132842000D01*
X138684000Y-132715000D02*
X138557000Y-132842000D01*
D28*
X125603000Y-134620000D02*
X125857000Y-134620000D01*
X124968000Y-134874000D02*
X124968000Y-134620000D01*
X124460000Y-135382000D02*
X124968000Y-134874000D01*
X133477000Y-127762000D02*
X134874000Y-127762000D01*
X135890000Y-126746000D02*
X134874000Y-127762000D01*
X137541000Y-126746000D02*
X135890000Y-126746000D01*
X120650000Y-124460000D02*
X120777000Y-124460000D01*
X122047000Y-124460000D02*
X120777000Y-124460000D01*
X122555000Y-124968000D02*
X122047000Y-124460000D01*
X122555000Y-125603000D02*
X122555000Y-124968000D01*
X123571000Y-126619000D02*
X122555000Y-125603000D01*
X133477000Y-127762000D02*
X133223000Y-128016000D01*
X124968000Y-128016000D02*
X123571000Y-126619000D01*
X126492000Y-128016000D02*
X124968000Y-128016000D01*
X126492000Y-128016000D02*
X127508000Y-128016000D01*
X127508000Y-128016000D02*
X133223000Y-128016000D01*
X123698000Y-126746000D02*
X123571000Y-126619000D01*
X133477000Y-127762000D02*
X133604000Y-127762000D01*
X126238000Y-130683000D02*
X126365000Y-130683000D01*
X126365000Y-130683000D02*
X134112000Y-130683000D01*
X134112000Y-130683000D02*
X134493000Y-130302000D01*
X134493000Y-130302000D02*
X137922000Y-130302000D01*
X137922000Y-130302000D02*
X138557000Y-129667000D01*
X138557000Y-129667000D02*
X139065000Y-129667000D01*
X126365000Y-130683000D02*
X124841000Y-130683000D01*
X121539000Y-127889000D02*
X120650000Y-127000000D01*
X122047000Y-127889000D02*
X121539000Y-127889000D01*
X124841000Y-130683000D02*
X122047000Y-127889000D01*
X120650000Y-129540000D02*
X122555000Y-129540000D01*
X122555000Y-129540000D02*
X124333000Y-131318000D01*
X124333000Y-131318000D02*
X134366000Y-131318000D01*
X134366000Y-131318000D02*
X134620000Y-131064000D01*
X134620000Y-131064000D02*
X135509000Y-131064000D01*
X135509000Y-131064000D02*
X135636000Y-130937000D01*
X135636000Y-130937000D02*
X138430000Y-130937000D01*
X138430000Y-130937000D02*
X138684000Y-130683000D01*
X120650000Y-137160000D02*
X123952000Y-137160000D01*
X123952000Y-137160000D02*
X125857000Y-135255000D01*
X125857000Y-135255000D02*
X135255000Y-135255000D01*
X135255000Y-135255000D02*
X135509000Y-135001000D01*
X135509000Y-135001000D02*
X135509000Y-134493000D01*
X135509000Y-134493000D02*
X136525000Y-133477000D01*
X136525000Y-133477000D02*
X138303000Y-133477000D01*
X138303000Y-133477000D02*
X138684000Y-133858000D01*
X156210000Y-134620000D02*
X154432000Y-134620000D01*
X154432000Y-134620000D02*
X153924000Y-135128000D01*
X153924000Y-135128000D02*
X153797000Y-135255000D01*
X153797000Y-135255000D02*
X137795000Y-135255000D01*
X137795000Y-135255000D02*
X137414000Y-134874000D01*
X156210000Y-132080000D02*
X156083000Y-132080000D01*
X156083000Y-132080000D02*
X153416000Y-134747000D01*
X153416000Y-134747000D02*
X147450198Y-134747000D01*
X147450198Y-134747000D02*
X138430000Y-134747000D01*
X138430000Y-134747000D02*
X137795000Y-134112000D01*
X137795000Y-134112000D02*
X137033000Y-134112000D01*
X137033000Y-134112000D02*
X136271000Y-134874000D01*
X156210000Y-129540000D02*
X154813000Y-129540000D01*
X148717000Y-131445000D02*
X152908000Y-131445000D01*
X141097000Y-131445000D02*
X148717000Y-131445000D01*
X138049000Y-131445000D02*
X141097000Y-131445000D01*
X137922000Y-131572000D02*
X138049000Y-131445000D01*
X135890000Y-131572000D02*
X137922000Y-131572000D01*
X135509000Y-131953000D02*
X135890000Y-131572000D01*
X135001000Y-131953000D02*
X135509000Y-131953000D01*
X154813000Y-129540000D02*
X152908000Y-131445000D01*
X153924000Y-128778000D02*
X154051000Y-128905000D01*
X154051000Y-128905000D02*
X152146000Y-130810000D01*
X152146000Y-130810000D02*
X143129000Y-130810000D01*
X143129000Y-130810000D02*
X140589000Y-128270000D01*
X140589000Y-128270000D02*
X137414000Y-128270000D01*
X137414000Y-128270000D02*
X137160000Y-128270000D01*
X137160000Y-128270000D02*
X136398000Y-129032000D01*
X136398000Y-129032000D02*
X133477000Y-129032000D01*
X133477000Y-129032000D02*
X133223000Y-129286000D01*
X154051000Y-143510000D02*
X142240000Y-143510000D01*
X142240000Y-143510000D02*
X134239000Y-143510000D01*
X134239000Y-143510000D02*
X133731000Y-143002000D01*
X134112000Y-146304000D02*
X134874000Y-146304000D01*
X133858000Y-146050000D02*
X134112000Y-146304000D01*
X129667000Y-146050000D02*
X133858000Y-146050000D01*
X139827000Y-146304000D02*
X144272000Y-146304000D01*
X139700000Y-146177000D02*
X139827000Y-146304000D01*
X138557000Y-146177000D02*
X139700000Y-146177000D01*
X138430000Y-146304000D02*
X138557000Y-146177000D01*
X134874000Y-146304000D02*
X138430000Y-146304000D01*
X144272000Y-146304000D02*
X145034000Y-146304000D01*
X145034000Y-146304000D02*
X146050000Y-147320000D01*
X146050000Y-147320000D02*
X151003000Y-147320000D01*
X151003000Y-147320000D02*
X151511000Y-146812000D01*
D29*
X125095000Y-124714000D02*
X125095000Y-123825000D01*
X125349000Y-124968000D02*
X125095000Y-124714000D01*
X135001000Y-124968000D02*
X125349000Y-124968000D01*
D28*
X130175000Y-125984000D02*
X130302000Y-126365000D01*
X127762000Y-125984000D02*
X130175000Y-125984000D01*
X127381000Y-126301500D02*
X127762000Y-125984000D01*
X127317500Y-126301500D02*
X127381000Y-126301500D01*
X120650000Y-96520000D02*
X142240000Y-96520000D01*
X142240000Y-96520000D02*
X142875000Y-97155000D01*
X142367000Y-104521000D02*
X142875000Y-104013000D01*
X134747000Y-104521000D02*
X142367000Y-104521000D01*
X135636000Y-123444000D02*
X135001000Y-123444000D01*
X136017000Y-123825000D02*
X135636000Y-123444000D01*
X137287000Y-123825000D02*
X136017000Y-123825000D01*
X120650000Y-99060000D02*
X122555000Y-99060000D01*
X122555000Y-99060000D02*
X123825000Y-97790000D01*
X123825000Y-97790000D02*
X139700000Y-97790000D01*
X139700000Y-97790000D02*
X140335000Y-98425000D01*
X132461000Y-113411000D02*
X135382000Y-113411000D01*
X135382000Y-113411000D02*
X137541000Y-111252000D01*
X131445000Y-122682000D02*
X131318000Y-122555000D01*
X131445000Y-122682000D02*
X125603000Y-122682000D01*
X125603000Y-122682000D02*
X125222000Y-122301000D01*
X122428000Y-119380000D02*
X120650000Y-119380000D01*
X131572000Y-115951000D02*
X131191000Y-115570000D01*
X131191000Y-115570000D02*
X124333000Y-115570000D01*
X124333000Y-115570000D02*
X123190000Y-116713000D01*
X123190000Y-116713000D02*
X123190000Y-118618000D01*
X123190000Y-118618000D02*
X122428000Y-119380000D01*
X130937000Y-121920000D02*
X131064000Y-121793000D01*
X125984000Y-121920000D02*
X130937000Y-121920000D01*
X125603000Y-121539000D02*
X125984000Y-121920000D01*
X122174000Y-121920000D02*
X120650000Y-121920000D01*
X122174000Y-121920000D02*
X123063000Y-122809000D01*
X123063000Y-122809000D02*
X123698000Y-122809000D01*
X123698000Y-122809000D02*
X124460000Y-122047000D01*
X124460000Y-122047000D02*
X124460000Y-121793000D01*
X124460000Y-121793000D02*
X124841000Y-121412000D01*
X124841000Y-121412000D02*
X125476000Y-121412000D01*
X125476000Y-121412000D02*
X125603000Y-121539000D01*
X131191000Y-121666000D02*
X131064000Y-121793000D01*
X131699000Y-121158000D02*
X131191000Y-121666000D01*
X151765000Y-125222000D02*
X152463500Y-125920500D01*
X152463500Y-125920500D02*
X152527000Y-125984000D01*
X151765000Y-122428000D02*
X151765000Y-125222000D01*
X151384000Y-122047000D02*
X151765000Y-122428000D01*
X149606000Y-122047000D02*
X151384000Y-122047000D01*
X148677551Y-121118551D02*
X149606000Y-122047000D01*
X148677551Y-121070449D02*
X148677551Y-121118551D01*
X144105551Y-121070449D02*
X148677551Y-121070449D01*
X142660449Y-121070449D02*
X144105551Y-121070449D01*
X142318898Y-121412000D02*
X142660449Y-121070449D01*
X141986000Y-121412000D02*
X142318898Y-121412000D01*
X141859000Y-121539000D02*
X141986000Y-121412000D01*
D29*
X140462000Y-121539000D02*
X141859000Y-121539000D01*
X140335000Y-121412000D02*
X140462000Y-121539000D01*
X139954000Y-121412000D02*
X140335000Y-121412000D01*
X135255000Y-121412000D02*
X139954000Y-121412000D01*
D28*
X152463500Y-125920500D02*
X154622500Y-125920500D01*
X155702000Y-127000000D02*
X156210000Y-127000000D01*
X154622500Y-125920500D02*
X155702000Y-127000000D01*
X132334000Y-114935000D02*
X132334000Y-114808000D01*
X131953000Y-114554000D02*
X132334000Y-114935000D01*
X125349000Y-114554000D02*
X131953000Y-114554000D01*
X123444000Y-114554000D02*
X122428000Y-115570000D01*
X125349000Y-114554000D02*
X123444000Y-114554000D01*
X128651000Y-120904000D02*
X128651000Y-120650000D01*
X134620000Y-119761000D02*
X135128000Y-120269000D01*
X129667000Y-119761000D02*
X134620000Y-119761000D01*
X128651000Y-120777000D02*
X129667000Y-119761000D01*
X128651000Y-120904000D02*
X128651000Y-120777000D01*
X125539500Y-120332500D02*
X125031500Y-120332500D01*
X125476000Y-127254000D02*
X124079000Y-125857000D01*
X127762000Y-127254000D02*
X125476000Y-127254000D01*
X125031500Y-120332500D02*
X123698000Y-121666000D01*
X125539500Y-120332500D02*
X127698500Y-120332500D01*
X127762000Y-129286000D02*
X127381000Y-129286000D01*
X133096000Y-132334000D02*
X131064000Y-132334000D01*
X127762000Y-129286000D02*
X127381000Y-129286000D01*
X131191000Y-129286000D02*
X127762000Y-129286000D01*
X129032000Y-118999000D02*
X127698500Y-120332500D01*
X129667000Y-118999000D02*
X129032000Y-118999000D01*
X131191000Y-118999000D02*
X129667000Y-118999000D01*
X132334000Y-117856000D02*
X131191000Y-118999000D01*
X123825000Y-118872000D02*
X123444000Y-119253000D01*
X123444000Y-120650000D02*
X123444000Y-119253000D01*
X123825000Y-118872000D02*
X123825000Y-117348000D01*
X123825000Y-117348000D02*
X124333000Y-116840000D01*
X124333000Y-116840000D02*
X130429000Y-116840000D01*
X130429000Y-116840000D02*
X132969000Y-116840000D01*
X133223000Y-117094000D02*
X132969000Y-116840000D01*
X137795000Y-148463000D02*
X137795000Y-148590000D01*
X137795000Y-147320000D02*
X137795000Y-148463000D01*
X137541000Y-147066000D02*
X137795000Y-147320000D01*
X133985000Y-147066000D02*
X137541000Y-147066000D01*
X133731000Y-146812000D02*
X133985000Y-147066000D01*
X130937000Y-146812000D02*
X133731000Y-146812000D01*
X127000000Y-146812000D02*
X130937000Y-146812000D01*
X126492000Y-146304000D02*
X127000000Y-146812000D01*
X124460000Y-146304000D02*
X126492000Y-146304000D01*
X138303000Y-126619000D02*
X138303000Y-125476000D01*
X138557000Y-126873000D02*
X138303000Y-126619000D01*
X140843000Y-126873000D02*
X138557000Y-126873000D01*
X141160500Y-127190500D02*
X140843000Y-126873000D01*
X141160500Y-127190500D02*
X143256000Y-129286000D01*
X143256000Y-129286000D02*
X144145000Y-129286000D01*
X140335000Y-148590000D02*
X141732000Y-147193000D01*
X141732000Y-147193000D02*
X144145000Y-147193000D01*
X139573000Y-126238000D02*
X139573000Y-125476000D01*
X139700000Y-126365000D02*
X139573000Y-126238000D01*
X141097000Y-126365000D02*
X139700000Y-126365000D01*
X143002000Y-128270000D02*
X141097000Y-126365000D01*
X143256000Y-128270000D02*
X143002000Y-128270000D01*
X143256000Y-128270000D02*
X144653000Y-128270000D01*
X144907000Y-128270000D02*
X144653000Y-128270000D01*
X143129000Y-127381000D02*
X143256000Y-127381000D01*
X141224000Y-125476000D02*
X143129000Y-127381000D01*
X140716000Y-125476000D02*
X141224000Y-125476000D01*
D29*
X145669000Y-127254000D02*
X145542000Y-127254000D01*
X145288000Y-127381000D02*
X145669000Y-127254000D01*
D28*
X143256000Y-127381000D02*
X145288000Y-127381000D01*
D29*
X152908000Y-110363000D02*
X153162000Y-110617000D01*
D28*
X147955000Y-110363000D02*
X152908000Y-110363000D01*
X147701000Y-110109000D02*
X147955000Y-110363000D01*
X138684000Y-110109000D02*
X147701000Y-110109000D01*
X138303000Y-110490000D02*
X138684000Y-110109000D01*
X156210000Y-124460000D02*
X153289000Y-124460000D01*
X153289000Y-124460000D02*
X153035000Y-124206000D01*
X152019000Y-111252000D02*
X152273000Y-111506000D01*
X147701000Y-111252000D02*
X152019000Y-111252000D01*
X147447000Y-110998000D02*
X147701000Y-111252000D01*
X139827000Y-110998000D02*
X147447000Y-110998000D01*
X152273000Y-120523000D02*
X153670000Y-121920000D01*
X153670000Y-121920000D02*
X156210000Y-121920000D01*
X156210000Y-106807000D02*
X156210000Y-106680000D01*
X156083000Y-106680000D02*
X156210000Y-106807000D01*
X146812000Y-106680000D02*
X156083000Y-106680000D01*
X146304000Y-114554000D02*
X146812000Y-114046000D01*
X140208000Y-114554000D02*
X146304000Y-114554000D01*
X148082000Y-104140000D02*
X156210000Y-104140000D01*
X140970000Y-115316000D02*
X147320000Y-115316000D01*
X147320000Y-115316000D02*
X147701000Y-114935000D01*
X149352000Y-118364000D02*
X149606000Y-118618000D01*
X142748000Y-118364000D02*
X149352000Y-118364000D01*
X141224000Y-119888000D02*
X142748000Y-118364000D01*
X140208000Y-119888000D02*
X141224000Y-119888000D01*
X149606000Y-118618000D02*
X149606000Y-118491000D01*
X149606000Y-118491000D02*
X149606000Y-118618000D01*
X156210000Y-101600000D02*
X156210000Y-101473000D01*
X156083000Y-101600000D02*
X156210000Y-101473000D01*
X149860000Y-101600000D02*
X156083000Y-101600000D01*
X148844000Y-102616000D02*
X149860000Y-101600000D01*
X156210000Y-99060000D02*
X149733000Y-99060000D01*
X140970000Y-118999000D02*
X142315000Y-117729000D01*
X142315000Y-117729000D02*
X150495000Y-117729000D01*
X150495000Y-117729000D02*
X150749000Y-117983000D01*
X143891000Y-116840000D02*
X146304000Y-116840000D01*
X146304000Y-116840000D02*
X147193000Y-115951000D01*
X147193000Y-115951000D02*
X150622000Y-115951000D01*
X150622000Y-115951000D02*
X150749000Y-116078000D01*
X156337000Y-93980000D02*
X156210000Y-93980000D01*
X145161000Y-93980000D02*
X156337000Y-93980000D01*
X156210000Y-91567000D02*
X156210000Y-91440000D01*
X156083000Y-91440000D02*
X156210000Y-91567000D01*
X146812000Y-91440000D02*
X156083000Y-91440000D01*
X154559000Y-88900000D02*
X156210000Y-88900000D01*
X152908000Y-90551000D02*
X154559000Y-88900000D01*
X149860000Y-90551000D02*
X152908000Y-90551000D01*
X156083000Y-119380000D02*
X156210000Y-119380000D01*
X147320000Y-119380000D02*
X156083000Y-119380000D01*
X147447000Y-116840000D02*
X156083000Y-116840000D01*
X156083000Y-116840000D02*
X156210000Y-116840000D01*
X132334000Y-103378000D02*
X126238000Y-103378000D01*
X126238000Y-103378000D02*
X124460000Y-101600000D01*
X124460000Y-101600000D02*
X120904000Y-101600000D01*
X120904000Y-101600000D02*
X120777000Y-101727000D01*
X120777000Y-101727000D02*
X120650000Y-101600000D01*
X142748000Y-122936000D02*
X136779000Y-122936000D01*
X124206000Y-128651000D02*
X122809000Y-127254000D01*
X125603000Y-128651000D02*
X124206000Y-128651000D01*
X135001000Y-128397000D02*
X135128000Y-128397000D01*
X135128000Y-128397000D02*
X136017000Y-128397000D01*
X136017000Y-128397000D02*
X136906000Y-127508000D01*
X125603000Y-128651000D02*
X126746000Y-128651000D01*
X126746000Y-128651000D02*
X126873000Y-128524000D01*
X126873000Y-128524000D02*
X134874000Y-128524000D01*
X134874000Y-128524000D02*
X135001000Y-128397000D01*
X139954000Y-127508000D02*
X136906000Y-127508000D01*
X139954000Y-127508000D02*
X140208000Y-127508000D01*
X139954000Y-127508000D02*
X140589000Y-127508000D01*
X142621000Y-129540000D02*
X140589000Y-127508000D01*
X142621000Y-129540000D02*
X143256000Y-130175000D01*
X143256000Y-130175000D02*
X147447000Y-130175000D01*
X147447000Y-130175000D02*
X147701000Y-129921000D01*
X147701000Y-129667000D02*
X147701000Y-129921000D01*
D26*
X149860000Y-140970000D02*
X152400000Y-140970000D01*
X152400000Y-140970000D02*
X153035000Y-140335000D01*
D29*
X146812000Y-123063000D02*
X148971000Y-123063000D01*
X150495000Y-123317000D02*
X150495000Y-123390000D01*
X149987000Y-123825000D02*
X150495000Y-123317000D01*
X143256000Y-123825000D02*
X149987000Y-123825000D01*
D28*
X150241000Y-124587000D02*
X146431000Y-124587000D01*
X150495000Y-124841000D02*
X150241000Y-124587000D01*
X135763000Y-124587000D02*
X135382000Y-124206000D01*
X141351000Y-124587000D02*
X135763000Y-124587000D01*
X142875000Y-124841000D02*
X141605000Y-124841000D01*
X141605000Y-124841000D02*
X141351000Y-124587000D01*
X135382000Y-124206000D02*
X132461000Y-124206000D01*
X135382000Y-124206000D02*
X135001000Y-124206000D01*
X130175000Y-124079000D02*
X130175000Y-123952000D01*
X131318000Y-106680000D02*
X120650000Y-106680000D01*
X130175000Y-123952000D02*
X132207000Y-123952000D01*
X132207000Y-123952000D02*
X132461000Y-124206000D01*
X121031000Y-114300000D02*
X120650000Y-114300000D01*
X122682000Y-114300000D02*
X121031000Y-114300000D01*
X123317000Y-113665000D02*
X122682000Y-114300000D01*
X123317000Y-109982000D02*
X123317000Y-113665000D01*
X123698000Y-109601000D02*
X123317000Y-109982000D01*
X148590000Y-109601000D02*
X123698000Y-109601000D01*
X148082000Y-125603000D02*
X148336000Y-125349000D01*
X146812000Y-125603000D02*
X148082000Y-125603000D01*
D26*
X156210000Y-137160000D02*
X152146000Y-137160000D01*
X152146000Y-137160000D02*
X151511000Y-136525000D01*
X151511000Y-136525000D02*
X148971000Y-136525000D01*
X148971000Y-136525000D02*
X148844000Y-136398000D01*
D28*
X143510000Y-126492000D02*
X143256000Y-126238000D01*
X148336000Y-126492000D02*
X143510000Y-126492000D01*
D26*
X146685000Y-140970000D02*
X146558000Y-140843000D01*
X135255000Y-142240000D02*
X140716000Y-142240000D01*
X146431000Y-140716000D02*
X146685000Y-140970000D01*
X142240000Y-140716000D02*
X146431000Y-140716000D01*
X140716000Y-142240000D02*
X142240000Y-140716000D01*
D28*
X129540000Y-111760000D02*
X130175000Y-111760000D01*
X127635000Y-113665000D02*
X129540000Y-111760000D01*
X125095000Y-113665000D02*
X127635000Y-113665000D01*
D27*
X142875000Y-94615000D02*
X142875000Y-76200000D01*
X130810000Y-75565000D02*
X130685000Y-75580000D01*
X142240000Y-75565000D02*
X130810000Y-75565000D01*
X142875000Y-76200000D02*
X142240000Y-75565000D01*
X140335000Y-94615000D02*
X140335000Y-93345000D01*
X130810000Y-77470000D02*
X130685000Y-77580000D01*
X140970000Y-77470000D02*
X130810000Y-77470000D01*
X141605000Y-78105000D02*
X140970000Y-77470000D01*
X141605000Y-92075000D02*
X141605000Y-78105000D01*
X140335000Y-93345000D02*
X141605000Y-92075000D01*
X137795000Y-94615000D02*
X137795000Y-84455000D01*
X130810000Y-83820000D02*
X130685000Y-83580000D01*
X137160000Y-83820000D02*
X130810000Y-83820000D01*
X137795000Y-84455000D02*
X137160000Y-83820000D01*
X135255000Y-94615000D02*
X135255000Y-86360000D01*
X130810000Y-85725000D02*
X130685000Y-85580000D01*
X134620000Y-85725000D02*
X130810000Y-85725000D01*
X135255000Y-86360000D02*
X134620000Y-85725000D01*
X130810000Y-87630000D02*
X130685000Y-87580000D01*
X132715000Y-87630000D02*
X130810000Y-87630000D01*
X150495000Y-83185000D02*
X150495000Y-82550000D01*
X147320000Y-79375000D02*
X146685000Y-79580000D01*
X147955000Y-79375000D02*
X147320000Y-79375000D01*
X148590000Y-80010000D02*
X147955000Y-79375000D01*
X148590000Y-80645000D02*
X148590000Y-80010000D01*
X149225000Y-81280000D02*
X148590000Y-80645000D01*
X150495000Y-82550000D02*
X149225000Y-81280000D01*
D25*
X146685000Y-89580000D02*
X149180000Y-89580000D01*
X149180000Y-89580000D02*
X150495000Y-88265000D01*
D28*
X146685000Y-89580000D02*
X146685000Y-90043000D01*
X146812000Y-92837000D02*
X147193000Y-92837000D01*
X145415000Y-91440000D02*
X146812000Y-92837000D01*
X145415000Y-91313000D02*
X145415000Y-91440000D01*
X146685000Y-90043000D02*
X145415000Y-91313000D01*
M02*
