G04 #@! TF.GenerationSoftware,KiCad,Pcbnew,(5.1.5)-3*
G04 #@! TF.CreationDate,2019-12-31T15:28:13-03:00*
G04 #@! TF.ProjectId,BoardNetMF1,426f6172-644e-4657-944d-46312e6b6963,rev?*
G04 #@! TF.SameCoordinates,Original*
G04 #@! TF.FileFunction,Profile,NP*
%FSLAX46Y46*%
G04 Gerber Fmt 4.6, Leading zero omitted, Abs format (unit mm)*
G04 Created by KiCad (PCBNEW (5.1.5)-3) date 2019-12-31 15:28:13*
%MOMM*%
%LPD*%
G04 APERTURE LIST*
%ADD10C,0.050000*%
G04 APERTURE END LIST*
D10*
X119380000Y-144272000D02*
G75*
G03X121158000Y-142494000I0J1778000D01*
G01*
X121158000Y-142494000D02*
G75*
G03X119380000Y-140716000I-1778000J0D01*
G01*
X119380000Y-83566000D02*
X119380000Y-140716000D01*
X119380000Y-76200000D02*
X119380000Y-80010000D01*
X119380000Y-144272000D02*
X119380000Y-147320000D01*
X157480000Y-144272000D02*
X157480000Y-147320000D01*
X157480000Y-83566000D02*
X157480000Y-140716000D01*
X157480000Y-76200000D02*
X157480000Y-80010000D01*
X155702000Y-142494000D02*
G75*
G02X157480000Y-140716000I1778000J0D01*
G01*
X157480000Y-144272000D02*
G75*
G02X155702000Y-142494000I0J1778000D01*
G01*
X157480000Y-83566000D02*
G75*
G02X155702000Y-81788000I0J1778000D01*
G01*
X155702000Y-81788000D02*
G75*
G02X157480000Y-80010000I1778000J0D01*
G01*
X121158000Y-81788000D02*
G75*
G03X119380000Y-80010000I-1778000J0D01*
G01*
X119380000Y-83566000D02*
G75*
G03X121158000Y-81788000I0J1778000D01*
G01*
X121920000Y-73660000D02*
X154940000Y-73660000D01*
X121920000Y-149860000D02*
X154940000Y-149860000D01*
X154940000Y-149860000D02*
G75*
G03X157480000Y-147320000I0J2540000D01*
G01*
X119380000Y-147320000D02*
G75*
G03X121920000Y-149860000I2540000J0D01*
G01*
X121920000Y-73660000D02*
G75*
G03X119380000Y-76200000I0J-2540000D01*
G01*
X157480000Y-76200000D02*
G75*
G03X154940000Y-73660000I-2540000J0D01*
G01*
M02*
