M48
; DRILL file {KiCad (5.1.5)-3} date 31/12/2019 15:58:08
; FORMAT={-:-/ absolute / inch / decimal}
; #@! TF.CreationDate,2019-12-31T15:58:08-03:00
; #@! TF.GenerationSoftware,Kicad,Pcbnew,(5.1.5)-3
; #@! TF.FileFunction,Plated,1,2,PTH
FMAT,2
INCH
T1C0.0157
T2C0.0236
T3C0.0276
T4C0.0315
T5C0.0354
T6C0.0394
%
G90
G05
T1
X4.82Y-4.55
X4.835Y-5.01
X4.86Y-4.75
X4.87Y-4.79
X4.885Y-4.955
X4.9Y-5.33
X4.9Y-5.76
X4.925Y-4.475
X4.93Y-4.815
X4.93Y-5.105
X4.965Y-4.95
X4.975Y-3.95
X4.975Y-5.375
X4.975Y-5.675
X5.0125Y-4.9725
X5.015Y-5.09
X5.03Y-5.01
X5.04Y-4.14
X5.065Y-4.76
X5.07Y-4.99
X5.075Y-4.025
X5.105Y-5.75
X5.125Y-4.88
X5.13Y-4.975
X5.16Y-5.21
X5.165Y-5.09
X5.17Y-4.2
X5.175Y-4.83
X5.18Y-4.565
X5.185Y-4.77
X5.195Y-4.975
X5.21Y-4.07
X5.21Y-4.525
X5.21Y-4.64
X5.215Y-4.465
X5.225Y-3.45
X5.23Y-5.0
X5.24Y-5.21
X5.245Y-4.61
X5.245Y-5.09
X5.265Y-5.63
X5.305Y-4.115
X5.31Y-4.55
X5.315Y-4.86
X5.315Y-4.92
X5.315Y-5.195
X5.32Y-4.735
X5.325Y-4.78
X5.345Y-4.37
X5.365Y-5.31
X5.38Y-4.835
X5.405Y-4.875
X5.41Y-5.31
X5.415Y-4.38
X5.415Y-4.99
X5.445Y-4.35
X5.445Y-4.94
X5.46Y-5.145
X5.46Y-5.225
X5.46Y-5.27
X5.475Y-5.105
X5.48Y-5.54
X5.495Y-4.94
X5.5Y-5.21
X5.505Y-4.37
X5.5125Y-4.81
X5.52Y-4.51
X5.52Y-4.72
X5.525Y-3.875
X5.525Y-4.175
X5.53Y-5.27
X5.54Y-4.94
X5.55Y-4.54
X5.55Y-4.685
X5.55Y-4.755
X5.575Y-5.145
X5.62Y-4.84
X5.625Y-3.825
X5.625Y-4.095
X5.625Y-4.8
X5.625Y-4.915
X5.635Y-4.7
X5.635Y-4.965
X5.64Y-4.875
X5.665Y-4.6
X5.675Y-5.09
X5.675Y-5.795
X5.705Y-5.05
X5.715Y-3.7
X5.73Y-5.01
X5.765Y-4.735
X5.765Y-4.905
X5.78Y-3.6
X5.78Y-4.2
X5.78Y-4.49
X5.78Y-4.845
X5.78Y-4.945
X5.795Y-3.655
X5.8Y-4.7
X5.805Y-4.6
X5.815Y-4.525
X5.815Y-5.115
X5.83Y-4.1
X5.84Y-4.935
X5.84Y-4.98
X5.85Y-4.315
X5.86Y-4.04
X5.86Y-5.37
X5.865Y-4.845
X5.89Y-4.67
X5.895Y-3.9
X5.9Y-3.565
X5.925Y-4.915
X5.935Y-4.57
X5.935Y-4.645
X5.96Y-5.275
X5.96Y-5.43
X5.965Y-5.78
X5.995Y-4.39
X5.995Y-4.745
X6.025Y-4.89
X6.03Y-4.355
X6.065Y-5.075
X6.065Y-5.65
T2
X4.9909Y-3.325
X5.05Y-3.325
X5.275Y-4.25
X5.3341Y-4.25
T3
X5.425Y-4.25
X5.425Y-4.45
X5.775Y-5.55
X5.775Y-5.75
X5.575Y-5.225
X5.575Y-5.425
X4.925Y-4.675
X4.925Y-4.875
X5.025Y-5.225
X5.025Y-5.425
X4.925Y-5.225
X4.925Y-5.425
X5.025Y-4.675
X5.025Y-4.875
X5.65Y-4.25
X5.65Y-4.45
X5.675Y-5.225
X5.675Y-5.425
X5.88Y-5.225
X5.88Y-5.425
X5.9Y-5.55
X5.9Y-5.75
X6.025Y-3.275
X6.025Y-3.475
X5.925Y-3.275
X5.925Y-3.475
X6.075Y-2.975
X6.075Y-3.175
T4
X5.925Y-4.8579
X5.925Y-5.05
X6.025Y-5.525
X6.025Y-5.825
X4.9Y-5.525
X4.9Y-5.825
X5.325Y-3.725
X5.325Y-4.025
X5.425Y-3.725
X5.425Y-4.025
X5.525Y-3.725
X5.525Y-4.025
X5.625Y-3.725
X5.625Y-4.025
X4.9Y-3.15
X4.9787Y-3.15
X5.925Y-2.975
X5.925Y-3.1719
X5.025Y-3.475
X5.025Y-3.6719
X5.54Y-4.2531
X5.54Y-4.45
X5.79Y-5.225
X5.79Y-5.4219
X5.775Y-3.775
X5.775Y-3.9719
T5
X5.325Y-5.6
X5.325Y-5.7
X5.625Y-5.6
X5.625Y-5.7
T6
X4.875Y-3.0
X4.975Y-3.0
X4.925Y-4.4
X5.025Y-4.4
X5.125Y-4.4
X5.225Y-4.4
X5.125Y-5.425
X5.225Y-5.425
X5.325Y-5.425
X5.425Y-5.425
X5.125Y-5.85
X5.225Y-5.85
X5.325Y-5.85
X5.425Y-5.85
X5.525Y-5.85
X5.625Y-5.85
X5.725Y-5.85
X5.825Y-5.85
X6.15Y-3.5
X6.15Y-3.6
X6.15Y-3.7
X6.15Y-3.8
X6.15Y-3.9
X6.15Y-4.0
X6.15Y-4.1
X6.15Y-4.2
X6.15Y-4.3
X6.15Y-4.4
X6.15Y-4.5
X6.15Y-4.6
X6.15Y-4.7
X6.15Y-4.8
X6.15Y-4.9
X6.15Y-5.0
X6.15Y-5.1
X6.15Y-5.2
X6.15Y-5.3
X6.15Y-5.4
X4.75Y-3.5
X4.75Y-3.6
X4.75Y-3.7
X4.75Y-3.8
X4.75Y-3.9
X4.75Y-4.0
X4.75Y-4.1
X4.75Y-4.2
X4.75Y-4.3
X4.75Y-4.4
X4.75Y-4.5
X4.75Y-4.6
X4.75Y-4.7
X4.75Y-4.8
X4.75Y-4.9
X4.75Y-5.0
X4.75Y-5.1
X4.75Y-5.2
X4.75Y-5.3
X4.75Y-5.4
T0
M30
